<svg xmlns="http://www.w3.org/2000/svg" viewBox="0 0 1862.72 2129.1"><defs><style>.cls-1{fill:#0c0c0c;}.cls-2{fill:#fff;}</style></defs><g id="legs"><path class="cls-1" d="M1777.71,2175l-742.88-45.79s-79,428.11-48.08,528.84h299.91c20.6,0-10.45-37.86-40.37-59.24-9.55-6.83,18.3-86.33,55.65-152.58,33.4-59.27,76.29-106.4,76.29-106.4s16-11.45,58.43-11.45c34.53,0,56,7.59,62.85,10.41,2.69,4.77,114.41,151.12,125.78,244.76,4.92,31.6-.17,56.74,5.28,74.5h302.48c20.61,0-13.88-37.86-43.79-59.24l-.29-.31c-6.55-140.33-106.09-407.48-106.09-407.48Z" transform="translate(-563.55 -528.9)"/></g><g id="arms"><path class="cls-1" d="M771.55,2138.31s44.64-337.68,407.51-476.19c0,0,37.18-156.24,17.72-155.09-37.43,2.2-585.49,223.78-611.82,664.48Z" transform="translate(-563.55 -528.9)"/><path class="cls-1" d="M1770.48,1826.72s228.2,376,292.31,374.82,241.52-71,241.52-71S2303,1999,2266.55,1958.12c-23.24-26-68.78,24.45-129.36,53.4,0,0-234.66-163.69-256.41-314.79" transform="translate(-563.55 -528.9)"/></g><g id="gloves"><path class="cls-1" d="M772,2138s10.48,32.57,34.78,49.34-6.37,90.2-6.37,90.2l-51.29,37.82S601,2319.21,577.22,2282,563,2188,588,2158C648.22,2085.73,772,2138,772,2138Z" transform="translate(-563.55 -528.9)"/><path class="cls-1" d="M2253.89,1871s130.57-22.84,143.07,54.84,32.43,119,28.89,133.9-63,115-111.44,88.42-97.21-124.13-97.21-124.13C2199.24,1927.65,2253.89,1871,2253.89,1871Z" transform="translate(-563.55 -528.9)"/><path class="cls-1" d="M2283.4,1830.72c-7.09,3.36-132.83,62.41-95.82,111.77s45.72,39.2,45.72,39.2l61-71.13C2346.54,1849.6,2290.49,1827.36,2283.4,1830.72Z" transform="translate(-563.55 -528.9)"/></g><g id="torso"><path class="cls-1" d="M1210.76,1464.45s-241.89,738.63-176.47,859.88c122.53,30.73,759.36-93.51,759.36-93.51s-115.4-355.15,57-569.29C1897.31,1603.58,1210.76,1464.45,1210.76,1464.45Z" transform="translate(-563.55 -528.9)"/></g><g id="head"><circle cx="1071.46" cy="549.81" r="549.81"/><path d="M2176,996.6s44.69,617.45-435.84,873.84c0,0-151.2,45.67-401.76-144.73-217.75-165.46-214.32-471.09-214.32-471.09S1612.8,305.88,2176,996.6Z" transform="translate(-563.55 -528.9)"/></g><g id="eyes"><path class="cls-2" d="M1809.21,1470.86s27.1,34.64,40.66,36.14,88.84,4.52,96.37,0,43.67-42.16,36.14-52.7S1834.81,1418.16,1809.21,1470.86Z" transform="translate(-563.55 -528.9)"/><path class="cls-2" d="M1614.79,1461s-33,42.23-49.56,44.06-108.32,5.51-117.5,0-53.24-51.4-44.06-64.25S1583.58,1396.7,1614.79,1461Z" transform="translate(-563.55 -528.9)"/></g></svg>