<svg xmlns="http://www.w3.org/2000/svg" viewBox="0 0 259.74 403.89">
  <defs>
    <style>
      .cls-1 {
        isolation: isolate;
      }

      .cls-2 {
        fill: #6db5e5;
      }

      .cls-3 {
        fill: #d68d60;
      }

      .cls-4 {
        fill: #d0845c;
      }

      .cls-5 {
        fill: #eaa671;
      }

      .cls-6 {
        fill: #eaf6fd;
      }

      .cls-7 {
        fill: #b5d7ea;
      }

      .cls-8 {
        fill: #f39f8a;
      }

      .cls-9 {
        fill: #e58c7a;
      }

      .cls-10 {
        fill: #f5af9e;
      }

      .cls-11 {
        fill: #f7c1b2;
      }

      .cls-12 {
        fill: #daebf9;
        mix-blend-mode: multiply;
      }

      .cls-13 {
        fill: #f2be80;
      }

      .cls-14 {
        fill: #fff;
        opacity: 0.83;
        mix-blend-mode: screen;
      }
    </style>
  </defs>
  <title>Asset 3</title>
  <g class="cls-1">
    <g id="Layer_2" data-name="Layer 2">
      <g id="Layer_1-2" data-name="Layer 1">
        <path class="cls-2" d="M47.59,399c-1.42-.33-2.88-.71-4.22-1.13l-1.17-39a2.06,2.06,0,0,1,2-2.13,2.22,2.22,0,0,1,2.17,2Z"/>
        <path class="cls-2" d="M66,400a2,2,0,0,1-.25,1c-1.54-.09-2.8-.17-3.8-.25a1.82,1.82,0,0,1-.13-.67l-1-37.24a2.09,2.09,0,0,1,2-2.13,2.12,2.12,0,0,1,2.13,2.05Z"/>
        <path class="cls-2" d="M83,402c-1.42-.09-2.84-.13-4.18-.21a286.38,286.38,0,0,1,.63-45.56,2.1,2.1,0,0,1,2.25-1.88,2,2,0,0,1,1.84,1.88l0,.42A289.71,289.71,0,0,0,83,402Z"/>
        <path class="cls-2" d="M102.72,358.9l-1,43.8c-1.42,0-2.8-.08-4.18-.17l1-43.71a2.11,2.11,0,0,1,2.09-2.05h0A2.07,2.07,0,0,1,102.72,358.9Z"/>
        <path class="cls-2" d="M119.69,390.45c-.38,4.23-.76,8.53-.92,12.83l-4.18-.12c.16-4.39.58-8.78,1-13.08.79-8.78,1.59-17.85.63-26.58a2,2,0,0,1,1.84-2.3,2.06,2.06,0,0,1,2.29,1.84C121.36,372.19,120.52,381.47,119.69,390.45Z"/>
        <path class="cls-2" d="M141.17,394.26c-.17,1.38-.38,2.76-.54,4.18-.26,1.79-.51,3.59-.71,5.35-1.34-.05-2.76-.05-4.18-.09.2-2,.46-3.93.75-5.89.16-1.34.37-2.72.54-4.05a120.12,120.12,0,0,0,.21-28.17,2.08,2.08,0,0,1,4.14-.46A123.94,123.94,0,0,1,141.17,394.26Z"/>
        <path class="cls-2" d="M161.1,391.75c-.37,4-.75,8.11-.79,12.12h-4.18c0-4.22.42-8.4.79-12.54.8-8.61,1.59-16.72-.45-24.62a2.07,2.07,0,1,1,4-1C162.73,374.28,161.9,383.14,161.1,391.75Z"/>
        <path class="cls-2" d="M251.38,364.82c-.63,5.82-.75,14.06-.92,22-.08,4-.17,8-.29,11.75-1.38.11-2.76.15-4.18.23.12-3.86.21-8,.29-12,.17-8.05.29-16.4,1-22.38a2,2,0,0,1,2.26-1.7A2,2,0,0,1,251.38,364.82Z"/>
        <path class="cls-2" d="M53.7,360.87c-1,.41-1.75,1.09-1.5,2.05s1.52,1.31,2.56,1.42A544.47,544.47,0,0,0,134,367.48c3.48-.12,7.7-.75,9-4,2.62-6.45-8.53-7-12.23-6.66-4.51.45-9.07.28-13.62.35q-14.74.19-29.49,1.1c-10.93.67-21.55.83-32.41,2.18A6.25,6.25,0,0,0,53.7,360.87Z"/>
        <path class="cls-3" d="M258.25,359.82c0,9.74,0,19.31-.5,29.05-.21,4.59-3.34,7.56-7.31,9.36a25.13,25.13,0,0,1-3.89,1.46,33.52,33.52,0,0,1-6.9,1.25c-1.88.17-3.72.34-5.6.42-1.38.17-2.8.25-4.22.34-3.68.29-7.35.54-11,.71-1.38.12-2.76.16-4.18.25-6.27.29-12.58.54-18.89.71l-4.18.12c-5.22.13-10.49.21-15.76.25-1.42,0-2.8.05-4.22.05-5.14,0-10.28.08-15.42,0h0c-1.46,0-2.89,0-4.35,0-7.61,0-15.21,0-22.82,0h-8.86c-3.51,0-7.4,0-11.53-.08-1.34-.05-2.76-.05-4.18-.09-5.44-.08-11.16-.25-17-.42l-4.18-.12c-4.31-.13-8.61-.29-12.83-.46-1.42,0-2.8-.08-4.18-.17-5.18-.17-10.11-.37-14.63-.58-1.42-.09-2.84-.13-4.18-.21-5.22-.25-9.69-.5-13-.71-1.54-.09-2.8-.17-3.8-.25-.17,0-.33,0-.46,0A110.18,110.18,0,0,1,16.22,399c-1.42-.33-2.88-.71-4.22-1.13a33,33,0,0,1-4-1.79,10.66,10.66,0,0,1-4.64-4.77c-1-2.3-1-4.89-1-7.4,0-8.1-1-17.05.67-25a3.31,3.31,0,0,1,.58-1.42,3.07,3.07,0,0,1,1.59-.67c13.25-2.42,27.75-.67,41.21-.67h5.69q28.08.06,56.12.21,61.76.44,123.59,1.46C235.06,357.9,258.25,355.47,258.25,359.82Z"/>
        <path class="cls-4" d="M16.22,399c-1.42-.33-2.88-.71-4.22-1.13l-1.17-39a2.06,2.06,0,0,1,2-2.13,2.22,2.22,0,0,1,2.17,2Z"/>
        <path class="cls-4" d="M34.66,400a2,2,0,0,1-.26,1c-1.54-.09-2.8-.17-3.8-.25a1.81,1.81,0,0,1-.12-.67l-1-37.24a2.09,2.09,0,0,1,2-2.13,2.12,2.12,0,0,1,2.13,2.05Z"/>
        <path class="cls-4" d="M51.58,402c-1.42-.09-2.84-.13-4.18-.21A286.38,286.38,0,0,1,48,356.18a2.1,2.1,0,0,1,2.26-1.88,2,2,0,0,1,1.84,1.88l0,.42A288.5,288.5,0,0,0,51.58,402Z"/>
        <path class="cls-4" d="M71.35,358.9l-1,43.8c-1.42,0-2.8-.08-4.18-.17l1-43.71a2.11,2.11,0,0,1,2.09-2.05h0A2.07,2.07,0,0,1,71.35,358.9Z"/>
        <path class="cls-4" d="M88.32,390.45c-.38,4.23-.75,8.53-.92,12.83l-4.18-.12c.17-4.39.58-8.78,1-13.08.8-8.78,1.59-17.85.63-26.58a2,2,0,0,1,1.84-2.3A2.07,2.07,0,0,1,89,363C90,372.19,89.15,381.47,88.32,390.45Z"/>
        <path class="cls-4" d="M109.8,394.26c-.17,1.38-.38,2.76-.54,4.18-.25,1.79-.5,3.59-.71,5.35-1.34-.05-2.76-.05-4.18-.09.21-2,.46-3.93.75-5.89.17-1.34.38-2.72.54-4.05a119.58,119.58,0,0,0,.21-28.17,2.1,2.1,0,0,1,1.84-2.3,2.08,2.08,0,0,1,2.3,1.84A123.41,123.41,0,0,1,109.8,394.26Z"/>
        <path class="cls-4" d="M129.74,391.75c-.38,4-.76,8.11-.8,12.12h-4.18c0-4.22.42-8.4.8-12.54.79-8.61,1.59-16.72-.46-24.62a2.07,2.07,0,1,1,4-1C131.37,374.28,130.53,383.14,129.74,391.75Z"/>
        <path class="cls-4" d="M156.11,403.83c-1.46,0-2.89,0-4.35,0-1.71-6.35-1.38-13-1.09-19.52.26-5.6.51-11.32-.54-16.67a2.09,2.09,0,1,1,4.1-.8c1.17,5.81.87,11.83.62,17.64C154.52,391.33,154.23,397.85,156.11,403.83Z"/>
        <path class="cls-4" d="M177.34,388.87a134.05,134.05,0,0,0-1.55,14.87c-1.42,0-2.8.05-4.22.05a146.22,146.22,0,0,1,1.59-15.51c1-6.69,1.92-13.62,1.55-20.35a2.07,2.07,0,0,1,2-2.22,2.14,2.14,0,0,1,2.22,2C179.3,374.82,178.3,382,177.34,388.87Z"/>
        <path class="cls-4" d="M195.73,403.37l-4.18.12c-.17-13.37-.08-26.87.33-40.24a2.15,2.15,0,0,1,2.14-2,2.12,2.12,0,0,1,2,2.13C195.65,376.62,195.56,390.08,195.73,403.37Z"/>
        <path class="cls-4" d="M220,365c-.63,6.44-.75,15.55-.92,24.37-.08,4.39-.17,8.82-.29,13-1.38.12-2.76.16-4.18.25.12-4.27.21-8.82.29-13.29.17-8.91.3-18.14,1-24.74A2.08,2.08,0,1,1,220,365Z"/>
        <path class="cls-4" d="M235.18,389c-.46,4.1-.92,8.23-1.13,12.37-1.38.17-2.8.25-4.22.34.25-4.43.71-8.86,1.21-13.17.88-7.94,1.8-16.09,1.26-24.07a2.09,2.09,0,0,1,1.92-2.22,2,2,0,0,1,2.22,1.93C237.06,372.52,236.1,380.88,235.18,389Z"/>
        <path class="cls-4" d="M253.65,365c-.83,11-1.92,22.28-3.21,33.27a25.13,25.13,0,0,1-3.89,1.46,1.76,1.76,0,0,1-.33-1.38c1.33-11.16,2.42-22.48,3.26-33.64a2.09,2.09,0,0,1,4.17.29Z"/>
        <path class="cls-5" d="M172.62,347.36c19.94.65,40.62,1.12,59.44,3.57,16.49,2.15,39.05,7.71,17.79,13.25-22.18,5.78-59.82,4.83-86.53,5-32.18.17-64.41-.53-96.25-2.07-13.26-.65-65.17-1.51-64.28-8.46.94-7.32,54.07-9.91,69.77-10.78C105.59,346,139.4,346.27,172.62,347.36Z"/>
        <path class="cls-2" d="M51.39,77.82a24.93,24.93,0,0,0-6.58,7.94c-1.49,3-1.59,6.46-1.67,9.8-1.31,57-2.63,150.36-3.94,207.36-.14,6-.16,12.37,3.16,17.33,7,10.49,20.51,14.74,32.34,16.7,10.73,1.78,30.19,4,39.05-3.59,6.85-5.87,5.89-16.25,6.53-25.25,2.18-30.16,4.28-182.45,1.57-215.65-.66-8.21-9.51-17.8-14.77-23.92S96.34,63.3,88.14,62.6a33.09,33.09,0,0,0-7.64,0c-3.75.56-7.17,2.4-10.5,4.22C64.28,69.89,57,73.18,51.39,77.82Z"/>
        <path class="cls-6" d="M131.81,362.6a378.56,378.56,0,0,1-56.27-3.9c-22-3.35-60.3-12.36-69.51-35.16-4.78-11.83-4.59-25-4.42-36.58C2.55,222.8,4.32,133.21,7.17,83.07c.21-3.66.47-8.21,2.91-12C15.88,62.14,32,56.29,45,51.58c4.31-1.56,8.38-3.64,11.5-5a1.47,1.47,0,0,1,.62-.13h156a1.56,1.56,0,0,1,.79.21c2.63,1.57,5.51,3.12,8.55,4.77,9.8,5.29,20.92,11.9,30.64,21.94,5.71,5.91,5.33,56.74,5,69.53-.07,2.42-.13,4.76-.15,6.95,0,5,0,16.77,0,31.71,0,38.15.08,95.81-.57,121.72-.57,23.08-5.38,35.9-31.18,46.3-24.31,9.8-43.17,10.88-67,12.26C150,362.33,140.82,362.6,131.81,362.6Z"/>
        <path class="cls-7" d="M213.06,48c11.08,6.6,26.3,13.47,38.87,26.45,6.3,6.51,4.51,62,4.41,75.4-.14,17.36.31,117.14-.59,153.4-.58,23.29-5.77,35.05-30.22,44.91-23.71,9.56-41.68,10.72-66.55,12.15-8.82.51-17.95.78-27.17.78a379,379,0,0,1-56-3.88C53.58,353.8,16.25,344.72,7.46,323c-4.6-11.38-4.48-24-4.31-36C4,231.14,5.53,139,8.71,83.15c.22-3.86.5-7.88,2.66-11.22,7.42-11.44,33.31-18.44,45.72-24h156m0-3.09h-156a3,3,0,0,0-1.25.27c-3.07,1.37-7.11,3.44-11.39,5C31.27,54.91,14.87,60.86,8.78,70.26,6.12,74.36,5.85,79.14,5.63,83,2.77,133.15,1,222.75.07,286.93-.11,298.69-.3,312,4.6,324.12c9.5,23.51,48.38,32.71,70.7,36.1a379.08,379.08,0,0,0,56.51,3.92c9,0,18.24-.27,27.35-.79,24-1.38,43-2.47,67.53-12.37,26.44-10.66,31.57-24.43,32.15-47.69.64-25.92.6-83.57.57-121.71,0-15,0-26.79,0-31.75,0-2.17.07-4.48.14-6.93.35-13.08.74-64.26-5.42-70.63C244.26,62.06,233,55.39,223.13,50c-3-1.64-5.88-3.18-8.49-4.73A3,3,0,0,0,213.06,44.87Z"/>
        <path class="cls-2" d="M47.59,52.52c-1.42-.33-2.88-.71-4.22-1.13l-1.17-39a2.06,2.06,0,0,1,2-2.13,2.21,2.21,0,0,1,2.17,2Z"/>
        <path class="cls-2" d="M66,53.52a2,2,0,0,1-.25,1c-1.54-.09-2.8-.17-3.8-.25a1.82,1.82,0,0,1-.13-.67l-1-37.24a2.09,2.09,0,1,1,4.18-.08Z"/>
        <path class="cls-2" d="M83,55.45c-1.42-.09-2.84-.13-4.18-.21A286.38,286.38,0,0,1,79.4,9.68,2.1,2.1,0,0,1,81.65,7.8a2,2,0,0,1,1.84,1.88l0,.42A289.71,289.71,0,0,0,83,55.45Z"/>
        <g>
          <rect class="cls-8" x="120.79" y="116.82" width="24.43" height="200.99" rx="5.69"/>
          <path class="cls-9" d="M145.22,312.11h-1.53a4.17,4.17,0,0,1-4.16,4.17h-13a4.17,4.17,0,0,1-4.16-4.17V122.51a4.17,4.17,0,0,1,4.16-4.17h13a4.17,4.17,0,0,1,4.16,4.17v189.6h3.06V122.51a7.22,7.22,0,0,0-7.22-7.22h-13a7.22,7.22,0,0,0-7.22,7.22v189.6a7.22,7.22,0,0,0,7.22,7.22h13a7.22,7.22,0,0,0,7.22-7.22Z"/>
          <path class="cls-10" d="M46.43,253.81c.65,9.35,3,17.44,8.89,24.9C63.48,289,75.17,297,87.2,302.13c9.83,4.17,22.19,7,32,1.15,7.92-4.76,11.91-14,13.15-22.83,1.13-8.08-.23-15.92-2.66-23.63l-.81-2.49Z"/>
          <path class="cls-8" d="M129.65,256.82l-.81-2.49-82.41-.52a56.52,56.52,0,0,0,1.48,9.8,11.8,11.8,0,0,0,2.15.9,42.81,42.81,0,0,0,9.35,1.43c5.86.36,11.2,2.61,17,3.19,2.9.29,5.8.42,8.7.55a27.86,27.86,0,0,1,7.32,1.49,32.66,32.66,0,0,0,17.73.15c3.5-.91,8.06-2.45,11.56-.68s5.12,5.79,5.16,9.67c.09,7.94-2.87,15.64-7,22.46,7.4-4.89,11.17-13.79,12.37-22.32C133.44,272.37,132.08,264.53,129.65,256.82Z"/>
          <path class="cls-9" d="M46.43,253.81l-1.53.11a53.77,53.77,0,0,0,2.55,13.54,40,40,0,0,0,6.67,12.2c8.37,10.54,20.26,18.7,32.49,23.88,6,2.52,12.84,4.6,19.69,4.6A26.08,26.08,0,0,0,120,304.59a26.59,26.59,0,0,0,9.64-10.48,40.85,40.85,0,0,0,4.23-13.45,43.15,43.15,0,0,0,.42-6.08,60.47,60.47,0,0,0-3.14-18.22c-.26-.84-.54-1.68-.81-2.51a1.54,1.54,0,0,0-1.44-1l-82.41-.51a1.5,1.5,0,0,0-1.13.48,1.53,1.53,0,0,0-.41,1.15l1.53-.11v1.53l82.41.52v-1.53l-1.45.48c.27.82.54,1.65.8,2.47a57.5,57.5,0,0,1,3,17.3,41.61,41.61,0,0,1-.38,5.66,37.87,37.87,0,0,1-3.91,12.43,23.57,23.57,0,0,1-8.51,9.3,23.14,23.14,0,0,1-12.08,3.12c-6.23,0-12.78-1.94-18.5-4.36-11.83-5-23.33-12.93-31.29-23a37.15,37.15,0,0,1-6.17-11.28A50.65,50.65,0,0,1,48,253.71l-1.52.1v0Z"/>
          <path class="cls-11" d="M86.19,277c-1.7-.3-3.49.65-3.33,2.61.18,2.21,2.58,2.51,4.35,2.51a3.41,3.41,0,0,0,2.65-.79,2.52,2.52,0,0,0,.62-2.45C89.87,276.68,87.86,277.27,86.19,277Z"/>
          <path class="cls-11" d="M117.47,274.76c-1.55-1-4.17-.29-5.83,0-4.84.81-9.59,2.07-14.44,2.84a2.76,2.76,0,0,0-1.15,4.91,12.25,12.25,0,0,0,6.42,2c5.16.4,11-1.16,14.77-4.83a3.75,3.75,0,0,0,1.46-2.56A2.8,2.8,0,0,0,117.47,274.76Z"/>
          <path class="cls-10" d="M219.58,253.81c-.65,9.35-3,17.44-8.89,24.9C202.53,289,190.83,297,178.81,302.13c-9.84,4.17-22.19,7-32,1.15-7.92-4.76-11.92-14-13.15-22.83-1.13-8.08.23-15.92,2.66-23.63l.81-2.49Z"/>
          <path class="cls-8" d="M136.36,256.82l.81-2.49,82.41-.52a56.52,56.52,0,0,1-1.48,9.8,12.1,12.1,0,0,1-2.15.9,42.81,42.81,0,0,1-9.35,1.43c-5.86.36-11.2,2.61-17,3.19-2.9.29-5.8.42-8.7.55a27.7,27.7,0,0,0-7.32,1.49,32.66,32.66,0,0,1-17.73.15c-3.5-.91-8.06-2.45-11.56-.68s-5.12,5.79-5.16,9.67c-.09,7.94,2.87,15.64,7,22.46-7.4-4.89-11.18-13.79-12.37-22.32C132.57,272.37,133.93,264.53,136.36,256.82Z"/>
          <path class="cls-9" d="M219.58,253.81l-1.52-.1a50.65,50.65,0,0,1-2.39,12.77,37,37,0,0,1-6.18,11.28c-8,10-19.45,18-31.28,23-5.72,2.42-12.27,4.36-18.5,4.36A23.14,23.14,0,0,1,147.63,302a23.66,23.66,0,0,1-8.52-9.3,37.85,37.85,0,0,1-3.9-12.43,41.63,41.63,0,0,1-.39-5.66,57.52,57.52,0,0,1,3-17.3c.26-.82.53-1.65.8-2.48l-1.45-.47v1.53l82.41-.52v-1.53l-1.52-.1,1.52.1v-1.52l-82.41.51a1.53,1.53,0,0,0-1.44,1c-.28.83-.55,1.67-.82,2.51a60.77,60.77,0,0,0-3.13,18.22,43.15,43.15,0,0,0,.42,6.08,40.62,40.62,0,0,0,4.23,13.45,26.59,26.59,0,0,0,9.64,10.48,26.08,26.08,0,0,0,13.65,3.55c6.85,0,13.74-2.08,19.69-4.6,12.23-5.18,24.12-13.34,32.49-23.88a40,40,0,0,0,6.67-12.2,53.77,53.77,0,0,0,2.55-13.54,1.53,1.53,0,0,0-.41-1.15,1.5,1.5,0,0,0-1.13-.48Z"/>
          <path class="cls-11" d="M179.82,277c1.7-.3,3.49.65,3.33,2.61-.19,2.21-2.58,2.51-4.35,2.51a3.4,3.4,0,0,1-2.65-.79,2.55,2.55,0,0,1-.63-2.45C176.14,276.68,178.15,277.27,179.82,277Z"/>
          <path class="cls-11" d="M148.54,274.76c1.55-1,4.17-.29,5.83,0,4.84.81,9.59,2.07,14.44,2.84A2.76,2.76,0,0,1,170,282.5a12.25,12.25,0,0,1-6.42,2c-5.16.4-11-1.16-14.77-4.83a3.75,3.75,0,0,1-1.46-2.56A2.8,2.8,0,0,1,148.54,274.76Z"/>
          <path class="cls-10" d="M132,108.64c-2.67-12.16-10.46-14.77-22.34-12.57-12.84,2.39-26.07,8.81-37.44,15.05a45,45,0,0,0-16.33,14.46c-8.67-.47-16.35,12.91-19.59,19.74a20.83,20.83,0,0,0-1.94,8.55C26,156.76,21.94,173.29,22,181.36a19.74,19.74,0,0,0,2,8.26c-8.06,7.09-8.6,22.29-4.62,31.68A28.07,28.07,0,0,0,24,228.62c-.36,6.24-.36,13.5,16.34,22.28,2.85,3,7.18,9.46,22.78,8.64,1.58,3.23,11.55,6.5,20.07,3.74,16.52,7.5,34.68,1.63,38.78-.55a17.77,17.77,0,0,0,8.95-11c1.65-5.6-.09-11.22-.27-16.89-.25-7.76.63-15.45,1.23-23.18,1.19-15.11-.85-30-.56-45.15.29-14.74,2.36-29.23,1.34-44-.12-1.69-.25-3.37-.39-5.06Z"/>
          <path class="cls-8" d="M120.63,160.25A33.9,33.9,0,0,1,131.3,170c0-1.18,0-2.36,0-3.55.14-7.39.74-14.71,1.16-22.05a7,7,0,0,1-2.38,3.2c-3.13,2.2-6.73,2.84-10.21,1-3.73-1.93-7.54-2.82-11.35-4.44a9.56,9.56,0,0,1-4-2.62C102.43,152.89,112.55,155.19,120.63,160.25Z"/>
          <path class="cls-8" d="M112.72,114.74l-.12.09c-4,2-7.16,4.36-8.94,8.41,3.72-2.21,9.84-3,13.31-1.09,6.26,3.43,10.93,9.86,15.28,15.74a.86.86,0,0,1,.56-.36,143.09,143.09,0,0,0-.15-15.07c-.12-1.69-.25-3.37-.39-5.06l0-.78a21.17,21.17,0,0,1-1.14,1.81C124.78,127.23,119.28,117.13,112.72,114.74Z"/>
          <path class="cls-8" d="M66.75,239.66a14.2,14.2,0,0,1,6.06-4.35c3.34-1.38,6.06-3.64,9.12-5.41-3.66.73-7.34,1.5-11.05,1.89-2,.22-5.18-.09-6.88,1.14a6.3,6.3,0,0,0-1.72,2,30.67,30.67,0,0,1-1.36,4c-1.43,6.35-1.72,14,2.25,19.44C62.19,251.76,62.64,245.35,66.75,239.66Z"/>
          <path class="cls-8" d="M98.29,248.78a4,4,0,0,0-2.08,2.85,14.77,14.77,0,0,0-.49,5.21,4.86,4.86,0,0,1,4.79-1.88c1.81.22,3.5.84,5.29,1.15a21.69,21.69,0,0,0,7.84-.17,16.31,16.31,0,0,1-11.21-4.82C101.49,250.24,99.83,248.21,98.29,248.78Z"/>
          <path class="cls-8" d="M72.51,215.41c-2.06-3.89-4.17-8.53-4.14-13.08C65.73,207,62.68,212.61,57.26,211c2.26,4.75,5.92,11.71,12.17,8.93a1,1,0,0,1,1.22.16c2.82,2.74,5.45,5.63,9.82,5.34,1.22-.08,2.43-.27,3.63-.47A18.24,18.24,0,0,1,72.51,215.41Z"/>
          <path class="cls-8" d="M77.81,160.15a17.36,17.36,0,0,0-5.54,2.22,11.65,11.65,0,0,1,8.48,2.09,10.18,10.18,0,0,1,4.39,6.34c.71,4.54-1.32,9.35.62,13.68a1,1,0,0,1-.31,1.27,13,13,0,0,0,3.15-.43c3.13-1,3.47-3.11,3.26-6-.37-5.24-1.35-11.55-5.47-15.27C84.23,162.05,80.93,159.51,77.81,160.15Z"/>
          <path class="cls-8" d="M73.46,187.75c-3.82-.41-6.45-2-9.44-3.86,1.23,3.1,4.06,8.47,7.19,7.52,2.37-.71,4.35-2.39,6.58-3.49A27.09,27.09,0,0,1,73.46,187.75Z"/>
          <path class="cls-8" d="M24,228.78a24.68,24.68,0,0,0,4.84,1.29,25.81,25.81,0,0,0,6.75.6c-5.92-4.18-11.26-9.35-14.24-16.07a44.36,44.36,0,0,1-3.55-13.83,34.92,34.92,0,0,0,1.53,20.53A28.07,28.07,0,0,0,24,228.62Z"/>
          <path class="cls-8" d="M66,149.55A10.62,10.62,0,0,1,64,147.87c-.44-.52-1.55.65-1.84.87a41.15,41.15,0,0,0-8.67,8.51c-.37.51-.71,1-1,1.55a.58.58,0,0,1-.28.44,25,25,0,0,0-3.53,17.22,28.79,28.79,0,0,1,20.84-24.73C68.3,151,67.11,150.35,66,149.55Z"/>
          <path class="cls-8" d="M52.37,133.81A31.66,31.66,0,0,1,55,125.59c-8.28.47-15.54,13.15-18.66,19.73a19.44,19.44,0,0,0-1.45,4.32C38.11,142.24,44.17,132.3,52.37,133.81Z"/>
          <path class="cls-8" d="M86.49,126.87c.6-3.76-.24-8.57-4.48-9.36-4.05-.75-8,1.69-11.22,4.4C76.3,119.68,84.09,121.46,86.49,126.87Z"/>
          <path class="cls-8" d="M84.49,257.93a16,16,0,0,1-.34-10.5c1-3.92,2-7.27,1.23-10.9-.83,4.17-4.22,7.7-6,11.5-3,6.57.5,11.38,4.91,15.72a39.71,39.71,0,0,0,6.29,2A16.9,16.9,0,0,1,84.49,257.93Z"/>
          <path class="cls-8" d="M37.4,157.83c-4.42,4.69-8,10.65-8.77,17.12a30,30,0,0,1,8.52-13.13c4.37-3.72,9.1-4.57,14.63-3.6a36.37,36.37,0,0,1,2.89-3.84C49.61,149.29,41.53,153.47,37.4,157.83Z"/>
          <path class="cls-8" d="M34.34,238.72c2.19-.55,3.73,2,5.08,3.49,2.87,3.13,5.86,6.06,9.62,7.95a53.64,53.64,0,0,1-6.19-9c-1-1.85-2-4.45-3.57-5.89C36.41,232.75,34.45,236.07,34.34,238.72Z"/>
          <path class="cls-8" d="M95.68,236.55c.23,4.67-.53,9.15-1,13.7a9.65,9.65,0,0,1,1.93-2.1c.47-.37,2.55-.87,2.59-1.29.2-2.15.27-4.31.56-6.45a47.45,47.45,0,0,1,1.19-4.84c.54-2.2,0-3.47-1.5-5.14a15.77,15.77,0,0,0-3.62-3.49,9.13,9.13,0,0,0-2.79-.95C95.52,228.78,95.51,233,95.68,236.55Z"/>
          <path class="cls-8" d="M60.11,237.65a15.5,15.5,0,0,1,1.23-3.21c.28-1.67.47-3.58-1.46-4.24-.93-.32-1.87-.66-2.77-1.07a21.23,21.23,0,0,1-6.49-4.34c-3.72-3.89-7.23-9.4-8.27-14.76s-.06-10.58-.12-15.9c0,1.2-2.37,2.93-3.28,3.41-1.43.77-3.08.62-4.4,1.64a19.93,19.93,0,0,0-6.75,10.07,8.1,8.1,0,0,1,2.25-2c1.68-.95,4.24-1.43,6-.32s1.84,3.56,2.09,5.44c.93,7.18,8.56,12.36,12.47,17.95a57.6,57.6,0,0,1,7.52,14.35,22.19,22.19,0,0,1,1.49-4.78C59.74,239.13,59.91,238.37,60.11,237.65Z"/>
          <path class="cls-8" d="M127.69,212.39c-2.53,1.21-4.89,2.49-7.7,3-2.66.45-5.89-.3-8.57-.51a41.21,41.21,0,0,1-15.63-4c5.19,8.53,18.83,8.23,27.28,8.65,4.35.21,6.32,5.05,7.58,9.59.17-5.83.78-11.65,1.23-17.48,0-.34,0-.68.06-1a9.47,9.47,0,0,1-3.46,1.9A.86.86,0,0,1,127.69,212.39Z"/>
          <path class="cls-8" d="M122.67,245.26c-4.85,1.09-10.1-1.2-13.94-4.39,2.48,5.06,6.74,9.35,13.11,8.58,2.64-.31,4.2-.4,5.75,1.86,1.13,1.66,1.07,3.9.48,6.17a18.52,18.52,0,0,0,2.85-5.79c1.37-4.66.4-9.33-.07-14C129.09,241.2,126.41,244.42,122.67,245.26Z"/>
          <path class="cls-8" d="M119.81,197.7c-5.79.19-14.39-1.31-19.59-4.15,3,3.36,5.74,6.62,10.67,7.63,4.59.94,8-.1,12.46-.65,5.91-.73,6.48,4.8,6.06,9.39a9.65,9.65,0,0,0,2.71-2.36c.27-6.18.08-12.33-.19-18.48C128,193,126,197.49,119.81,197.7Z"/>
          <path class="cls-9" d="M132,108.64l1.49-.33a24.47,24.47,0,0,0-2.33-6.54,14.29,14.29,0,0,0-6.07-6.1,18.48,18.48,0,0,0-8.57-1.83,39.5,39.5,0,0,0-7.14.73c-13.13,2.45-26.47,8.94-37.9,15.21a46.58,46.58,0,0,0-16.86,14.94l1.27.86.08-1.53h-.53a12.44,12.44,0,0,0-7,2.41,33.42,33.42,0,0,0-8.19,8.81A72.41,72.41,0,0,0,35,144.67a22.22,22.22,0,0,0-2.08,9.15l1.52.05-.49-1.45a11.47,11.47,0,0,0-3.42,1.93A19.65,19.65,0,0,0,25.94,160a43.21,43.21,0,0,0-4.14,11,46.46,46.46,0,0,0-1.36,10.24v.09a21.33,21.33,0,0,0,2.11,8.9l1.39-.64-1-1.14a21,21,0,0,0-5.79,9,33.74,33.74,0,0,0-1.76,11,35.06,35.06,0,0,0,2.53,13.39h0a29.64,29.64,0,0,0,4.93,7.71l1.16-1-1.53-.09c0,.8-.08,1.64-.08,2.52a18.93,18.93,0,0,0,.56,4.81,18.1,18.1,0,0,0,4.68,7.95,46.72,46.72,0,0,0,12,8.44l.71-1.35-1.11,1c.62.65,1.4,1.58,2.42,2.59A20.74,20.74,0,0,0,48.3,259a31,31,0,0,0,12.17,2.14c.87,0,1.78,0,2.73-.08l-.08-1.52-1.37.66a6.42,6.42,0,0,0,2.16,2.34,17.37,17.37,0,0,0,5.36,2.36,26.67,26.67,0,0,0,7.06.94,23.93,23.93,0,0,0,7.33-1.1l-.47-1.46-.63,1.39a44.87,44.87,0,0,0,18.65,3.84,57.4,57.4,0,0,0,13.48-1.65c1.87-.46,3.5-1,4.85-1.44a25.29,25.29,0,0,0,3.15-1.34,19.46,19.46,0,0,0,6.1-5,19.91,19.91,0,0,0,4.36-12.73c0-4.06-.87-7.93-1-11.62,0-.9-.05-1.8-.05-2.7,0-6.72.74-13.47,1.28-20.31.27-3.51.38-7,.38-10.48,0-10.66-1-21.19-1-31.7q0-1.53,0-3.06c.22-11.77,1.62-23.49,1.62-35.43,0-2.89-.08-5.8-.29-8.71-.11-1.7-.25-3.39-.39-5.08l-1.52.12,1.53,0-.24-8.76a1.45,1.45,0,0,0,0-.29l-1.49.33-1.53,0,.24,8.76v.09q.21,2.52.39,5c.19,2.83.27,5.66.27,8.5,0,11.7-1.38,23.4-1.62,35.37q0,1.58,0,3.12c0,10.7,1,21.22,1,31.7,0,3.42-.1,6.83-.37,10.24-.53,6.78-1.28,13.61-1.28,20.55,0,.93,0,1.86,0,2.8.14,4.07,1,7.91,1,11.52a16.92,16.92,0,0,1-3.68,10.81,16.3,16.3,0,0,1-5.15,4.2,22.18,22.18,0,0,1-2.75,1.16,53.49,53.49,0,0,1-17.3,2.91,42,42,0,0,1-17.39-3.56,1.55,1.55,0,0,0-1.1-.06,20.85,20.85,0,0,1-6.39,1,23.15,23.15,0,0,1-8-1.4A12.45,12.45,0,0,1,65.66,260a3.61,3.61,0,0,1-1.17-1.17A1.53,1.53,0,0,0,63,258c-.9.05-1.75.07-2.57.07a32.16,32.16,0,0,1-8.06-.92,18.32,18.32,0,0,1-7.11-3.46,35.67,35.67,0,0,1-3.85-3.86,1.68,1.68,0,0,0-.4-.3c-7.16-3.76-11-7.17-13.13-10.18a13.24,13.24,0,0,1-2-4.28,15.56,15.56,0,0,1-.47-4c0-.78,0-1.56.08-2.35a1.48,1.48,0,0,0-.36-1.08,26.4,26.4,0,0,1-4.44-6.92h0a32,32,0,0,1-2.3-12.2,30.65,30.65,0,0,1,1.59-10A18.14,18.14,0,0,1,25,190.77a1.52,1.52,0,0,0,.38-1.78,18.16,18.16,0,0,1-1.83-7.63v-.09a40.11,40.11,0,0,1,.73-7,44.58,44.58,0,0,1,3.89-11.89,20.09,20.09,0,0,1,3.12-4.55,9.17,9.17,0,0,1,3.65-2.51,1.53,1.53,0,0,0,1-1.4A19.21,19.21,0,0,1,37.71,146a63,63,0,0,1,7.39-12.09A25.29,25.29,0,0,1,50.21,129a9.35,9.35,0,0,1,5.26-1.87h.36a1.53,1.53,0,0,0,1.35-.67,43.39,43.39,0,0,1,15.8-14c11.32-6.22,24.44-12.56,37-14.89a37,37,0,0,1,6.58-.68,17.93,17.93,0,0,1,5.08.66,10.83,10.83,0,0,1,5.51,3.62,18.39,18.39,0,0,1,3.4,7.8l1.49-.33-1.53,0Z"/>
          <path class="cls-9" d="M32.06,201.15a10.77,10.77,0,0,1-2.16-2.34,23.37,23.37,0,0,1-2.21-4.45,52.53,52.53,0,0,0-2.4-5.45,1.53,1.53,0,1,0-2.7,1.43c1.22,2.3,2,4.61,3,6.87a19.89,19.89,0,0,0,1.8,3.32,13.89,13.89,0,0,0,2.77,3,1.53,1.53,0,1,0,1.91-2.39Z"/>
          <path class="cls-9" d="M28.61,209.61a23.21,23.21,0,0,1,2.86-5.12,19.88,19.88,0,0,1,4.26-3.88A1.53,1.53,0,0,0,34,198.13a22.29,22.29,0,0,0-4.88,4.48,25.84,25.84,0,0,0-3.25,5.77,1.52,1.52,0,1,0,2.79,1.23Z"/>
          <path class="cls-9" d="M42.72,204.18a13.94,13.94,0,0,1-4.3-2.75,14.54,14.54,0,0,1-3.72-6.05,24.2,24.2,0,0,1-1.11-7.63A42,42,0,0,1,35.7,175.1a34,34,0,0,1,4.92-9.83,1.53,1.53,0,0,0-2.47-1.8,37.05,37.05,0,0,0-5.36,10.7,45.08,45.08,0,0,0-2.26,13.58A25.06,25.06,0,0,0,32.89,199a16.43,16.43,0,0,0,8.67,8,1.52,1.52,0,1,0,1.16-2.82Z"/>
          <path class="cls-9" d="M41.6,192.38a73.28,73.28,0,0,0-1,10.85,35.17,35.17,0,0,0,1,8.77,27,27,0,0,0,3.76,8.43,32.46,32.46,0,0,0,9.87,9.42,25.56,25.56,0,0,0,13.18,4,20.14,20.14,0,0,0,3.18-.25,63.84,63.84,0,0,0,7-1.79,26.09,26.09,0,0,1,7-1.17H86a1.53,1.53,0,1,0,.08-3h-.44a28.85,28.85,0,0,0-7.78,1.29,63.15,63.15,0,0,1-6.71,1.71,17.54,17.54,0,0,1-2.7.21,22.54,22.54,0,0,1-11.58-3.51A29.25,29.25,0,0,1,48,218.72a23.62,23.62,0,0,1-3.34-7.48,31.76,31.76,0,0,1-.93-8,70.46,70.46,0,0,1,.93-10.39,1.53,1.53,0,1,0-3-.46Z"/>
          <path class="cls-9" d="M130.1,182.24a22.32,22.32,0,0,1-1.16,7.89,8.67,8.67,0,0,1-1.82,2.88,8.55,8.55,0,0,1-3.17,2,20.37,20.37,0,0,1-7,1.16,32.48,32.48,0,0,1-16.72-4.93,15.26,15.26,0,0,1-3.64-3.17,13.53,13.53,0,0,1-2.66-5.62,41.56,41.56,0,0,1-.86-7.26,15.16,15.16,0,0,0-1-4.85,19.78,19.78,0,0,0-3.48-5.48c-1.36-1.61-2.82-3.13-4.18-4.89a9.1,9.1,0,0,1-1.46-2.61,7.55,7.55,0,0,1-.44-2.48,9.69,9.69,0,0,1,1-4,25.54,25.54,0,0,1,4.27-6.14c1.76-2,3.71-3.84,5.37-5.54A1.53,1.53,0,0,0,90.86,137a91.59,91.59,0,0,0-7.28,7.82,23.68,23.68,0,0,0-3,4.73,12.81,12.81,0,0,0-1.25,5.31,10.34,10.34,0,0,0,.61,3.51,12.39,12.39,0,0,0,1.92,3.45c2,2.56,4,4.49,5.46,6.49a14.33,14.33,0,0,1,1.78,3.13,12.62,12.62,0,0,1,.83,3.91,34.25,34.25,0,0,0,1.67,10.19A15.45,15.45,0,0,0,94.17,190a18.19,18.19,0,0,0,4.35,3.81,35.5,35.5,0,0,0,18.38,5.42,23.37,23.37,0,0,0,8.11-1.35,11.51,11.51,0,0,0,4.29-2.73,12.76,12.76,0,0,0,3.16-6.07,30.64,30.64,0,0,0,.7-6.81,1.53,1.53,0,0,0-3.06,0Z"/>
          <path class="cls-9" d="M67.4,167.86a17.81,17.81,0,0,1,4.94-4.53,12.22,12.22,0,0,1,6.23-2,6.71,6.71,0,0,1,3.78,1.1A1.53,1.53,0,1,0,84,159.85a9.84,9.84,0,0,0-5.46-1.6,15.31,15.31,0,0,0-7.84,2.48,21,21,0,0,0-5.82,5.35,1.53,1.53,0,0,0,2.49,1.78Z"/>
          <path class="cls-9" d="M92.58,183.62a31.45,31.45,0,0,0-17,5.07,19.69,19.69,0,0,0-6,6.32,17.43,17.43,0,0,0-2.34,8.92,21,21,0,0,0,.23,3.12,23.44,23.44,0,0,0,3.32,8.87,24.58,24.58,0,0,0,6.41,7,15.81,15.81,0,0,0,5.13,2.46,20,20,0,0,0,5.31.66,39.52,39.52,0,0,0,5.18-.39,45.4,45.4,0,0,1,5.78-.41,32.09,32.09,0,0,1,10.13,1.63,1.53,1.53,0,0,0,.94-2.91,35.05,35.05,0,0,0-11.07-1.77,47.36,47.36,0,0,0-6.18.43,36.76,36.76,0,0,1-4.78.37,16.57,16.57,0,0,1-4.5-.56,12.9,12.9,0,0,1-4.16-2,21.49,21.49,0,0,1-5.59-6.09,20.57,20.57,0,0,1-2.9-7.71,19.36,19.36,0,0,1-.2-2.68,14.39,14.39,0,0,1,1.93-7.38,18.43,18.43,0,0,1,8.52-7.27,30.25,30.25,0,0,1,11.93-2.61,1.53,1.53,0,1,0,0-3Z"/>
          <path class="cls-9" d="M60.8,183.49a15.83,15.83,0,0,0,1.62,3.44,19.3,19.3,0,0,0,4.24,4.86,12.54,12.54,0,0,0,2.77,1.69,8.16,8.16,0,0,0,3.17.68c.23,0,.45,0,.68,0a1.53,1.53,0,0,0-.3-3H72.6a5.49,5.49,0,0,1-2.66-.77A13.43,13.43,0,0,1,66,186.8a14.62,14.62,0,0,1-2.32-4.22,1.53,1.53,0,0,0-2.92.91Z"/>
          <path class="cls-9" d="M55.78,211.32a20.13,20.13,0,0,0,4.74,3.75,12.71,12.71,0,0,0,6.19,1.9,7.09,7.09,0,0,0,3-.62,6.86,6.86,0,0,0,2.56-2.06,1.53,1.53,0,0,0-2.41-1.88,3.74,3.74,0,0,1-1.42,1.16,3.93,3.93,0,0,1-1.71.35,9.94,9.94,0,0,1-4.68-1.5,17.61,17.61,0,0,1-4-3.16,1.53,1.53,0,1,0-2.25,2.07Z"/>
          <path class="cls-9" d="M130.67,200.94c0,.34,0,.66,0,1a17,17,0,0,1-.65,4.93,9.38,9.38,0,0,1-3.36,4.95,14.53,14.53,0,0,1-6.92,2.47,27.83,27.83,0,0,1-3.76.25,35.76,35.76,0,0,1-20.09-6.62c-2.76-1.92-5.35-4.16-8-6.41a1.53,1.53,0,0,0-2,2.33c2.64,2.24,5.3,4.55,8.24,6.59A38.72,38.72,0,0,0,116,217.58a34,34,0,0,0,4.15-.26,20.36,20.36,0,0,0,6-1.65,12.36,12.36,0,0,0,5.81-5.42,17.59,17.59,0,0,0,1.8-8.32c0-.37,0-.73,0-1.1a1.53,1.53,0,0,0-3.05.11Z"/>
          <path class="cls-9" d="M129.13,235a15.36,15.36,0,0,1-.72,4.1,7.56,7.56,0,0,1-2.63,3.81,7.41,7.41,0,0,1-4.47,1.31,15.39,15.39,0,0,1-4.42-.73,16.58,16.58,0,0,1-5.09-2.61,38.81,38.81,0,0,1-6.26-6.29,69.4,69.4,0,0,0-6.43-7.06,17.34,17.34,0,0,0-4.35-2.85A31.15,31.15,0,0,0,90,222.94a1.53,1.53,0,0,0-.83,2.94,28.35,28.35,0,0,1,4.29,1.52,14.58,14.58,0,0,1,3.6,2.35c2.9,2.61,5.37,6,8.21,9.15a32.64,32.64,0,0,0,4.7,4.38,19.46,19.46,0,0,0,6,3.08,18.46,18.46,0,0,0,5.31.86,11.08,11.08,0,0,0,4.41-.84,9.59,9.59,0,0,0,4.67-4.27,16.22,16.22,0,0,0,1.79-7,1.53,1.53,0,0,0-3.05-.15Z"/>
          <path class="cls-9" d="M49.63,178.79a22.41,22.41,0,0,1-.58-5.1,29.73,29.73,0,0,1,4.54-15.19,48.18,48.18,0,0,1,2.85-4.23,18.92,18.92,0,0,1,3.38-3.47,12.92,12.92,0,0,1,2.58-1.39,10.37,10.37,0,0,0,3.14-2.07,1.53,1.53,0,1,0-2.18-2.14,7.45,7.45,0,0,1-2.26,1.44A15.61,15.61,0,0,0,58,148.37a21.18,21.18,0,0,0-3.94,4A51.94,51.94,0,0,0,51,156.91a32.65,32.65,0,0,0-5,16.78,25.36,25.36,0,0,0,.66,5.8,1.53,1.53,0,1,0,3-.7Z"/>
          <path class="cls-9" d="M62.06,133.23a22,22,0,0,0-.37,4.24,27.72,27.72,0,0,0,1.64,9.71,11.13,11.13,0,0,0,2.57,4,7,7,0,0,0,2,1.34,6.36,6.36,0,0,0,2.45.53,1.53,1.53,0,1,0,.07-3.05,3.35,3.35,0,0,1-1.3-.28,4.59,4.59,0,0,1-1.86-1.65,13.49,13.49,0,0,1-1.91-4.88,28.28,28.28,0,0,1-.59-5.75,18.29,18.29,0,0,1,.3-3.6,1.53,1.53,0,1,0-3-.64Z"/>
          <path class="cls-9" d="M29.55,178.37a25.1,25.1,0,0,1,2.28-9.7,33,33,0,0,1,5.67-8.45,29.45,29.45,0,0,1,5.18-4.66,13.1,13.1,0,0,1,2.92-1.51,8.6,8.6,0,0,1,3-.56,7.5,7.5,0,0,1,2,.26h0a17.89,17.89,0,0,1,1.92.59,5.11,5.11,0,0,1,1.37.77,1.53,1.53,0,0,0,1.92-2.38,8.38,8.38,0,0,0-2.16-1.23,21.16,21.16,0,0,0-2.27-.7h0a10.53,10.53,0,0,0-2.74-.36,11.8,11.8,0,0,0-4,.73,18.74,18.74,0,0,0-5.17,3,35,35,0,0,0-4.14,4,35.82,35.82,0,0,0-6.19,9.23,28,28,0,0,0-2.55,10.88,1.53,1.53,0,1,0,3.05.09Z"/>
          <path class="cls-9" d="M53.66,140.91a34.76,34.76,0,0,1,.7-6.75,24.85,24.85,0,0,1,2.87-7.79,1.53,1.53,0,0,0-2.62-1.58,28.24,28.24,0,0,0-3.25,8.76,38.21,38.21,0,0,0-.76,7.36,1.53,1.53,0,1,0,3.06,0Z"/>
          <path class="cls-9" d="M68.75,125.15a56.84,56.84,0,0,1,5.55-4.25,16.93,16.93,0,0,1,3-1.55,7.72,7.72,0,0,1,2.73-.57,4.59,4.59,0,0,1,2.08.47,6.31,6.31,0,0,1,2,1.72,8.77,8.77,0,0,1,1.42,2.4,6,6,0,0,1,.38,2.14,9,9,0,0,1-.43,2.58c-.4,1.36-1.06,2.82-1.7,4.41a20.29,20.29,0,0,0-1.48,5.23c0,.33,0,.64,0,1a5.42,5.42,0,0,0,.38,2.11,4.24,4.24,0,0,0,.85,1.3,4.9,4.9,0,0,0,1.88,1.21,9.24,9.24,0,0,0,2.22.53,1.53,1.53,0,1,0,.4-3,7.3,7.3,0,0,1-1.4-.3,2.66,2.66,0,0,1-.63-.3,1.17,1.17,0,0,1-.46-.51,2.23,2.23,0,0,1-.19-1,4.52,4.52,0,0,1,0-.6,22.25,22.25,0,0,1,1.9-6c.42-1,.84-2.06,1.17-3.15a11.93,11.93,0,0,0,.56-3.46,9.06,9.06,0,0,0-.58-3.21,11.45,11.45,0,0,0-1.9-3.25,9.25,9.25,0,0,0-3.06-2.54,7.72,7.72,0,0,0-3.44-.79,10.64,10.64,0,0,0-3.83.78A23.26,23.26,0,0,0,71,119.44c-1.58,1.15-3,2.37-4.21,3.35a1.53,1.53,0,0,0,1.94,2.36Z"/>
          <path class="cls-9" d="M91.07,108.71a8.18,8.18,0,0,0-2.87,1.52,11.71,11.71,0,0,0-3,3.84A10.86,10.86,0,0,0,84,118.74a7.07,7.07,0,0,0,.47,2.6,1.52,1.52,0,1,0,2.84-1.11,4.27,4.27,0,0,1-.25-1.49,8.52,8.52,0,0,1,3.06-6.13,5.28,5.28,0,0,1,1.78-1,1.53,1.53,0,1,0-.83-2.94Z"/>
          <path class="cls-9" d="M108.92,113.8a5,5,0,0,1,2,2,5.78,5.78,0,0,1,.32,4.82,1.53,1.53,0,0,0,2.84,1.12,8.81,8.81,0,0,0-.48-7.42,8,8,0,0,0-3.25-3.21,1.53,1.53,0,1,0-1.44,2.69Z"/>
          <path class="cls-9" d="M102.71,126.69a33.61,33.61,0,0,1,4.91-2.89,11,11,0,0,1,4.53-1.11,7.92,7.92,0,0,1,2.62.44,11,11,0,0,1,2.84,1.51,38.12,38.12,0,0,1,6.66,6.15,28.64,28.64,0,0,1,4.78,7.54h0a25.52,25.52,0,0,1,1.78,8.29,1.53,1.53,0,0,0,3-.16,28.48,28.48,0,0,0-2-9.28h0a31.43,31.43,0,0,0-5.28-8.36,41.46,41.46,0,0,0-7.2-6.66,14.14,14.14,0,0,0-3.63-1.91,11.22,11.22,0,0,0-3.61-.61,14.2,14.2,0,0,0-5.79,1.39,36,36,0,0,0-5.37,3.15,1.53,1.53,0,1,0,1.72,2.52Z"/>
          <path class="cls-9" d="M103.89,137.31c0,.31,0,.64,0,1v1.77a29.25,29.25,0,0,0,.2,3.92,11.14,11.14,0,0,0,1.17,3.89,7.19,7.19,0,0,0,2,2.28,13.86,13.86,0,0,0,3.63,1.89c1.21.47,2.38.85,3.29,1.29,2.38,1.14,5.27,2.31,7.92,3.7a29.94,29.94,0,0,1,3.66,2.25,12.51,12.51,0,0,1,2.65,2.57h0a6.72,6.72,0,0,1,1.11,2.7,17.56,17.56,0,0,1,.28,3.37c0,.35,0,.7,0,1a1.53,1.53,0,1,0,3,.08c0-.36,0-.74,0-1.12a20.33,20.33,0,0,0-.34-4,10,10,0,0,0-1.64-3.9h0a15.52,15.52,0,0,0-3.31-3.21,37.13,37.13,0,0,0-6.18-3.56c-2.12-1-4.21-1.89-5.89-2.7s-3.22-1.2-4.59-1.82a9.14,9.14,0,0,1-1.79-1,4.25,4.25,0,0,1-1.15-1.32,8.27,8.27,0,0,1-.82-2.84,26.42,26.42,0,0,1-.18-3.51c0-.59,0-1.18,0-1.77,0-.35,0-.7,0-1a1.53,1.53,0,0,0-3.06.07Z"/>
          <path class="cls-9" d="M23,229.72A9.91,9.91,0,0,0,27.17,232a18.61,18.61,0,0,0,5,.65,21,21,0,0,0,6.2-.91,1.53,1.53,0,1,0-.94-2.91,17.89,17.89,0,0,1-5.26.77A15.58,15.58,0,0,1,28,229a7.05,7.05,0,0,1-2.95-1.52,1.52,1.52,0,1,0-2.1,2.21Z"/>
          <path class="cls-9" d="M41.57,250c-1.26-1.7-2.74-3.52-3.88-5.41a15,15,0,0,1-1.39-2.86,8.44,8.44,0,0,1-.52-2.86,6.51,6.51,0,0,1,.08-1.07,2.55,2.55,0,0,1,.64-1.45,1.29,1.29,0,0,1,1-.4,2.46,2.46,0,0,1,1.07.28h0a5,5,0,0,1,1.55,1.26,14.42,14.42,0,0,1,2,3.23c.58,1.23,1.1,2.53,1.68,3.68A19.9,19.9,0,0,0,47,249.18a15.75,15.75,0,0,0,4.76,3.44A1.53,1.53,0,0,0,53,249.86a12.62,12.62,0,0,1-3.85-2.77A16.77,16.77,0,0,1,46.47,243c-.66-1.32-1.37-3.18-2.33-5a14.84,14.84,0,0,0-1.73-2.57,8,8,0,0,0-2.51-2h0a5.47,5.47,0,0,0-2.42-.6,4.39,4.39,0,0,0-3.14,1.3,5.52,5.52,0,0,0-1.5,3.15,10.05,10.05,0,0,0-.12,1.53,11.79,11.79,0,0,0,.69,3.87,21.66,21.66,0,0,0,2.67,5c1,1.51,2.14,2.88,3,4.08A1.53,1.53,0,1,0,41.57,250Z"/>
          <path class="cls-9" d="M65.29,259.79A19,19,0,0,1,61.83,253a28.57,28.57,0,0,1-1.1-8,32.25,32.25,0,0,1,.92-7.65A16.66,16.66,0,0,1,64,232.29a1.53,1.53,0,0,0-2.56-1.67,19.62,19.62,0,0,0-2.73,6,35,35,0,0,0-1,8.4,31.41,31.41,0,0,0,1.23,8.9,22.27,22.27,0,0,0,4,7.83,1.53,1.53,0,1,0,2.36-1.94Z"/>
          <path class="cls-9" d="M84,262a9.84,9.84,0,0,1-3.49-3.74,10.61,10.61,0,0,1-1.24-5.06,11.25,11.25,0,0,1,.13-1.72,7,7,0,0,1,.94-2.54A38.11,38.11,0,0,1,83.23,245a14.89,14.89,0,0,0,2.71-4.92,14.29,14.29,0,0,0,.52-3.9,25.11,25.11,0,0,0-.4-4.11,1.53,1.53,0,0,0-3,.51,20.71,20.71,0,0,1,.36,3.6,11.3,11.3,0,0,1-.4,3.07,9.33,9.33,0,0,1-1.27,2.6c-.85,1.29-2,2.58-3,4a16.27,16.27,0,0,0-1.43,2.36,9.65,9.65,0,0,0-.88,2.8,15.93,15.93,0,0,0-.16,2.16,13.74,13.74,0,0,0,1.6,6.5,13,13,0,0,0,4.56,4.89A1.53,1.53,0,1,0,84,262Z"/>
          <path class="cls-9" d="M101.07,232.58a13.84,13.84,0,0,0-2.28,4.15,13.59,13.59,0,0,0-.7,4.4,20.38,20.38,0,0,0,1.16,6.45,15.85,15.85,0,0,0,4.12,6.89,9.73,9.73,0,0,0,3.2,2,10.92,10.92,0,0,0,3.89.67,16.3,16.3,0,0,0,2.88-.28,13.27,13.27,0,0,1,2.44-.26,9.33,9.33,0,0,1,2.29.29,13.25,13.25,0,0,1,2.46.94,1.53,1.53,0,0,0,1.33-2.76,16.43,16.43,0,0,0-3-1.14,12,12,0,0,0-3-.38,16.86,16.86,0,0,0-3,.3,12.28,12.28,0,0,1-2.31.23,8,8,0,0,1-2.83-.47,7.15,7.15,0,0,1-3.16-2.38,15,15,0,0,1-2.32-4.57,17.35,17.35,0,0,1-1-5.48,10.6,10.6,0,0,1,.54-3.42,11.18,11.18,0,0,1,1.79-3.25,1.52,1.52,0,1,0-2.4-1.88Z"/>
          <path class="cls-9" d="M96,258a6.9,6.9,0,0,1-.31-2.12,9.47,9.47,0,0,1,1.45-5,5.77,5.77,0,0,1,1.61-1.65,3.86,3.86,0,0,1,2-.64,1.53,1.53,0,1,0-.12-3.06,7.07,7.07,0,0,0-3.55,1.13,9.42,9.42,0,0,0-3.35,4.1,12.85,12.85,0,0,0-1.11,5.14,10.22,10.22,0,0,0,.47,3.08,1.53,1.53,0,1,0,2.9-1Z"/>
          <path class="cls-11" d="M102.59,172.06c2.16,1.77,4.21,3.67,6.36,5.45,0-.1-.07-.19-.1-.29,0,.15.77,1,.73,1.13.14.11.3.05.43.23a8.92,8.92,0,0,1,.54.82c.38.66.72,1.34,1,2,1.08,2.25,3,6.21,6.12,4.15A8.84,8.84,0,0,0,119.9,183a13.94,13.94,0,0,0,2-4.58,21.81,21.81,0,0,0,.18-4,10.39,10.39,0,0,0,0-1.14,24.91,24.91,0,0,0-2.34-6.19,20.73,20.73,0,0,0-6-6.39,35.42,35.42,0,0,0-7.56-3.85c-1.33-.52-2.74-.94-4-1.59-.51-.24-1-.56-1.48-.81s-.66-.75-.95-1.09c-1.93-2.15-5.17-.69-5.69,1.91a13.26,13.26,0,0,0,1.84,9.38A28.44,28.44,0,0,0,102.59,172.06Z"/>
          <path class="cls-11" d="M96.07,199.69a10.1,10.1,0,0,0-1.92-1.39c-.72-.56-1.06-1.23-2.05-1.36a2.54,2.54,0,0,0-2.55,3.69c.72,1.33,3,3.17,4.57,3.17A2.54,2.54,0,0,0,96.07,199.69Z"/>
          <path class="cls-11" d="M115.58,205.16c-3.86-.2-8.08.11-11.79-1.07a2.67,2.67,0,0,0-3.34,3.19c.43,1.67,2.38,2.73,3.82,3.4,3.84,1.8,9.4,2.37,13.26.32,1.67-.81,3.51-2.32,2.27-4.36C118.93,205.2,117.05,205.24,115.58,205.16Z"/>
          <path class="cls-11" d="M123.19,236.62c-1.06-.81-2.54-.47-3.77-.63a5.24,5.24,0,0,1-2.86-1.52,2.57,2.57,0,0,0-3.78.31,2.71,2.71,0,0,0,0,3.09,7.9,7.9,0,0,0,7.87,3.73,4.34,4.34,0,0,0,3.18-1.55A2.6,2.6,0,0,0,123.19,236.62Z"/>
          <path class="cls-11" d="M79.39,211.76a2.55,2.55,0,0,0-2.73,1.18,3.35,3.35,0,0,0,.24,3.21,5.73,5.73,0,0,0,5,3.49,2.88,2.88,0,0,0,2.91-1.75,2.51,2.51,0,0,0-.85-2.83,2.41,2.41,0,0,0-1.44-.49c-.59,0-.69,0-1-.53C80.93,213,80.69,212.05,79.39,211.76Z"/>
          <path class="cls-11" d="M76.53,235.59c-2,.37-2.12,2.63-2.9,4.12-.9,1.7-.28,4.06,2,4.06s3-3,3.68-4.76A2.54,2.54,0,0,0,76.53,235.59Z"/>
          <path class="cls-11" d="M74.14,252.67c-.28-1,.2-2-.13-3A2.55,2.55,0,0,0,71.59,248c-4.44,0-3,9.4,1,9.4A2.51,2.51,0,0,0,75,254C74.82,253.49,74.28,253.16,74.14,252.67Z"/>
          <path class="cls-11" d="M50.23,234.34a2.69,2.69,0,0,0-3.78-.59,3.08,3.08,0,0,0-.91,3.34,15.53,15.53,0,0,0,5.18,8.54c1.3,1,3.17,1.11,4-.51a3.35,3.35,0,0,0-.19-2.94A36.83,36.83,0,0,0,50.23,234.34Z"/>
          <path class="cls-11" d="M33.86,220.06c-1-.54-2.12-.58-2.45-1.92a2.52,2.52,0,0,0-4.86-.1,4.21,4.21,0,0,0,.73,3.17c1,1.79,3.19,3.58,5.38,3.58A2.53,2.53,0,0,0,33.86,220.06Z"/>
          <path class="cls-11" d="M56.09,198.21a4.13,4.13,0,0,1-1-1.31c-.2-.47-.09-1-.35-1.49a2.55,2.55,0,0,0-2.92-1.25c-4.64,1.32.32,9.31,3.71,9.31h0A2.55,2.55,0,0,0,58,201.12C58.11,199.64,57,199.08,56.09,198.21Z"/>
          <path class="cls-11" d="M75.15,178.61c.85.36,1.48,1.13,2.37,1.46a2.48,2.48,0,0,0,3.32-2.33,5.4,5.4,0,0,0-2.21-3.56A11.47,11.47,0,0,0,74,172c-.31-.07-4.4-.61-4.4-.24a2.56,2.56,0,0,0-2.23,3.14,2.84,2.84,0,0,0,2.67,2A14.17,14.17,0,0,1,75.15,178.61Z"/>
          <path class="cls-11" d="M78.73,149.45c.82-.85.64-2,.63-3.11,0-1.45-.44-3-.59-4.41-.16-1.6-.3-3.2-.61-4.78a2.64,2.64,0,0,0-3.57-1.91c-1.27.53-1.63,1.85-1.87,3.08-.65,3.42-.32,7.89,2.16,10.58C75.9,150,77.49,150.72,78.73,149.45Z"/>
          <path class="cls-11" d="M77.5,132.26a2.53,2.53,0,0,0,2.2-1.3c.22-.4.22-.87.45-1.27a6,6,0,0,0,.55-.91,2.55,2.55,0,0,0-2.25-3.4C75,125.22,73.33,132.26,77.5,132.26Z"/>
          <path class="cls-11" d="M117.61,135.13a2.54,2.54,0,0,0-2.33,2.44c0,1.4,1,1.9,1.87,2.7a10.57,10.57,0,0,1,2.13,3.07c.66,1.22,1.31,2.53,2.89,2.53a2.55,2.55,0,0,0,2.52-2.51c0-1.18-.93-2.37-1.5-3.36C122.15,138.16,120.06,134.93,117.61,135.13Z"/>
          <path class="cls-11" d="M109.94,134.16a2.52,2.52,0,0,0,4.26-2.63c-.7-1.49-2-3.64-3.87-3.45a2.54,2.54,0,0,0-2.06,3.51A13.48,13.48,0,0,0,109.94,134.16Z"/>
          <path class="cls-11" d="M127,111.82a14.46,14.46,0,0,0-.72-2.88c-1.28-3.49-4.13-7.07-7.93-7.85a2.6,2.6,0,0,0-3,3.24,3.38,3.38,0,0,0,1.4,1.72,8.3,8.3,0,0,1,1.29,1.53,34.41,34.41,0,0,1,3.06,5.51c.47,1,1,2.48,2,3.16a2.57,2.57,0,0,0,3.95-1.67C127.2,114.58,127,112,127,111.82Z"/>
          <path class="cls-10" d="M134,108.64c2.66-12.16,10.46-14.77,22.34-12.57,12.84,2.39,26.07,8.81,37.44,15.05a45,45,0,0,1,16.33,14.46c8.67-.47,16.35,12.91,19.59,19.74a20.82,20.82,0,0,1,1.93,8.55c8.44,2.89,12.46,19.42,12.43,27.49a19.6,19.6,0,0,1-2,8.26c8.06,7.09,8.61,22.29,4.63,31.68a28.33,28.33,0,0,1-4.68,7.32c.35,6.24.35,13.5-16.34,22.28-2.85,3-7.19,9.46-22.78,8.64-1.58,3.23-11.56,6.5-20.07,3.74-16.52,7.5-34.68,1.63-38.79-.55a17.78,17.78,0,0,1-8.94-11c-1.65-5.6.09-11.22.27-16.89.24-7.76-.63-15.45-1.24-23.18-1.19-15.11.86-30,.57-45.15-.29-14.74-2.36-29.23-1.34-44,.11-1.69.25-3.37.39-5.06Z"/>
          <path class="cls-8" d="M145.38,160.25A33.9,33.9,0,0,0,134.71,170c0-1.18,0-2.36,0-3.55-.15-7.39-.74-14.71-1.16-22.05a7.1,7.1,0,0,0,2.37,3.2c3.14,2.2,6.73,2.84,10.22,1,3.73-1.93,7.54-2.82,11.35-4.44a9.56,9.56,0,0,0,4-2.62C163.58,152.89,153.46,155.19,145.38,160.25Z"/>
          <path class="cls-8" d="M153.29,114.74l.12.09c4,2,7.16,4.36,8.94,8.41-3.72-2.21-9.85-3-13.31-1.09-6.26,3.43-10.93,9.86-15.28,15.74a.91.91,0,0,0-.56-.36,143.09,143.09,0,0,1,.15-15.07c.11-1.69.25-3.37.39-5.06l0-.78a19,19,0,0,0,1.14,1.81C141.23,127.23,146.73,117.13,153.29,114.74Z"/>
          <path class="cls-8" d="M199.26,239.66a14.2,14.2,0,0,0-6.06-4.35c-3.34-1.38-6.06-3.64-9.12-5.41,3.66.73,7.34,1.5,11,1.89,2,.22,5.18-.09,6.88,1.14a6.3,6.3,0,0,1,1.72,2,30.67,30.67,0,0,0,1.36,4c1.43,6.35,1.72,14-2.25,19.44C203.82,251.76,203.37,245.35,199.26,239.66Z"/>
          <path class="cls-8" d="M167.72,248.78a4,4,0,0,1,2.08,2.85,14.77,14.77,0,0,1,.49,5.21A4.86,4.86,0,0,0,165.5,255c-1.81.22-3.5.84-5.29,1.15a21.68,21.68,0,0,1-7.84-.17,16.31,16.31,0,0,0,11.21-4.82C164.52,250.24,166.17,248.21,167.72,248.78Z"/>
          <path class="cls-8" d="M193.49,215.41c2.07-3.89,4.18-8.53,4.15-13.08,2.64,4.64,5.69,10.28,11.11,8.63-2.26,4.75-5.92,11.71-12.17,8.93a1,1,0,0,0-1.22.16c-2.82,2.74-5.45,5.63-9.82,5.34-1.22-.08-2.43-.27-3.63-.47A18.2,18.2,0,0,0,193.49,215.41Z"/>
          <path class="cls-8" d="M188.2,160.15a17.36,17.36,0,0,1,5.54,2.22,11.65,11.65,0,0,0-8.48,2.09,10.18,10.18,0,0,0-4.39,6.34c-.71,4.54,1.32,9.35-.62,13.68a1,1,0,0,0,.31,1.27,13.16,13.16,0,0,1-3.16-.43c-3.12-1-3.46-3.11-3.25-6,.37-5.24,1.35-11.55,5.47-15.27C181.78,162.05,185.07,159.51,188.2,160.15Z"/>
          <path class="cls-8" d="M192.55,187.75c3.82-.41,6.45-2,9.44-3.86-1.24,3.1-4.06,8.47-7.2,7.52-2.36-.71-4.35-2.39-6.58-3.49A27.17,27.17,0,0,0,192.55,187.75Z"/>
          <path class="cls-8" d="M242,228.78a24.68,24.68,0,0,1-4.84,1.29,25.81,25.81,0,0,1-6.75.6c5.91-4.18,11.26-9.35,14.24-16.07a44.36,44.36,0,0,0,3.55-13.83,34.92,34.92,0,0,1-1.53,20.53,28.33,28.33,0,0,1-4.68,7.32Z"/>
          <path class="cls-8" d="M200,149.55a10.68,10.68,0,0,0,1.93-1.68c.44-.52,1.55.65,1.84.87a41.15,41.15,0,0,1,8.67,8.51c.37.51.71,1,1,1.55a.58.58,0,0,0,.28.44,25,25,0,0,1,3.53,17.22,28.79,28.79,0,0,0-20.84-24.73C197.7,151,198.9,150.35,200,149.55Z"/>
          <path class="cls-8" d="M213.64,133.81a32,32,0,0,0-2.62-8.22c8.28.47,15.53,13.15,18.66,19.73a19.44,19.44,0,0,1,1.45,4.32C227.9,142.24,221.84,132.3,213.64,133.81Z"/>
          <path class="cls-8" d="M179.52,126.87c-.6-3.76.24-8.57,4.48-9.36,4.05-.75,8,1.69,11.22,4.4C189.7,119.68,181.92,121.46,179.52,126.87Z"/>
          <path class="cls-8" d="M181.52,257.93a16,16,0,0,0,.34-10.5c-1.05-3.92-2-7.27-1.23-10.9.83,4.17,4.22,7.7,6,11.5,3,6.57-.5,11.38-4.9,15.72a40.49,40.49,0,0,1-6.3,2A17,17,0,0,0,181.52,257.93Z"/>
          <path class="cls-8" d="M228.6,157.83c4.43,4.69,8,10.65,8.78,17.12a30,30,0,0,0-8.52-13.13c-4.37-3.72-9.1-4.57-14.63-3.6a36.47,36.47,0,0,0-2.9-3.84C216.4,149.29,224.48,153.47,228.6,157.83Z"/>
          <path class="cls-8" d="M231.67,238.72c-2.19-.55-3.73,2-5.08,3.49-2.87,3.13-5.86,6.06-9.62,7.95a53.64,53.64,0,0,0,6.19-9c1-1.85,2-4.45,3.57-5.89C229.6,232.75,231.56,236.07,231.67,238.72Z"/>
          <path class="cls-8" d="M170.33,236.55c-.23,4.67.53,9.15,1,13.7a9.9,9.9,0,0,0-1.93-2.1c-.47-.37-2.55-.87-2.59-1.29-.2-2.15-.28-4.31-.56-6.45a47.45,47.45,0,0,0-1.19-4.84c-.54-2.2,0-3.47,1.5-5.14a15.77,15.77,0,0,1,3.62-3.49,9,9,0,0,1,2.79-.95C170.49,228.78,170.5,233,170.33,236.55Z"/>
          <path class="cls-8" d="M205.9,237.65a16.08,16.08,0,0,0-1.23-3.21c-.28-1.67-.47-3.58,1.46-4.24.93-.32,1.87-.66,2.77-1.07a21.23,21.23,0,0,0,6.49-4.34c3.72-3.89,7.23-9.4,8.27-14.76s.06-10.58.12-15.9c0,1.2,2.37,2.93,3.27,3.41,1.44.77,3.09.62,4.4,1.64a19.88,19.88,0,0,1,6.76,10.07,8.1,8.1,0,0,0-2.25-2c-1.68-.95-4.24-1.43-6-.32s-1.84,3.56-2.09,5.44c-.93,7.18-8.56,12.36-12.47,17.95a57.27,57.27,0,0,0-7.52,14.35,22.19,22.19,0,0,0-1.49-4.78C206.27,239.13,206.1,238.37,205.9,237.65Z"/>
          <path class="cls-8" d="M138.32,212.39c2.53,1.21,4.88,2.49,7.7,3,2.66.45,5.89-.3,8.57-.51a41.21,41.21,0,0,0,15.63-4c-5.19,8.53-18.83,8.23-27.28,8.65-4.35.21-6.33,5.05-7.58,9.59-.17-5.83-.78-11.65-1.24-17.48,0-.34,0-.68-.06-1a9.6,9.6,0,0,0,3.47,1.9A.86.86,0,0,0,138.32,212.39Z"/>
          <path class="cls-8" d="M143.34,245.26c4.85,1.09,10.1-1.2,13.93-4.39-2.47,5.06-6.73,9.35-13.1,8.58-2.64-.31-4.2-.4-5.75,1.86-1.13,1.66-1.08,3.9-.48,6.17a18.52,18.52,0,0,1-2.85-5.79c-1.37-4.66-.4-9.33.07-14C136.92,241.2,139.6,244.42,143.34,245.26Z"/>
          <path class="cls-8" d="M146.19,197.7c5.8.19,14.4-1.31,19.59-4.15-3,3.36-5.73,6.62-10.66,7.63-4.59.94-8-.1-12.46-.65-5.92-.73-6.48,4.8-6.06,9.39a9.65,9.65,0,0,1-2.71-2.36c-.27-6.18-.08-12.33.18-18.48C138,193,140,197.49,146.19,197.7Z"/>
          <path class="cls-9" d="M134,108.64l1.49.33a21.52,21.52,0,0,1,2-5.74,11.32,11.32,0,0,1,4.79-4.85,15.53,15.53,0,0,1,7.17-1.49,37,37,0,0,1,6.58.68c12.55,2.33,25.67,8.67,37,14.89a43.39,43.39,0,0,1,15.8,14,1.53,1.53,0,0,0,1.35.67h.36A9.38,9.38,0,0,1,215.8,129a30.74,30.74,0,0,1,7.4,8,70.08,70.08,0,0,1,5.1,9,19.21,19.21,0,0,1,1.79,7.93,1.52,1.52,0,0,0,1,1.4,8.22,8.22,0,0,1,2.48,1.42,16.52,16.52,0,0,1,3.81,4.77,40.28,40.28,0,0,1,3.83,10.24,43.71,43.71,0,0,1,1.27,9.53v.1h0a18,18,0,0,1-1.84,7.63,1.52,1.52,0,0,0,.39,1.78,18.14,18.14,0,0,1,4.93,7.72,30.65,30.65,0,0,1,1.58,10,31.85,31.85,0,0,1-2.29,12.2,26.36,26.36,0,0,1-4.43,6.92,1.48,1.48,0,0,0-.36,1.08c0,.79.08,1.56.08,2.34a15.64,15.64,0,0,1-.47,4,14.94,14.94,0,0,1-3.93,6.61A43.27,43.27,0,0,1,225,249.54a1.68,1.68,0,0,0-.4.3c-.72.76-1.45,1.63-2.35,2.52a17.75,17.75,0,0,1-5.69,3.83,28.1,28.1,0,0,1-11,1.89c-.82,0-1.68,0-2.57-.07a1.55,1.55,0,0,0-1.46.86,3.54,3.54,0,0,1-1.16,1.17,14.89,14.89,0,0,1-4.42,1.92,24.06,24.06,0,0,1-6.26.83,20.74,20.74,0,0,1-6.38-1,1.55,1.55,0,0,0-1.1.06,42,42,0,0,1-17.39,3.56A54.6,54.6,0,0,1,152,263.89a47.13,47.13,0,0,1-4.54-1.35,22.18,22.18,0,0,1-2.75-1.16,16.3,16.3,0,0,1-5.15-4.2,17.15,17.15,0,0,1-3-5.92,17.47,17.47,0,0,1-.64-4.89c0-3.61.84-7.45,1-11.52,0-.93,0-1.86,0-2.78,0-6.95-.75-13.78-1.28-20.57-.27-3.41-.37-6.82-.37-10.24,0-10.48,1-21,1-31.7,0-1,0-2.08,0-3.12-.23-12-1.62-23.67-1.61-35.37,0-2.84.08-5.67.27-8.5.12-1.68.25-3.36.39-5v-.08l.25-8.76-1.53,0,1.49.33-1.49-.33-1.53,0-.24,8.76,1.53,0-1.53-.12c-.13,1.69-.27,3.38-.39,5.07-.2,2.92-.28,5.83-.28,8.72,0,11.94,1.39,23.66,1.62,35.43q0,1.53,0,3.06c0,10.51-1,21-1,31.7,0,3.48.11,7,.38,10.48.54,6.85,1.28,13.6,1.28,20.33,0,.89,0,1.79,0,2.68-.1,3.69-1,7.56-1,11.62a19.91,19.91,0,0,0,4.36,12.73,19.46,19.46,0,0,0,6.1,5,25.29,25.29,0,0,0,3.15,1.34,56.66,56.66,0,0,0,18.33,3.09,44.9,44.9,0,0,0,18.65-3.84l-.63-1.39-.47,1.46a23.91,23.91,0,0,0,7.32,1.1,26.25,26.25,0,0,0,9.09-1.59,15.57,15.57,0,0,0,3.34-1.71,6.42,6.42,0,0,0,2.16-2.34l-1.37-.66-.08,1.52c.94.05,1.85.08,2.73.08a35.28,35.28,0,0,0,8.82-1,21.28,21.28,0,0,0,8.26-4,36.33,36.33,0,0,0,4.15-4.13l-1.1-1,.71,1.35c7.42-3.9,11.73-7.57,14.22-11.15a16.41,16.41,0,0,0,2.46-5.25,18.88,18.88,0,0,0,.56-4.81c0-.87,0-1.71-.08-2.51l-1.53.09,1.16,1a29.64,29.64,0,0,0,4.93-7.71,35.15,35.15,0,0,0,2.53-13.4,33.74,33.74,0,0,0-1.76-11,20.93,20.93,0,0,0-5.8-9l-1,1.14,1.39.64a21,21,0,0,0,2.11-8.9h0v-.08a42.72,42.72,0,0,0-.78-7.57A47.41,47.41,0,0,0,240.6,161a23.52,23.52,0,0,0-3.6-5.25,12.27,12.27,0,0,0-4.89-3.3l-.5,1.45,1.53-.05a22.22,22.22,0,0,0-2.08-9.15,65.57,65.57,0,0,0-7.78-12.7,27.77,27.77,0,0,0-5.76-5.52,12.44,12.44,0,0,0-7-2.41H210l.08,1.53,1.27-.86a46.58,46.58,0,0,0-16.86-14.94c-11.43-6.27-24.77-12.76-37.9-15.21a39.5,39.5,0,0,0-7.14-.73,21,21,0,0,0-6,.78,13.94,13.94,0,0,0-7,4.62,21.34,21.34,0,0,0-4,9.07,1.45,1.45,0,0,0,0,.29Z"/>
          <path class="cls-9" d="M235.86,203.54a13.89,13.89,0,0,0,2.77-3,25.64,25.64,0,0,0,2.52-5,52.68,52.68,0,0,1,2.26-5.17,1.53,1.53,0,1,0-2.7-1.43c-1.36,2.58-2.15,5-3.07,7.06a17.39,17.39,0,0,1-1.53,2.84,10.58,10.58,0,0,1-2.17,2.34,1.53,1.53,0,0,0,1.92,2.39Z"/>
          <path class="cls-9" d="M240.19,208.38a25.84,25.84,0,0,0-3.25-5.77,22.52,22.52,0,0,0-4.88-4.48,1.53,1.53,0,0,0-1.78,2.48,19.57,19.57,0,0,1,4.25,3.88,23.2,23.2,0,0,1,2.87,5.12,1.52,1.52,0,1,0,2.79-1.23Z"/>
          <path class="cls-9" d="M224.45,207a16.74,16.74,0,0,0,5.24-3.36,17.43,17.43,0,0,0,4.52-7.29,27.5,27.5,0,0,0,1.27-8.59,45.4,45.4,0,0,0-2.26-13.59,37.05,37.05,0,0,0-5.36-10.7,1.53,1.53,0,0,0-2.47,1.8,34.21,34.21,0,0,1,4.92,9.83,42.29,42.29,0,0,1,2.11,12.66,22.06,22.06,0,0,1-2,9.86,13.41,13.41,0,0,1-7.11,6.56,1.53,1.53,0,1,0,1.17,2.82Z"/>
          <path class="cls-9" d="M221.38,192.84a69.16,69.16,0,0,1,.94,10.39,32.23,32.23,0,0,1-.93,8,24.07,24.07,0,0,1-3.34,7.48,29.36,29.36,0,0,1-8.93,8.52,22.54,22.54,0,0,1-11.58,3.51,17.67,17.67,0,0,1-2.71-.21,63.77,63.77,0,0,1-6.71-1.71,28.78,28.78,0,0,0-7.77-1.29h-.44a1.53,1.53,0,1,0,.08,3h.36a26.09,26.09,0,0,1,7,1.17,63.28,63.28,0,0,0,7.05,1.79,20,20,0,0,0,3.18.25,25.5,25.5,0,0,0,13.17-4,32.39,32.39,0,0,0,9.88-9.42,27.22,27.22,0,0,0,3.76-8.43,35.11,35.11,0,0,0,1-8.77,72.07,72.07,0,0,0-1-10.85,1.51,1.51,0,0,0-1.73-1.28A1.53,1.53,0,0,0,221.38,192.84Z"/>
          <path class="cls-9" d="M132.85,182.27a25.34,25.34,0,0,0,1.38,9,11.13,11.13,0,0,0,6.76,6.63,23.47,23.47,0,0,0,8.12,1.35,35.5,35.5,0,0,0,18.38-5.42,18.19,18.19,0,0,0,4.35-3.81,16.76,16.76,0,0,0,3.26-6.84,45.37,45.37,0,0,0,.94-7.8,12.33,12.33,0,0,1,.83-3.9,17,17,0,0,1,3-4.63c1.27-1.5,2.78-3.07,4.27-5a12.39,12.39,0,0,0,1.92-3.45,10.34,10.34,0,0,0,.61-3.51,12.81,12.81,0,0,0-1.25-5.31,28.57,28.57,0,0,0-4.77-6.9c-1.87-2.09-3.85-4-5.47-5.65a1.54,1.54,0,0,0-2.17,0,1.52,1.52,0,0,0,0,2.16,90.24,90.24,0,0,1,7.05,7.55,21.18,21.18,0,0,1,2.59,4.13,9.68,9.68,0,0,1,1,4,7.28,7.28,0,0,1-.43,2.48,9.61,9.61,0,0,1-1.46,2.61c-1.82,2.35-3.81,4.26-5.5,6.55a17.28,17.28,0,0,0-2.16,3.82,15.16,15.16,0,0,0-1,4.85,31.6,31.6,0,0,1-1.48,9.29,12.24,12.24,0,0,1-2,3.59,15.26,15.26,0,0,1-3.64,3.17,32.48,32.48,0,0,1-16.72,4.93,20.37,20.37,0,0,1-7.05-1.16,8.55,8.55,0,0,1-3.17-2,9.74,9.74,0,0,1-2.38-4.65,28.86,28.86,0,0,1-.61-6.12,1.53,1.53,0,0,0-3.05,0Z"/>
          <path class="cls-9" d="M201.1,166.08a21,21,0,0,0-5.82-5.35,15.31,15.31,0,0,0-7.84-2.48,9.84,9.84,0,0,0-5.46,1.6,1.53,1.53,0,0,0,1.68,2.56,6.71,6.71,0,0,1,3.78-1.1,12.25,12.25,0,0,1,6.23,2,17.81,17.81,0,0,1,4.94,4.53,1.53,1.53,0,0,0,2.49-1.78Z"/>
          <path class="cls-9" d="M173.38,186.67a28.57,28.57,0,0,1,15.37,4.54,16.59,16.59,0,0,1,5.09,5.34,14.49,14.49,0,0,1,1.93,7.38,19.48,19.48,0,0,1-.2,2.68,20.57,20.57,0,0,1-2.9,7.71,21.53,21.53,0,0,1-5.6,6.09,12.76,12.76,0,0,1-4.15,2,16.62,16.62,0,0,1-4.5.56,36.62,36.62,0,0,1-4.78-.37,47.36,47.36,0,0,0-6.18-.43,35.05,35.05,0,0,0-11.07,1.77,1.53,1.53,0,1,0,.94,2.91,32,32,0,0,1,10.13-1.63,45.4,45.4,0,0,1,5.78.41,39.39,39.39,0,0,0,5.18.39,20,20,0,0,0,5.31-.66,15.9,15.9,0,0,0,5.13-2.46,24.58,24.58,0,0,0,6.41-7,23.61,23.61,0,0,0,3.32-8.87,21,21,0,0,0,.23-3.12,17.41,17.41,0,0,0-2.34-8.92,21.58,21.58,0,0,0-9.89-8.51,33.23,33.23,0,0,0-13.16-2.88,1.53,1.53,0,1,0-.05,3Z"/>
          <path class="cls-9" d="M202.29,182.58a12.9,12.9,0,0,1-1.31,2.75,16.18,16.18,0,0,1-3.53,4.07,9.63,9.63,0,0,1-2.07,1.27,4.91,4.91,0,0,1-2,.43H193a1.53,1.53,0,0,0-.3,3c.23,0,.45,0,.68,0a8.54,8.54,0,0,0,4.14-1.16,16.42,16.42,0,0,0,4.84-4.33,17.51,17.51,0,0,0,2.82-5.18,1.53,1.53,0,0,0-2.92-.91Z"/>
          <path class="cls-9" d="M208,209.26a17.18,17.18,0,0,1-4,3.16,9.87,9.87,0,0,1-4.68,1.5,3.92,3.92,0,0,1-1.7-.35,3.74,3.74,0,0,1-1.42-1.16,1.53,1.53,0,0,0-2.41,1.88,6.86,6.86,0,0,0,2.56,2.06,7,7,0,0,0,3,.62,12.72,12.72,0,0,0,6.2-1.9,20.36,20.36,0,0,0,4.74-3.74,1.53,1.53,0,0,0-2.25-2.07Z"/>
          <path class="cls-9" d="M132.29,200.82c0,.38,0,.75,0,1.11a19.84,19.84,0,0,0,.78,5.82,12.38,12.38,0,0,0,4.45,6.5,17.42,17.42,0,0,0,8.35,3.07,34.16,34.16,0,0,0,4.16.26,38.75,38.75,0,0,0,21.83-7.16c2.94-2,5.6-4.35,8.24-6.59a1.53,1.53,0,0,0-2-2.33c-2.65,2.25-5.24,4.49-8,6.41A35.76,35.76,0,0,1,150,214.53a27.83,27.83,0,0,1-3.76-.25,17,17,0,0,1-5.07-1.37,9.3,9.3,0,0,1-4.41-4.1,14.51,14.51,0,0,1-1.45-6.88c0-.32,0-.65,0-1a1.53,1.53,0,0,0-3.05-.12Z"/>
          <path class="cls-9" d="M133.83,235.1a18.24,18.24,0,0,0,.88,4.93,10.56,10.56,0,0,0,3.71,5.3,10.43,10.43,0,0,0,6.28,1.89,18.34,18.34,0,0,0,5.3-.86,19.4,19.4,0,0,0,6-3.08,41.29,41.29,0,0,0,6.77-6.77,67.27,67.27,0,0,1,6.14-6.76,14.58,14.58,0,0,1,3.6-2.35,28.35,28.35,0,0,1,4.29-1.52,1.53,1.53,0,0,0-.83-2.94,31.15,31.15,0,0,0-4.75,1.69,17.34,17.34,0,0,0-4.35,2.85c-3.23,2.91-5.74,6.39-8.44,9.37a29.36,29.36,0,0,1-4.25,4,16.58,16.58,0,0,1-5.09,2.61,15.44,15.44,0,0,1-4.42.73,8.22,8.22,0,0,1-3.22-.6,6.45,6.45,0,0,1-3.19-2.95,13,13,0,0,1-1.41-5.67,1.53,1.53,0,1,0-3,.15Z"/>
          <path class="cls-9" d="M219.35,179.49a25.36,25.36,0,0,0,.66-5.8,32.56,32.56,0,0,0-5-16.78,49.6,49.6,0,0,0-3-4.51,21.48,21.48,0,0,0-3.94-4,15.89,15.89,0,0,0-3.13-1.73,7.32,7.32,0,0,1-2.26-1.44,1.53,1.53,0,0,0-2.18,2.14,10.37,10.37,0,0,0,3.14,2.07,13.21,13.21,0,0,1,2.58,1.39,18.92,18.92,0,0,1,3.38,3.47,50.51,50.51,0,0,1,2.85,4.23A29.63,29.63,0,0,1,217,173.69a22.4,22.4,0,0,1-.57,5.1,1.53,1.53,0,1,0,3,.7Z"/>
          <path class="cls-9" d="M201,133.87a18.29,18.29,0,0,1,.3,3.6,24.89,24.89,0,0,1-1.42,8.58A8.39,8.39,0,0,1,198,149a4,4,0,0,1-1.1.75,3.39,3.39,0,0,1-1.3.28,1.53,1.53,0,0,0,.07,3.05,6.44,6.44,0,0,0,2.45-.53,7.61,7.61,0,0,0,3.14-2.69,16.51,16.51,0,0,0,2.4-6,31.59,31.59,0,0,0,.65-6.4,21.28,21.28,0,0,0-.36-4.24,1.53,1.53,0,1,0-3,.64Z"/>
          <path class="cls-9" d="M239.51,178.28A28.14,28.14,0,0,0,237,167.4a35.82,35.82,0,0,0-6.19-9.23A32,32,0,0,0,225,153a17,17,0,0,0-3.56-1.85,11.8,11.8,0,0,0-4-.73,10.42,10.42,0,0,0-2.74.36h0a21.16,21.16,0,0,0-2.27.7,8.38,8.38,0,0,0-2.16,1.23,1.53,1.53,0,0,0,1.91,2.38,5.34,5.34,0,0,1,1.38-.77,17.89,17.89,0,0,1,1.92-.59h0a7.5,7.5,0,0,1,2-.26,8.6,8.6,0,0,1,3,.56,15.34,15.34,0,0,1,4.31,2.54,33.48,33.48,0,0,1,3.79,3.63,33,33,0,0,1,5.67,8.45,25.1,25.1,0,0,1,2.28,9.7,1.53,1.53,0,1,0,3-.09Z"/>
          <path class="cls-9" d="M215.41,140.91a38.21,38.21,0,0,0-.76-7.36,28.24,28.24,0,0,0-3.25-8.76,1.53,1.53,0,0,0-2.62,1.58,24.85,24.85,0,0,1,2.87,7.79,34.76,34.76,0,0,1,.7,6.75,1.53,1.53,0,1,0,3.06,0Z"/>
          <path class="cls-9" d="M199.2,122.79a62.16,62.16,0,0,0-5.84-4.46,19.3,19.3,0,0,0-3.52-1.83,10.69,10.69,0,0,0-3.83-.78,7.72,7.72,0,0,0-3.44.79,9.25,9.25,0,0,0-3.06,2.54,11.74,11.74,0,0,0-1.91,3.25,9.27,9.27,0,0,0-.57,3.21,11.93,11.93,0,0,0,.56,3.46c.49,1.64,1.19,3.17,1.8,4.67a17.49,17.49,0,0,1,1.27,4.44c0,.22,0,.42,0,.6a2.3,2.3,0,0,1-.16.94,1.16,1.16,0,0,1-.23.37,1.91,1.91,0,0,1-.76.46,6.57,6.57,0,0,1-1.53.35,1.53,1.53,0,0,0,.39,3,10.42,10.42,0,0,0,2-.44,5.72,5.72,0,0,0,1.34-.65,4.4,4.4,0,0,0,1.51-1.71,5.38,5.38,0,0,0,.49-2.35,7.94,7.94,0,0,0-.06-1,24.84,24.84,0,0,0-2.11-6.78c-.41-1-.8-1.95-1.07-2.86a9,9,0,0,1-.42-2.58,6,6,0,0,1,.38-2.14,8.71,8.71,0,0,1,1.41-2.4,6.33,6.33,0,0,1,2.05-1.72,4.59,4.59,0,0,1,2.08-.47,7.77,7.77,0,0,1,2.73.57,20.33,20.33,0,0,1,4.45,2.56c1.46,1.06,2.85,2.24,4.07,3.24a1.53,1.53,0,0,0,1.94-2.36Z"/>
          <path class="cls-9" d="M174.11,111.65a5.28,5.28,0,0,1,1.78,1,8.57,8.57,0,0,1,2.21,2.82,7.67,7.67,0,0,1,.85,3.31,4,4,0,0,1-.26,1.49,1.53,1.53,0,0,0,2.86,1.1,7.18,7.18,0,0,0,.46-2.59,11.22,11.22,0,0,0-2-6.09,11,11,0,0,0-2.2-2.42,8.18,8.18,0,0,0-2.87-1.52,1.53,1.53,0,1,0-.83,2.94Z"/>
          <path class="cls-9" d="M155.65,111.11a8,8,0,0,0-3.25,3.21,8.81,8.81,0,0,0-.48,7.42,1.53,1.53,0,0,0,2.84-1.12,5.78,5.78,0,0,1,.32-4.82,5,5,0,0,1,2-2,1.53,1.53,0,1,0-1.44-2.69Z"/>
          <path class="cls-9" d="M165,124.17a36,36,0,0,0-5.37-3.15,14.25,14.25,0,0,0-5.8-1.39,11.2,11.2,0,0,0-3.6.61,14,14,0,0,0-3.63,1.91,41.46,41.46,0,0,0-7.2,6.66,31.72,31.72,0,0,0-5.29,8.36h0a28.48,28.48,0,0,0-2,9.28,1.53,1.53,0,0,0,3.05.16,25.26,25.26,0,0,1,1.78-8.29h0a28.64,28.64,0,0,1,4.78-7.54,38.12,38.12,0,0,1,6.66-6.15,11,11,0,0,1,2.84-1.51,7.82,7.82,0,0,1,2.61-.44,11,11,0,0,1,4.54,1.11,33.61,33.61,0,0,1,4.91,2.89,1.53,1.53,0,1,0,1.72-2.52Z"/>
          <path class="cls-9" d="M159.06,137.24c0,.35,0,.7,0,1.06,0,.58,0,1.17,0,1.76a26.6,26.6,0,0,1-.18,3.51,8.27,8.27,0,0,1-.82,2.84,4.16,4.16,0,0,1-1.16,1.32,11.39,11.39,0,0,1-2.86,1.46c-1.12.43-2.34.83-3.51,1.38-2.25,1.08-5.2,2.27-8,3.76a30.49,30.49,0,0,0-4.06,2.5,15.24,15.24,0,0,0-3.3,3.21h0a9.87,9.87,0,0,0-1.64,3.9,20.45,20.45,0,0,0-.34,4c0,.38,0,.76,0,1.12a1.53,1.53,0,1,0,3.05-.08c0-.34,0-.69,0-1a16.79,16.79,0,0,1,.28-3.37,6.86,6.86,0,0,1,1.1-2.7h0a12.82,12.82,0,0,1,2.66-2.57A34.71,34.71,0,0,1,146,156c2-1,4.11-1.85,5.9-2.7,1.22-.59,2.87-1.06,4.51-1.79a11.48,11.48,0,0,0,2.41-1.39,7.19,7.19,0,0,0,2-2.28,11.19,11.19,0,0,0,1.17-3.9,29.11,29.11,0,0,0,.2-3.91V138.3c0-.35,0-.67,0-1a1.53,1.53,0,0,0-3.06-.07Z"/>
          <path class="cls-9" d="M241,227.51a7.05,7.05,0,0,1-3,1.52,15.58,15.58,0,0,1-4.2.54,17.89,17.89,0,0,1-5.26-.77,1.53,1.53,0,1,0-.94,2.91,20.87,20.87,0,0,0,6.2.91,18.66,18.66,0,0,0,5-.65,9.91,9.91,0,0,0,4.22-2.25,1.52,1.52,0,1,0-2.1-2.21Z"/>
          <path class="cls-9" d="M226.9,251.8c1.18-1.61,2.74-3.5,4-5.64a17.79,17.79,0,0,0,1.65-3.43,11.54,11.54,0,0,0,.7-3.87,10.05,10.05,0,0,0-.12-1.53,5.52,5.52,0,0,0-1.5-3.15,4.39,4.39,0,0,0-3.14-1.3,5.47,5.47,0,0,0-2.42.6,8,8,0,0,0-2.51,2,17.48,17.48,0,0,0-2.41,3.92c-.63,1.34-1.16,2.64-1.65,3.62a16.77,16.77,0,0,1-2.72,4.07,12.62,12.62,0,0,1-3.85,2.77,1.53,1.53,0,1,0,1.32,2.76,15.75,15.75,0,0,0,4.76-3.44,19.9,19.9,0,0,0,3.22-4.79c.76-1.54,1.44-3.33,2.28-4.88a11.38,11.38,0,0,1,1.36-2,5,5,0,0,1,1.55-1.26,2.46,2.46,0,0,1,1.07-.28,1.3,1.3,0,0,1,1,.4,2.62,2.62,0,0,1,.64,1.45,6.51,6.51,0,0,1,.08,1.07,8.53,8.53,0,0,1-.52,2.86,18.5,18.5,0,0,1-2.3,4.26c-1,1.4-2,2.73-3,4a1.53,1.53,0,1,0,2.46,1.81Z"/>
          <path class="cls-9" d="M203.08,261.73a22.27,22.27,0,0,0,4-7.83,31.82,31.82,0,0,0,1.23-8.9,35,35,0,0,0-1-8.4,19.62,19.62,0,0,0-2.73-6,1.53,1.53,0,0,0-2.56,1.67,16.63,16.63,0,0,1,2.32,5.06,31.74,31.74,0,0,1,.93,7.65,28.57,28.57,0,0,1-1.1,8,19.17,19.17,0,0,1-3.46,6.76,1.53,1.53,0,1,0,2.36,1.94Z"/>
          <path class="cls-9" d="M183.63,264.58a13.1,13.1,0,0,0,4.56-4.89,13.71,13.71,0,0,0,1.6-6.49,16,16,0,0,0-.16-2.17,10.16,10.16,0,0,0-1.32-3.63,40.73,40.73,0,0,0-3.1-4.26,12,12,0,0,1-2.2-3.9,10.92,10.92,0,0,1-.4-3.07,21.69,21.69,0,0,1,.35-3.6,1.51,1.51,0,0,0-1.24-1.76,1.53,1.53,0,0,0-1.77,1.25,24.06,24.06,0,0,0-.4,4.11,14.29,14.29,0,0,0,.52,3.9,12.46,12.46,0,0,0,1.66,3.46c1,1.53,2.19,2.84,3.1,4.13a13,13,0,0,1,1.16,1.89,6.5,6.5,0,0,1,.61,1.92,11.29,11.29,0,0,1,.13,1.73,10.6,10.6,0,0,1-1.24,5.05A9.84,9.84,0,0,1,182,262a1.53,1.53,0,1,0,1.63,2.59Z"/>
          <path class="cls-9" d="M162.53,234.46a10.73,10.73,0,0,1,1.79,3.25,10.34,10.34,0,0,1,.55,3.42,17.63,17.63,0,0,1-1,5.48,12.89,12.89,0,0,1-3.27,5.6,6.86,6.86,0,0,1-2.22,1.35,7.86,7.86,0,0,1-2.82.47,12.38,12.38,0,0,1-2.32-.23,16.76,16.76,0,0,0-3-.3,12.08,12.08,0,0,0-3,.38,16.62,16.62,0,0,0-3,1.14,1.53,1.53,0,1,0,1.33,2.76,13.25,13.25,0,0,1,2.46-.94,9.33,9.33,0,0,1,2.29-.29,13.27,13.27,0,0,1,2.44.26,16.3,16.3,0,0,0,2.88.28,10.92,10.92,0,0,0,3.89-.67,10.23,10.23,0,0,0,4.49-3.34,18,18,0,0,0,2.83-5.5,20.66,20.66,0,0,0,1.16-6.45,13.59,13.59,0,0,0-.7-4.4,14.06,14.06,0,0,0-2.28-4.15,1.53,1.53,0,0,0-2.41,1.88Z"/>
          <path class="cls-9" d="M172.93,259a9.91,9.91,0,0,0,.46-3.08,12.39,12.39,0,0,0-2-6.7,8.73,8.73,0,0,0-2.49-2.54,7.1,7.1,0,0,0-3.55-1.13,1.53,1.53,0,0,0-.12,3.06,3.89,3.89,0,0,1,2,.64A6.43,6.43,0,0,1,169.5,252a9.66,9.66,0,0,1,.84,3.89A6.9,6.9,0,0,1,170,258a1.53,1.53,0,1,0,2.9,1Z"/>
          <path class="cls-11" d="M163.42,172.06c-2.16,1.77-4.21,3.67-6.36,5.45l.09-.29c0,.15-.77,1-.72,1.13-.14.11-.31.05-.43.23a8.92,8.92,0,0,0-.54.82c-.38.66-.72,1.34-1.05,2-1.07,2.25-3,6.21-6.11,4.15a8.84,8.84,0,0,1-2.19-2.59,14.18,14.18,0,0,1-2-4.58,23.78,23.78,0,0,1-.18-4,10.08,10.08,0,0,1,0-1.14,24.91,24.91,0,0,1,2.34-6.19,20.73,20.73,0,0,1,6-6.39,35.58,35.58,0,0,1,7.55-3.85c1.34-.52,2.75-.94,4-1.59.51-.24,1-.56,1.48-.81s.66-.75.94-1.09c1.94-2.15,5.18-.69,5.7,1.91a13.26,13.26,0,0,1-1.84,9.38A28.44,28.44,0,0,1,163.42,172.06Z"/>
          <path class="cls-11" d="M169.94,199.69a10.1,10.1,0,0,1,1.92-1.39c.72-.56,1-1.23,2-1.36a2.54,2.54,0,0,1,2.55,3.69c-.72,1.33-3,3.17-4.57,3.17A2.54,2.54,0,0,1,169.94,199.69Z"/>
          <path class="cls-11" d="M150.43,205.16c3.86-.2,8.08.11,11.79-1.07a2.67,2.67,0,0,1,3.34,3.19c-.44,1.67-2.39,2.73-3.82,3.4-3.84,1.8-9.4,2.37-13.27.32-1.66-.81-3.5-2.32-2.26-4.36C147.08,205.2,149,205.24,150.43,205.16Z"/>
          <path class="cls-11" d="M142.82,236.62c1.06-.81,2.54-.47,3.77-.63a5.17,5.17,0,0,0,2.85-1.52,2.58,2.58,0,0,1,3.79.31,2.73,2.73,0,0,1,0,3.09,7.9,7.9,0,0,1-7.87,3.73,4.36,4.36,0,0,1-3.19-1.55A2.61,2.61,0,0,1,142.82,236.62Z"/>
          <path class="cls-11" d="M186.62,211.76a2.53,2.53,0,0,1,2.72,1.18,3.32,3.32,0,0,1-.23,3.21,5.73,5.73,0,0,1-5,3.49,2.88,2.88,0,0,1-2.91-1.75,2.51,2.51,0,0,1,.85-2.83,2.41,2.41,0,0,1,1.44-.49c.59,0,.69,0,1-.53C185.08,213,185.32,212.05,186.62,211.76Z"/>
          <path class="cls-11" d="M189.48,235.59c2,.37,2.12,2.63,2.9,4.12.9,1.7.28,4.06-2,4.06s-3.05-3-3.68-4.76A2.54,2.54,0,0,1,189.48,235.59Z"/>
          <path class="cls-11" d="M191.87,252.67c.28-1-.2-2,.13-3a2.55,2.55,0,0,1,2.42-1.72c4.44,0,3,9.4-1,9.4A2.51,2.51,0,0,1,191,254C191.19,253.49,191.73,253.16,191.87,252.67Z"/>
          <path class="cls-11" d="M215.78,234.34a2.69,2.69,0,0,1,3.78-.59,3.08,3.08,0,0,1,.91,3.34,15.53,15.53,0,0,1-5.18,8.54c-1.3,1-3.17,1.11-4-.51a3.32,3.32,0,0,1,.19-2.94A36.83,36.83,0,0,1,215.78,234.34Z"/>
          <path class="cls-11" d="M232.15,220.06c1-.54,2.12-.58,2.45-1.92a2.52,2.52,0,0,1,4.86-.1,4.21,4.21,0,0,1-.73,3.17c-1,1.79-3.2,3.58-5.38,3.58A2.53,2.53,0,0,1,232.15,220.06Z"/>
          <path class="cls-11" d="M209.92,198.21a4.13,4.13,0,0,0,1-1.31c.2-.47.09-1,.35-1.49a2.54,2.54,0,0,1,2.91-1.25c4.65,1.32-.31,9.31-3.7,9.31h0a2.55,2.55,0,0,1-2.51-2.35C207.9,199.64,209,199.08,209.92,198.21Z"/>
          <path class="cls-11" d="M190.86,178.61c-.85.36-1.48,1.13-2.37,1.46a2.48,2.48,0,0,1-3.33-2.33,5.48,5.48,0,0,1,2.21-3.56A11.57,11.57,0,0,1,192,172c.31-.07,4.4-.61,4.4-.24a2.56,2.56,0,0,1,2.23,3.14,2.84,2.84,0,0,1-2.67,2A14.1,14.1,0,0,0,190.86,178.61Z"/>
          <path class="cls-11" d="M187.28,149.45c-.82-.85-.64-2-.63-3.11,0-1.45.44-3,.59-4.41.16-1.6.3-3.2.61-4.78a2.64,2.64,0,0,1,3.56-1.91c1.28.53,1.64,1.85,1.88,3.08.65,3.42.32,7.89-2.16,10.58C190.11,150,188.52,150.72,187.28,149.45Z"/>
          <path class="cls-11" d="M188.51,132.26a2.56,2.56,0,0,1-2.21-1.3c-.22-.4-.21-.87-.44-1.27a6,6,0,0,1-.55-.91,2.55,2.55,0,0,1,2.25-3.4C191,125.22,192.68,132.26,188.51,132.26Z"/>
          <path class="cls-11" d="M148.4,135.13a2.54,2.54,0,0,1,2.33,2.44c0,1.4-.95,1.9-1.87,2.7a10.57,10.57,0,0,0-2.13,3.07c-.66,1.22-1.31,2.53-2.89,2.53a2.55,2.55,0,0,1-2.52-2.51c0-1.18.93-2.37,1.49-3.36C143.86,138.16,146,134.93,148.4,135.13Z"/>
          <path class="cls-11" d="M156.07,134.16a2.57,2.57,0,0,1-2,1,2.54,2.54,0,0,1-2.27-3.59c.69-1.49,2-3.64,3.87-3.45a2.54,2.54,0,0,1,2.06,3.51A13.48,13.48,0,0,1,156.07,134.16Z"/>
          <path class="cls-11" d="M139,111.82a14.46,14.46,0,0,1,.72-2.88c1.28-3.49,4.13-7.07,7.92-7.85a2.61,2.61,0,0,1,3,3.24,3.38,3.38,0,0,1-1.4,1.72,7.93,7.93,0,0,0-1.29,1.53,34.41,34.41,0,0,0-3.06,5.51c-.47,1-1,2.48-2,3.16a2.56,2.56,0,0,1-3.94-1.67C138.81,114.58,139,112,139,111.82Z"/>
        </g>
        <path class="cls-2" d="M102.72,12.4l-1,43.8c-1.42,0-2.8-.09-4.18-.17l1-43.72a2.11,2.11,0,0,1,2.09-2h0A2.07,2.07,0,0,1,102.72,12.4Z"/>
        <path class="cls-2" d="M119.69,44c-.38,4.22-.76,8.53-.92,12.83l-4.18-.12c.16-4.39.58-8.78,1-13.08.79-8.78,1.59-17.85.63-26.58A2,2,0,0,1,118,14.7a2.06,2.06,0,0,1,2.29,1.84C121.36,25.69,120.52,35,119.69,44Z"/>
        <path class="cls-2" d="M141.17,47.76c-.17,1.38-.38,2.75-.54,4.18-.26,1.79-.51,3.59-.71,5.34-1.34,0-2.76,0-4.18-.08.2-2,.46-3.93.75-5.89.16-1.34.37-2.72.54-4.06a120,120,0,0,0,.21-28.16,2.08,2.08,0,1,1,4.14-.46A123.94,123.94,0,0,1,141.17,47.76Z"/>
        <path class="cls-2" d="M161.1,45.25c-.37,4-.75,8.11-.79,12.12h-4.18c0-4.22.42-8.4.79-12.54.8-8.61,1.59-16.72-.45-24.62a2.07,2.07,0,1,1,4-1C162.73,27.78,161.9,36.64,161.1,45.25Z"/>
        <path class="cls-2" d="M251.38,18.32c-.63,5.82-.75,14.06-.92,22-.08,4-.17,8-.29,11.75-1.38.11-2.76.15-4.18.23.12-3.86.21-8,.29-12,.17-8,.29-16.41,1-22.38a2,2,0,0,1,2.26-1.7A2,2,0,0,1,251.38,18.32Z"/>
        <path class="cls-12" d="M251.93,74.41c-12.57-13-27.79-19.85-38.87-26.45h-156c-12.41,5.53-38.3,12.53-45.72,24C9.27,75.18,9,79.09,8.73,82.86,22.05,67.38,42.12,59.69,62.18,58.48c12.44-.74,25,1,37.48,1.44,14.52.52,29.05.56,43.57.22,12.72-.29,25.67-1.93,38.38-1.29,11.14.56,20.32,4.53,27.46,13.24,15,18.26,21.59,78.2,22.36,101.46.42,12.6-.44,25.18-1,37.75-.56,12.25-.87,24.5-1.63,36.74-1.52,24.25-4.88,49.09-16.35,70.86-18.3,34.7-65.41,32.46-98.91,31.66-19.32-.46-38.69-1.3-57.76-4.63-15.18-2.64-30.85-7-43.88-15.57,13.26,16.48,44.4,23.85,63.89,26.81,26.66,4.05,56.33,4.64,83.21,3.1,24.87-1.43,42.84-2.59,66.55-12.15,24.45-9.86,29.64-21.62,30.22-44.91.9-36.26.45-136,.59-153.4C256.44,136.44,258.23,80.92,251.93,74.41Z"/>
        <path class="cls-2" d="M53.7,9.53c-1,.4-1.75,1.09-1.5,2s1.52,1.31,2.56,1.43A545.87,545.87,0,0,0,134,16.13c3.48-.11,7.7-.75,9-4,2.62-6.46-8.53-7-12.23-6.67-4.51.46-9.07.29-13.62.35Q102.4,6,87.65,6.94c-10.93.67-21.55.83-32.41,2.18A5.87,5.87,0,0,0,53.7,9.53Z"/>
        <path class="cls-3" d="M258.25,13.32c0,9.74,0,19.31-.5,29-.21,4.6-3.34,7.57-7.31,9.37a25.13,25.13,0,0,1-3.89,1.46,33.52,33.52,0,0,1-6.9,1.25c-1.88.17-3.72.34-5.6.42-1.38.17-2.8.25-4.22.34-3.68.29-7.35.54-11,.71-1.38.12-2.76.16-4.18.25-6.27.29-12.58.54-18.89.71l-4.18.12c-5.22.13-10.49.21-15.76.25-1.42,0-2.8,0-4.22,0-5.14,0-10.28.09-15.42,0h0c-1.46,0-2.89,0-4.35,0-7.61,0-15.21,0-22.82,0h-8.86c-3.51,0-7.4,0-11.53-.09-1.34,0-2.76,0-4.18-.08-5.44-.08-11.16-.25-17-.42l-4.18-.12c-4.31-.13-8.61-.29-12.83-.46-1.42,0-2.8-.09-4.18-.17-5.18-.17-10.11-.37-14.63-.58-1.42-.09-2.84-.13-4.18-.21-5.22-.25-9.69-.5-13-.71-1.54-.09-2.8-.17-3.8-.25-.17,0-.33-.05-.46-.05a110.18,110.18,0,0,1-13.92-1.71c-1.42-.33-2.88-.71-4.22-1.13a31.5,31.5,0,0,1-4-1.8,10.6,10.6,0,0,1-4.64-4.76c-1-2.3-1-4.89-1-7.4,0-8.1-1-17,.67-25A3.31,3.31,0,0,1,3.64,11a3.07,3.07,0,0,1,1.59-.67C18.48,7.93,33,9.68,46.44,9.68h5.69q28.08.06,56.12.21,61.76.43,123.59,1.46C235.06,11.4,258.25,9,258.25,13.32Z"/>
        <path class="cls-4" d="M16.22,52.52c-1.42-.33-2.88-.71-4.22-1.13l-1.17-39a2.06,2.06,0,0,1,2-2.13,2.21,2.21,0,0,1,2.17,2Z"/>
        <path class="cls-4" d="M34.66,53.52a2,2,0,0,1-.26,1c-1.54-.09-2.8-.17-3.8-.25a1.81,1.81,0,0,1-.12-.67l-1-37.24a2.09,2.09,0,1,1,4.18-.08Z"/>
        <path class="cls-4" d="M51.58,55.45c-1.42-.09-2.84-.13-4.18-.21A286.38,286.38,0,0,1,48,9.68,2.1,2.1,0,0,1,50.29,7.8a2,2,0,0,1,1.84,1.88l0,.42A288.5,288.5,0,0,0,51.58,55.45Z"/>
        <path class="cls-4" d="M71.35,12.4l-1,43.8c-1.42,0-2.8-.09-4.18-.17l1-43.72a2.11,2.11,0,0,1,2.09-2h0A2.07,2.07,0,0,1,71.35,12.4Z"/>
        <path class="cls-4" d="M88.32,44c-.38,4.22-.75,8.53-.92,12.83l-4.18-.12c.17-4.39.58-8.78,1-13.08.8-8.78,1.59-17.85.63-26.58a2,2,0,0,1,1.84-2.3A2.07,2.07,0,0,1,89,16.54C90,25.69,89.15,35,88.32,44Z"/>
        <path class="cls-4" d="M109.8,47.76c-.17,1.38-.38,2.75-.54,4.18-.25,1.79-.5,3.59-.71,5.34-1.34,0-2.76,0-4.18-.08.21-2,.46-3.93.75-5.89.17-1.34.38-2.72.54-4.06a119.49,119.49,0,0,0,.21-28.16,2.1,2.1,0,0,1,1.84-2.3,2.08,2.08,0,0,1,2.3,1.84A123.41,123.41,0,0,1,109.8,47.76Z"/>
        <path class="cls-4" d="M129.74,45.25c-.38,4-.76,8.11-.8,12.12h-4.18c0-4.22.42-8.4.8-12.54.79-8.61,1.59-16.72-.46-24.62a2.07,2.07,0,1,1,4-1C131.37,27.78,130.53,36.64,129.74,45.25Z"/>
        <path class="cls-4" d="M156.11,57.33c-1.46,0-2.89,0-4.35,0-1.71-6.35-1.38-13-1.09-19.52.26-5.6.51-11.32-.54-16.68a2.09,2.09,0,1,1,4.1-.79c1.17,5.81.87,11.83.62,17.64C154.52,44.83,154.23,51.35,156.11,57.33Z"/>
        <path class="cls-4" d="M177.34,42.36a134.47,134.47,0,0,0-1.55,14.88c-1.42,0-2.8,0-4.22,0a146.31,146.31,0,0,1,1.59-15.5c1-6.69,1.92-13.63,1.55-20.35a2.07,2.07,0,0,1,2-2.22,2.13,2.13,0,0,1,2.22,2C179.3,28.32,178.3,35.47,177.34,42.36Z"/>
        <path class="cls-4" d="M195.73,56.87l-4.18.12c-.17-13.37-.08-26.87.33-40.25a2.15,2.15,0,0,1,2.14-2,2.12,2.12,0,0,1,2,2.13C195.65,30.12,195.56,43.58,195.73,56.87Z"/>
        <path class="cls-4" d="M220,18.54c-.63,6.44-.75,15.55-.92,24.37-.08,4.39-.17,8.82-.29,13-1.38.12-2.76.16-4.18.25.12-4.27.21-8.82.29-13.29.17-8.91.3-18.14,1-24.75a2.08,2.08,0,1,1,4.14.42Z"/>
        <path class="cls-4" d="M235.18,42.49c-.46,4.1-.92,8.23-1.13,12.37-1.38.17-2.8.25-4.22.34.25-4.44.71-8.87,1.21-13.17.88-7.94,1.8-16.09,1.26-24.07a2.09,2.09,0,0,1,1.92-2.22,2,2,0,0,1,2.22,1.92C237.06,26,236.1,34.38,235.18,42.49Z"/>
        <path class="cls-4" d="M253.65,18.46c-.83,11-1.92,22.27-3.21,33.27a25.13,25.13,0,0,1-3.89,1.46,1.76,1.76,0,0,1-.33-1.38c1.33-11.16,2.42-22.48,3.26-33.64a2.09,2.09,0,0,1,4.17.29Z"/>
        <path class="cls-5" d="M172.62.85c19.94.66,40.62,1.13,59.44,3.58,16.49,2.15,39.05,7.71,17.79,13.25-22.18,5.78-59.82,4.82-86.53,5-32.18.17-64.41-.53-96.25-2.07C53.81,19.92,1.9,19.05,2.79,12.11,3.73,4.79,56.86,2.2,72.56,1.33,105.59-.49,139.4-.24,172.62.85Z"/>
        <path class="cls-13" d="M22.33,9.53c-1,.4-1.75,1.09-1.5,2s1.53,1.31,2.56,1.43a546,546,0,0,0,79.22,3.13c3.48-.11,7.7-.75,9-4,2.62-6.46-8.52-7-12.23-6.67-4.51.46-9.07.29-13.62.35Q71,6,56.29,6.94c-10.94.67-21.55.83-32.41,2.18A5.93,5.93,0,0,0,22.33,9.53Z"/>
        <path class="cls-14" d="M28.23,77.82a24.93,24.93,0,0,0-6.58,7.94c-1.49,3-1.59,6.46-1.67,9.8-1.31,57-2.63,150.36-3.94,207.36-.14,6-.16,12.37,3.16,17.33,7,10.49,20.51,14.74,32.34,16.7,10.73,1.78,30.19,4,39.05-3.59,6.85-5.87,5.88-16.25,6.53-25.25C99.3,278,101.4,125.66,98.69,92.46c-.67-8.21-9.51-17.8-14.77-23.92S73.18,63.3,65,62.6a33.09,33.09,0,0,0-7.64,0c-3.75.56-7.17,2.4-10.5,4.22C41.12,69.89,33.81,73.18,28.23,77.82Z"/>
      </g>
    </g>
  </g>
</svg>
