<svg xmlns="http://www.w3.org/2000/svg" viewBox="0 0 468.59 370.87">
  <defs>
    <style>
      .cls-1 {
        isolation: isolate;
      }

      .cls-2 {
        fill: #231f20;
        mix-blend-mode: multiply;
      }

      .cls-2, .cls-5 {
        opacity: 0.1;
      }

      .cls-3, .cls-4, .cls-5, .cls-6, .cls-8 {
        fill: #fff;
      }

      .cls-3 {
        opacity: 0.5;
      }

      .cls-4 {
        opacity: 0.7;
      }

      .cls-6 {
        opacity: 0.2;
      }

      .cls-7 {
        fill: #f5f5f5;
      }
    </style>
  </defs>
  <title>Asset 14</title>
  <g class="cls-1">
    <g id="Layer_2" data-name="Layer 2">
      <g id="Layer_1-2" data-name="Layer 1">
        <g>
          <g>
            <path class="cls-2" d="M226.44,333q-12.15,0-23.8.21c2.69-1.53,4.18-3.17,4.18-4.89,0-8.15-33.13-14.76-74-14.76s-74,6.61-74,14.76c0,5.49,15,10.27,37.31,12.81-17.86,3.07-28.36,6.79-28.36,10.8,0,10.45,71,18.93,158.66,18.93s158.65-8.48,158.65-18.93S314.06,333,226.44,333Z"/>
            <g>
              <path class="cls-3" d="M302.88,271.68c21.15,18.17-72.38,19.58-131.43-51.82-55.17-66.7-71.76-92.67-81.72-130-9.58-36-5.77-56.18,1-59.29-24,7.28-56.86,27.13-53.41,65s54.37,101.52,92.22,127.67,35.8,83.62,53.35,106,170,32.69,175.85,10C364.35,317.3,324.59,288.06,302.88,271.68Z"/>
              <path class="cls-4" d="M359,337.74c-.08.49-.16,1-.28,1.45-5.85,22.72-158.3,12.39-175.85-10s-15.49-79.85-53.35-106c-1-.69-2-1.42-3-2.16l.34.26c28.64,21.15,45,102.05,51.55,113.06s22,20.65,97.74,25.12,83.13-8.95,83.13-21.68Z"/>
              <path class="cls-3" d="M97.3,195.18c-18.34-18.91-36-42-47.42-63.43h0c16,33.3,46.25,88,46.25,194.36l6.2,1.72s1.72-70.89,0-89.82C101.19,225.49,99.74,210,97.3,195.18Z"/>
              <path class="cls-4" d="M97,194.83l.34.35c2.44,14.77,3.89,30.31,5,42.84,1.72,18.93,0,89.82,0,89.82l5.85-1.38s6.2-72.21,19.9-104.26A231.38,231.38,0,0,1,97,194.83Z"/>
              <path class="cls-5" d="M302.88,271.68c21.15,18.17-72.38,19.58-131.43-51.82-55.17-66.7-71.76-92.67-81.72-130-9.58-36-5.77-56.18,1-59.29-15.84,4.8-35.52,15.08-46.09,32.38,4.84,32.25,21.6,51.22,50.63,93.19C136.53,215.82,197,303.88,277,314.45c26.66,3.52,50,1.15,67.73-7.22C332.4,293.73,314.89,280.73,302.88,271.68Z"/>
              <path class="cls-4" d="M90.7,30.56c15.07-6.94,55,59.82,81.65,106.32C197.13,180.1,229,229.18,298,268.31c37.24,21.13-64,27.15-126.5-48.45-55.17-66.7-71.76-92.67-81.72-130C80.15,53.89,84,33.67,90.7,30.56Z"/>
              <path class="cls-5" d="M358.71,339.19c2.72-10.57-5.15-22.86-16.46-34.58-17.56,37.08-69.4,39.55-116.8,20.09-29.49-12.11-47-28.05-59.65-40.45,5.3,18,9.23,35,17.06,45C200.41,351.58,352.86,361.91,358.71,339.19Z"/>
              <path class="cls-5" d="M76.48,136.28c-8-36.25-1.62-72.66-9.92-94.77-17.1,10.79-31.62,28.22-29.27,54,1,10.52,5.59,23,12.6,36.21h0c16,33.3,46.25,88,46.25,194.36l3.74,1A616.78,616.78,0,0,0,97,247.72C91.36,190.53,87.09,184.14,76.48,136.28Z"/>
              <path class="cls-6" d="M180.45,304.94c1.77-24,118.89,12.16,114.43,30.44C291,351.16,178.53,331,180.45,304.94Z"/>
              <path class="cls-6" d="M306,290.72c10-10,51.83,33.09,43.24,45.62S293.29,303.39,306,290.72Z"/>
              <path class="cls-6" d="M74.25,53.09C80.37,70.34,45.31,85.92,57,123.2,31.4,84.8,58.11,57.54,74.25,53.09Z"/>
            </g>
          </g>
          <path class="cls-7" d="M404.16,84.46c2.6-.82,8.66-1.75,11.9-5.16,2.91-3.07,4.38-11.9,4.78-16.34.78,4.89,3.27,13.13,5.29,15.36,3.14,3.44,8,4.91,11.38,6-3.58,2-8.29,3-10.88,6.41-1.41,1.83-2.09,4.51-2.85,6.66s-1.49,4.32-2.14,6.51a6.76,6.76,0,0,0-.58,2.22c-1.27-8.09-3.32-12.53-4.8-14.24C413.32,88.52,404.16,84.46,404.16,84.46Z"/>
          <path class="cls-7" d="M56.31,36.43c2.6-.82,8.67-1.76,11.91-5.17C71.13,28.2,72.6,19.36,73,14.92c.78,4.9,3.27,13.13,5.3,15.36,3.14,3.44,8,4.91,11.37,6-3.57,2-8.29,3-10.88,6.41-1.41,1.83-2.09,4.51-2.85,6.67s-1.48,4.31-2.13,6.5a6.57,6.57,0,0,0-.58,2.23c-1.28-8.1-3.33-12.54-4.81-14.25C65.47,40.48,56.31,36.43,56.31,36.43Z"/>
          <path class="cls-7" d="M32.25,91.19c1.67-.53,5.59-1.14,7.67-3.34,1.88-2,2.83-7.67,3.08-10.52.51,3.15,2.11,8.46,3.41,9.89,2,2.22,5.15,3.17,7.34,3.9-2.31,1.26-5.35,1.95-7,4.13a15.62,15.62,0,0,0-1.83,4.3c-.49,1.38-1,2.78-1.38,4.19a4.09,4.09,0,0,0-.37,1.43C42.33,100,41,97.09,40.05,96,38.15,93.8,32.25,91.19,32.25,91.19Z"/>
          <path class="cls-7" d="M393.41,139.91c1.67-.53,5.59-1.14,7.67-3.33,1.88-2,2.83-7.68,3.08-10.53.51,3.15,2.11,8.46,3.41,9.89,2,2.22,5.15,3.17,7.34,3.9-2.31,1.26-5.35,1.95-7,4.13a15.93,15.93,0,0,0-1.83,4.3c-.49,1.38-1,2.78-1.38,4.19a4.09,4.09,0,0,0-.37,1.44c-.82-5.23-2.15-8.09-3.1-9.19C399.31,142.52,393.41,139.91,393.41,139.91Z"/>
          <path class="cls-8" d="M324.64,188.64c1.68-.53,5.59-1.14,7.67-3.33,1.88-2,2.83-7.68,3.08-10.53.51,3.15,2.11,8.46,3.42,9.89,2,2.23,5.14,3.17,7.33,3.9-2.3,1.26-5.34,2-7,4.13a15.93,15.93,0,0,0-1.83,4.3c-.49,1.38-1,2.78-1.38,4.19a4.31,4.31,0,0,0-.37,1.44c-.82-5.22-2.14-8.09-3.1-9.19C330.54,191.25,324.64,188.64,324.64,188.64Z"/>
          <path class="cls-7" d="M346.46,28.54c1.67-.53,5.59-1.13,7.67-3.33,1.88-2,2.83-7.67,3.08-10.53.51,3.15,2.11,8.46,3.41,9.9,2,2.22,5.15,3.17,7.34,3.89-2.31,1.27-5.35,2-7,4.13a15.93,15.93,0,0,0-1.83,4.3c-.49,1.39-1,2.78-1.38,4.19a4.14,4.14,0,0,0-.37,1.44c-.82-5.22-2.15-8.08-3.1-9.19C352.36,31.15,346.46,28.54,346.46,28.54Z"/>
          <path class="cls-7" d="M0,174.71c1.67-.53,5.59-1.13,7.67-3.33,1.88-2,2.83-7.67,3.08-10.53.51,3.16,2.11,8.47,3.41,9.9,2,2.22,5.15,3.17,7.34,3.89-2.31,1.27-5.35,2-7,4.14a15.87,15.87,0,0,0-1.83,4.29c-.49,1.39-1,2.79-1.38,4.2a4.32,4.32,0,0,0-.37,1.43c-.82-5.22-2.15-8.08-3.1-9.18C5.9,177.33,0,174.71,0,174.71Z"/>
          <path class="cls-8" d="M346.46,153.83c1.67-.53,5.59-1.13,7.67-3.33,1.88-2,2.83-7.67,3.08-10.53.51,3.15,2.11,8.46,3.41,9.9,2,2.22,5.15,3.17,7.34,3.89-2.31,1.27-5.35,2-7,4.13a15.93,15.93,0,0,0-1.83,4.3c-.49,1.39-1,2.78-1.38,4.19a4.14,4.14,0,0,0-.37,1.44c-.82-5.22-2.15-8.08-3.1-9.18C352.36,156.44,346.46,153.83,346.46,153.83Z"/>
          <path class="cls-8" d="M126.8,79.86c1-.31,3.29-.67,4.52-2s1.66-4.51,1.81-6.19c.29,1.85,1.24,5,2,5.82a9.77,9.77,0,0,0,4.31,2.29c-1.36.74-3.15,1.15-4.13,2.43a9.47,9.47,0,0,0-1.08,2.53c-.29.81-.56,1.64-.81,2.47a2.75,2.75,0,0,0-.22.84c-.48-3.07-1.26-4.75-1.82-5.4C130.28,81.4,126.8,79.86,126.8,79.86Z"/>
          <path class="cls-8" d="M289.46,54.05c1-.31,3.28-.66,4.51-2s1.66-4.51,1.81-6.19c.3,1.86,1.24,5,2,5.82A9.67,9.67,0,0,0,302.1,54c-1.35.75-3.14,1.15-4.13,2.43A9.47,9.47,0,0,0,296.89,59c-.28.82-.56,1.64-.81,2.47a2.53,2.53,0,0,0-.21.84c-.49-3.07-1.27-4.75-1.83-5.4C292.93,55.59,289.46,54.05,289.46,54.05Z"/>
          <path class="cls-8" d="M83.34,99.83c1-.31,3.29-.67,4.52-2s1.66-4.51,1.8-6.19c.3,1.85,1.25,5,2,5.82A9.8,9.8,0,0,0,96,99.79c-1.36.75-3.15,1.15-4.13,2.43a9.47,9.47,0,0,0-1.08,2.53c-.29.82-.56,1.64-.81,2.47a2.75,2.75,0,0,0-.22.84c-.48-3.07-1.26-4.75-1.82-5.4C86.81,101.37,83.34,99.83,83.34,99.83Z"/>
          <path class="cls-7" d="M208.5,37.48c1.67-.53,5.58-1.13,7.67-3.33,1.87-2,2.82-7.67,3.08-10.53.5,3.16,2.1,8.47,3.41,9.9,2,2.22,5.14,3.17,7.34,3.89-2.31,1.27-5.35,2-7,4.14a15.58,15.58,0,0,0-1.84,4.29c-.49,1.39-.95,2.79-1.37,4.2a4.34,4.34,0,0,0-.38,1.43c-.82-5.22-2.14-8.08-3.09-9.18C214.4,40.1,208.5,37.48,208.5,37.48Z"/>
          <path class="cls-7" d="M410.09,267.69c1.67-.53,5.58-1.13,7.67-3.33,1.87-2,2.82-7.67,3.08-10.53.5,3.15,2.1,8.47,3.41,9.9,2,2.22,5.14,3.17,7.34,3.89-2.31,1.27-5.35,2-7,4.13a15.77,15.77,0,0,0-1.84,4.3c-.49,1.39-1,2.79-1.37,4.2a4.27,4.27,0,0,0-.38,1.43c-.82-5.22-2.14-8.08-3.09-9.18C416,270.31,410.09,267.69,410.09,267.69Z"/>
          <path class="cls-7" d="M32.25,216.51c1.08-.34,3.59-.73,4.94-2.14s1.81-4.94,2-6.78c.32,2,1.35,5.45,2.2,6.37a10.74,10.74,0,0,0,4.72,2.51c-1.49.81-3.44,1.25-4.52,2.66a10.09,10.09,0,0,0-1.18,2.76c-.32.89-.62,1.79-.89,2.7a2.79,2.79,0,0,0-.24.92c-.53-3.36-1.38-5.2-2-5.91C36.05,218.19,32.25,216.51,32.25,216.51Z"/>
          <g>
            <path class="cls-2" d="M315.43,292.46c-7.81,0-15.48.07-23,.21,2.6-1.48,4-3.07,4-4.73,0-7.87-32-14.24-71.43-14.24s-71.42,6.37-71.42,14.24c0,5.3,14.5,9.92,36,12.37-17.24,3-27.37,6.55-27.37,10.42,0,10.1,68.57,18.28,153.15,18.28s153.16-8.18,153.16-18.28S400,292.46,315.43,292.46Z"/>
            <g>
              <path class="cls-3" d="M389.24,233.25c20.41,17.55-69.89,18.9-126.89-50-53.26-64.4-69.28-89.46-78.88-125.51C174.21,23,177.89,3.48,184.4.48c-23.18,7-54.89,26.19-51.57,62.74s52.49,98,89,123.25,34.55,80.73,51.49,102.33,164.12,31.56,169.77,9.63C448.57,277.3,410.19,249.07,389.24,233.25Z"/>
              <path class="cls-4" d="M443.4,297c-.08.47-.15.94-.27,1.4-5.65,21.93-152.82,12-169.77-9.63s-14.95-77.08-51.49-102.33c-1-.66-1.94-1.37-2.92-2.08l.33.25c27.64,20.42,43.45,98.51,49.76,109.14S290.31,313.71,363.4,318s80.25-8.64,80.25-20.93Z"/>
              <path class="cls-3" d="M190.77,159.4C173.06,141.15,156,118.86,145,98.17h0c15.42,32.16,44.65,85,44.65,187.64l6,1.66s1.66-68.44,0-86.71C194.52,188.66,193.13,173.66,190.77,159.4Z"/>
              <path class="cls-4" d="M190.44,159.06l.33.34c2.36,14.26,3.75,29.26,4.85,41.36,1.66,18.27,0,86.71,0,86.71l5.65-1.33s6-69.71,19.21-100.66A223.13,223.13,0,0,1,190.44,159.06Z"/>
              <path class="cls-5" d="M389.24,233.25c20.41,17.55-69.89,18.9-126.89-50-53.26-64.4-69.28-89.46-78.88-125.51C174.21,23,177.89,3.48,184.4.48,169.11,5.12,150.11,15,139.9,31.75c4.68,31.13,20.85,49.44,48.88,90,39.86,57.62,98.2,142.63,175.45,152.83,25.73,3.4,48.31,1.12,65.39-7C417.73,254.54,400.82,242,389.24,233.25Z"/>
              <path class="cls-4" d="M184.4.48c14.55-6.7,53.08,57.75,78.82,102.64,23.93,41.73,54.67,89.1,121.25,126.88,35.95,20.4-61.76,26.21-122.12-46.77-53.26-64.4-69.28-89.46-78.88-125.51C174.21,23,177.89,3.48,184.4.48Z"/>
              <path class="cls-5" d="M443.13,298.43c2.63-10.21-5-22.07-15.89-33.39-17,35.8-67,38.19-112.75,19.4-28.48-11.7-45.4-27.08-57.59-39.05,5.11,17.42,8.91,33.78,16.46,43.41C290.31,310.39,437.48,320.36,443.13,298.43Z"/>
              <path class="cls-5" d="M170.67,102.54c-7.75-35-1.56-70.15-9.58-91.49-16.5,10.42-30.52,27.25-28.26,52.17.93,10.16,5.41,22.26,12.17,35h0c15.42,32.16,44.65,85,44.65,187.64l3.61,1a595.84,595.84,0,0,0-2.81-76.69C185,154.91,180.91,148.74,170.67,102.54Z"/>
              <path class="cls-6" d="M271,265.37c1.71-23.14,114.78,11.73,110.47,29.38C377.79,310,269.19,290.56,271,265.37Z"/>
              <path class="cls-6" d="M392.21,251.63c9.66-9.66,50,31.95,41.74,44S380,263.87,392.21,251.63Z"/>
              <path class="cls-6" d="M168.51,22.23c5.91,16.65-27.93,31.69-16.65,67.68C127.15,52.85,152.94,26.53,168.51,22.23Z"/>
            </g>
          </g>
          <path class="cls-8" d="M171.47,345.05c1.31-.42,4.38-.89,6-2.61,1.47-1.55,2.21-6,2.41-8.26.4,2.48,1.65,6.64,2.68,7.76,1.58,1.74,4,2.49,5.75,3.05-1.81,1-4.2,1.54-5.5,3.24a12,12,0,0,0-1.44,3.37c-.39,1.09-.75,2.18-1.08,3.29A3.45,3.45,0,0,0,180,356c-.64-4.09-1.68-6.33-2.42-7.2C176.1,347.1,171.47,345.05,171.47,345.05Z"/>
          <path class="cls-8" d="M143.64,309.52c1.31-.42,4.38-.89,6-2.61,1.47-1.55,2.21-6,2.41-8.26.39,2.47,1.65,6.64,2.67,7.76,1.59,1.74,4,2.48,5.75,3-1.8,1-4.19,1.53-5.5,3.24a12.6,12.6,0,0,0-1.44,3.37c-.38,1.09-.75,2.18-1.08,3.29a3.43,3.43,0,0,0-.29,1.12c-.64-4.09-1.68-6.33-2.42-7.2C148.27,311.56,143.64,309.52,143.64,309.52Z"/>
        </g>
      </g>
    </g>
  </g>
</svg>
