<svg xmlns="http://www.w3.org/2000/svg" xmlns:xlink="http://www.w3.org/1999/xlink" viewBox="0 0 155.78 425.24">
  <defs>
    <style>
      .cls-1 {
        mask: url(#mask);
        filter: url(#luminosity-noclip-3);
      }

      .cls-2, .cls-4 {
        mix-blend-mode: multiply;
      }

      .cls-2 {
        fill: url(#linear-gradient);
      }

      .cls-3 {
        mask: url(#mask-2);
        filter: url(#luminosity-noclip-4);
      }

      .cls-4 {
        fill: url(#linear-gradient-2);
      }

      .cls-5 {
        fill: url(#linear-gradient-3);
      }

      .cls-6 {
        mask: url(#mask-3);
      }

      .cls-7 {
        fill: url(#linear-gradient-4);
      }

      .cls-8 {
        mask: url(#mask-4);
      }

      .cls-9 {
        fill: url(#linear-gradient-5);
      }

      .cls-10 {
        fill: url(#linear-gradient-6);
      }

      .cls-11 {
        fill: url(#linear-gradient-7);
      }

      .cls-12 {
        fill: #a36133;
      }

      .cls-13 {
        fill: url(#linear-gradient-8);
      }

      .cls-14 {
        fill: url(#linear-gradient-9);
      }

      .cls-15 {
        fill: url(#linear-gradient-10);
      }

      .cls-16 {
        fill: url(#linear-gradient-11);
      }

      .cls-17 {
        fill: url(#linear-gradient-12);
      }

      .cls-18 {
        fill: #351905;
      }

      .cls-19 {
        fill: url(#linear-gradient-13);
      }

      .cls-20 {
        fill: url(#linear-gradient-14);
      }

      .cls-21 {
        fill: url(#linear-gradient-15);
      }

      .cls-22 {
        fill: url(#linear-gradient-16);
      }

      .cls-23 {
        fill: url(#linear-gradient-17);
      }

      .cls-24 {
        fill: url(#linear-gradient-18);
      }

      .cls-25 {
        fill: url(#linear-gradient-19);
      }

      .cls-26 {
        fill: url(#linear-gradient-20);
      }

      .cls-27 {
        fill: url(#linear-gradient-21);
      }

      .cls-28 {
        fill: url(#linear-gradient-22);
      }

      .cls-29 {
        fill: url(#linear-gradient-23);
      }

      .cls-30 {
        fill: url(#linear-gradient-24);
      }

      .cls-31 {
        fill: url(#linear-gradient-25);
      }

      .cls-32 {
        fill: url(#linear-gradient-26);
      }

      .cls-33 {
        fill: url(#linear-gradient-27);
      }

      .cls-34 {
        fill: url(#linear-gradient-28);
      }

      .cls-35 {
        fill: url(#linear-gradient-29);
      }

      .cls-36 {
        filter: url(#luminosity-noclip-2);
      }

      .cls-37 {
        filter: url(#luminosity-noclip);
      }
    </style>
    <filter id="luminosity-noclip" x="47.94" y="-9177.62" width="61.93" height="32766" filterUnits="userSpaceOnUse" color-interpolation-filters="sRGB">
      <feFlood flood-color="#fff" result="bg"/>
      <feBlend in="SourceGraphic" in2="bg"/>
    </filter>
    <mask id="mask" x="47.94" y="-9177.62" width="61.93" height="32766" maskUnits="userSpaceOnUse">
      <g class="cls-37"/>
    </mask>
    <linearGradient id="linear-gradient" x1="78.91" y1="90.96" x2="78.91" y2="132.85" gradientUnits="userSpaceOnUse">
      <stop offset="0.02" stop-color="#fff"/>
      <stop offset="0.14" stop-color="#d2d2d2"/>
      <stop offset="0.32" stop-color="#939393"/>
      <stop offset="0.49" stop-color="#5e5e5e"/>
      <stop offset="0.64" stop-color="#353535"/>
      <stop offset="0.79" stop-color="#181818"/>
      <stop offset="0.91" stop-color="#060606"/>
      <stop offset="1"/>
    </linearGradient>
    <filter id="luminosity-noclip-2" x="47.4" y="-9177.62" width="61.17" height="32766" filterUnits="userSpaceOnUse" color-interpolation-filters="sRGB">
      <feFlood flood-color="#fff" result="bg"/>
      <feBlend in="SourceGraphic" in2="bg"/>
    </filter>
    <mask id="mask-2" x="47.4" y="-9177.62" width="61.17" height="32766" maskUnits="userSpaceOnUse">
      <g class="cls-36"/>
    </mask>
    <linearGradient id="linear-gradient-2" x1="77.98" y1="329.93" x2="77.98" y2="286.36" xlink:href="#linear-gradient"/>
    <linearGradient id="linear-gradient-3" x1="45.4" y1="212.89" x2="107.87" y2="212.89" gradientUnits="userSpaceOnUse">
      <stop offset="0.18" stop-color="#a36623"/>
      <stop offset="0.26" stop-color="#b27936"/>
      <stop offset="0.4" stop-color="#cc9956"/>
      <stop offset="0.52" stop-color="#dbac69"/>
      <stop offset="0.6" stop-color="#e1b370"/>
      <stop offset="0.69" stop-color="#deaf6c"/>
      <stop offset="0.77" stop-color="#d5a461"/>
      <stop offset="0.85" stop-color="#c5914e"/>
      <stop offset="0.93" stop-color="#b07633"/>
      <stop offset="0.97" stop-color="#a36623"/>
    </linearGradient>
    <filter id="luminosity-noclip-3" x="47.94" y="95.85" width="61.93" height="41.89" filterUnits="userSpaceOnUse" color-interpolation-filters="sRGB">
      <feFlood flood-color="#fff" result="bg"/>
      <feBlend in="SourceGraphic" in2="bg"/>
    </filter>
    <mask id="mask-3" x="47.94" y="95.85" width="61.93" height="41.89" maskUnits="userSpaceOnUse">
      <g class="cls-1">
        <path class="cls-2" d="M109.87,96.51s-2.73-.22-6.38-.41l.19,4.13-1.2.86s-.16-3.67-.16-4.22c0-.09,0-.39,0-.82l-2-.09L100.28,97l.8.54-.69,2.68-1.49-.91-.31-3.41c-1.35,0-2.71-.06-4-.06l-.08,1L94,98.37l-.89-1.09s-.11-.64-.2-1.41c-1.55,0-3,.1-4.19.23l.84,3.08L87,97.82l0-1.46a6.68,6.68,0,0,0-.87.24,9.17,9.17,0,0,1-1.35.34c0,1.23,0,2.24,0,2.24a9.81,9.81,0,0,1-.65,2.31c-.44,1-.51-.81-.69-1.76A4.48,4.48,0,0,0,82.6,98l-.64.81-.36,2.72L80.78,98l0-.74c-1.54,0-3.25-.07-5-.17a16.37,16.37,0,0,0,.31,1.86,3.88,3.88,0,0,1,0,2.58,4.5,4.5,0,0,1-.69-1.36A5.29,5.29,0,0,0,73.65,98a4.37,4.37,0,0,1-.89-1.09c-1.8-.12-3.61-.23-5.35-.3.22,1.3.43,2.42.2,2.34A11.2,11.2,0,0,1,66,97.28v-.75c-1.12,0-2.2,0-3.2,0L62.6,98l-.92.68-.25-2c-.76.06-1.49.1-2.2.13,0,.35,0,.58,0,.58l.15,2.11-.15,2h-.32s-.26-2.85-.24-3.39c0-.17,0-.68,0-1.32l-1.78,0-.12,1.27s0-.55-.06-1.27h-2l-.14.85-.6.13s0,.55-.07,1.23-.58-.41-.84,0-.43,0-.72,0a1.52,1.52,0,0,1-1-1c0-.16-.07-.71-.13-1.36-1.32-.06-2.06-.14-2.06-.14l-1.07,3.63-.11,37.51h61.65Z"/>
      </g>
    </mask>
    <linearGradient id="linear-gradient-4" x1="78.91" y1="90.96" x2="78.91" y2="132.85" gradientUnits="userSpaceOnUse">
      <stop offset="0.02" stop-color="#a36623"/>
      <stop offset="0.32" stop-color="#b27835"/>
      <stop offset="0.71" stop-color="#c08a47"/>
      <stop offset="1" stop-color="#c5904d"/>
    </linearGradient>
    <filter id="luminosity-noclip-4" x="47.4" y="286.36" width="61.17" height="43.58" filterUnits="userSpaceOnUse" color-interpolation-filters="sRGB">
      <feFlood flood-color="#fff" result="bg"/>
      <feBlend in="SourceGraphic" in2="bg"/>
    </filter>
    <mask id="mask-4" x="47.4" y="286.36" width="61.17" height="43.58" maskUnits="userSpaceOnUse">
      <g class="cls-3">
        <path class="cls-4" d="M47.52,286.36l-.12,41.32h5.54c.15-1.54.31-3.26.31-3.26l1.33,1.49,1.62.14-.41,1.61h2.9l-.18-7.18,1.11,2.32-.36,3.12s.16.76.35,1.75l1.65,0c.27-1.91.51-3.67.51-3.67L63,325l-.69,2.6,0,.09,1.88.06c.17-1.48.31-2.75.31-2.75h2.87s3.59-1.59,2.44,0c-1,1.34-1.59,1.94-1.82,2.92,1.26.08,2.59.17,4,.28h0l1.56-2.84.91.27s-.22,1.36-.42,2.75c1.35.12,2.76.27,4.22.44L78,326.59l.66-.13.83.27L79,327.88l.07,1.06,1.16.14c.21-2.53.37-5.34.37-5.34l.44,2.85v2.6l1.16.13v-5.58h.88l.58,2.44-.34,3.26c1,.1,2.05.18,3.06.25l.35-3,1.24-.27,1.93.4-1.09,3,2.51.09.14-2.37.77.41s.42-.95.54-.81a6.91,6.91,0,0,0,.73.54L92.82,329l-.08.89c1.27,0,2.5,0,3.67,0l-.15-1.55s.4-1.9.56-1.63l.75,1.36.67-1.91.33-2.17s.6-.14.67.41a21.58,21.58,0,0,1-.27,2.72l-.09,2.7,1.19,0,.05-.75a14.85,14.85,0,0,1,.09-2.58c.16,0,1.49-.41,1.49-.41s.93,1.36,1.07,1.63,1.26-1.36,1.26-1.36a21.37,21.37,0,0,0-1.13,3.31l1-.08.3-1.6.09,1.57c2.47-.2,3.94-.39,3.94-.39l.3-42.77Z"/>
      </g>
    </mask>
    <linearGradient id="linear-gradient-5" x1="77.98" y1="329.93" x2="77.98" y2="286.36" xlink:href="#linear-gradient-4"/>
    <linearGradient id="linear-gradient-6" x1="28.8" y1="396.61" x2="48.76" y2="396.61" gradientUnits="userSpaceOnUse">
      <stop offset="0" stop-color="#5b3112"/>
      <stop offset="0.32" stop-color="#cc7e4a"/>
      <stop offset="0.68" stop-color="#91542a"/>
      <stop offset="0.85" stop-color="#75421e"/>
      <stop offset="1" stop-color="#5b3112"/>
    </linearGradient>
    <linearGradient id="linear-gradient-7" x1="16.23" y1="368.25" x2="61.33" y2="368.25" xlink:href="#linear-gradient-6"/>
    <linearGradient id="linear-gradient-8" x1="28.8" y1="355.98" x2="48.76" y2="355.98" xlink:href="#linear-gradient-6"/>
    <linearGradient id="linear-gradient-9" x1="0" y1="352.53" x2="77.56" y2="352.53" xlink:href="#linear-gradient-6"/>
    <linearGradient id="linear-gradient-10" x1="28.8" y1="325.01" x2="48.76" y2="325.01" xlink:href="#linear-gradient-6"/>
    <linearGradient id="linear-gradient-11" x1="28.8" y1="28.62" x2="48.76" y2="28.62" xlink:href="#linear-gradient-6"/>
    <linearGradient id="linear-gradient-12" x1="16.23" y1="56.98" x2="61.33" y2="56.98" xlink:href="#linear-gradient-6"/>
    <linearGradient id="linear-gradient-13" x1="28.8" y1="69.25" x2="48.76" y2="69.25" xlink:href="#linear-gradient-6"/>
    <linearGradient id="linear-gradient-14" x1="0" y1="72.71" x2="77.56" y2="72.71" xlink:href="#linear-gradient-6"/>
    <linearGradient id="linear-gradient-15" x1="28.8" y1="100.23" x2="48.76" y2="100.23" xlink:href="#linear-gradient-6"/>
    <linearGradient id="linear-gradient-16" x1="17.67" y1="213.44" x2="59.89" y2="213.44" gradientUnits="userSpaceOnUse">
      <stop offset="0" stop-color="#cc934e"/>
      <stop offset="0.25" stop-color="#e3ac66"/>
      <stop offset="0.5" stop-color="#f5c179"/>
      <stop offset="0.76" stop-color="#daa560"/>
      <stop offset="1" stop-color="#be8845"/>
    </linearGradient>
    <linearGradient id="linear-gradient-17" x1="11.81" y1="213.2" x2="65.75" y2="213.2" gradientUnits="userSpaceOnUse">
      <stop offset="0" stop-color="#e0aa68"/>
      <stop offset="0.19" stop-color="#e9b876"/>
      <stop offset="0.5" stop-color="#f6cd8a"/>
      <stop offset="0.72" stop-color="#dfb16e"/>
      <stop offset="1" stop-color="#be8845"/>
    </linearGradient>
    <linearGradient id="linear-gradient-18" x1="451.92" y1="396.61" x2="471.87" y2="396.61" gradientTransform="matrix(-1, 0, 0, 1, 578.89, 0)" xlink:href="#linear-gradient-6"/>
    <linearGradient id="linear-gradient-19" x1="439.35" y1="368.25" x2="484.45" y2="368.25" gradientTransform="matrix(-1, 0, 0, 1, 578.89, 0)" xlink:href="#linear-gradient-6"/>
    <linearGradient id="linear-gradient-20" x1="451.92" y1="355.98" x2="471.87" y2="355.98" gradientTransform="matrix(-1, 0, 0, 1, 578.89, 0)" xlink:href="#linear-gradient-6"/>
    <linearGradient id="linear-gradient-21" x1="423.12" y1="352.53" x2="500.68" y2="352.53" gradientTransform="matrix(-1, 0, 0, 1, 578.89, 0)" xlink:href="#linear-gradient-6"/>
    <linearGradient id="linear-gradient-22" x1="451.92" y1="325.01" x2="471.87" y2="325.01" gradientTransform="matrix(-1, 0, 0, 1, 578.89, 0)" xlink:href="#linear-gradient-6"/>
    <linearGradient id="linear-gradient-23" x1="451.92" y1="28.62" x2="471.87" y2="28.62" gradientTransform="matrix(-1, 0, 0, 1, 578.89, 0)" xlink:href="#linear-gradient-6"/>
    <linearGradient id="linear-gradient-24" x1="439.35" y1="56.98" x2="484.45" y2="56.98" gradientTransform="matrix(-1, 0, 0, 1, 578.89, 0)" xlink:href="#linear-gradient-6"/>
    <linearGradient id="linear-gradient-25" x1="451.92" y1="69.25" x2="471.87" y2="69.25" gradientTransform="matrix(-1, 0, 0, 1, 578.89, 0)" xlink:href="#linear-gradient-6"/>
    <linearGradient id="linear-gradient-26" x1="423.12" y1="72.71" x2="500.68" y2="72.71" gradientTransform="matrix(-1, 0, 0, 1, 578.89, 0)" xlink:href="#linear-gradient-6"/>
    <linearGradient id="linear-gradient-27" x1="451.92" y1="100.23" x2="471.87" y2="100.23" gradientTransform="matrix(-1, 0, 0, 1, 578.89, 0)" xlink:href="#linear-gradient-6"/>
    <linearGradient id="linear-gradient-28" x1="440.78" y1="213.44" x2="483.01" y2="213.44" gradientTransform="matrix(-1, 0, 0, 1, 578.89, 0)" xlink:href="#linear-gradient-16"/>
    <linearGradient id="linear-gradient-29" x1="434.92" y1="213.2" x2="488.87" y2="213.2" gradientTransform="matrix(-1, 0, 0, 1, 578.89, 0)" xlink:href="#linear-gradient-17"/>
  </defs>
  <title>Asset 5</title>
  <g id="Layer_2" data-name="Layer 2">
    <g id="Layer_1-2" data-name="Layer 1">
      <path class="cls-5" d="M107.87,96.51s-2.73-.22-6.38-.41l.19,4.13-1.2.86s-.16-3.67-.16-4.22c0-.09,0-.39,0-.82l-2-.09L98.28,97l.8.54-.69,2.68-1.49-.91-.31-3.41c-1.35,0-2.71-.06-4-.06l-.08,1L92,98.37l-.89-1.09s-.11-.64-.2-1.41c-1.55,0-3,.1-4.19.23l.84,3.08L85,97.82l0-1.46a6.68,6.68,0,0,0-.87.24,9.17,9.17,0,0,1-1.35.34c0,1.23,0,2.24,0,2.24a9.81,9.81,0,0,1-.65,2.31c-.44,1-.51-.81-.69-1.76A4.48,4.48,0,0,0,80.6,98l-.64.81-.36,2.72L78.78,98l0-.74c-1.54,0-3.25-.07-5-.17a16.37,16.37,0,0,0,.31,1.86,3.88,3.88,0,0,1,0,2.58,4.5,4.5,0,0,1-.69-1.36A5.29,5.29,0,0,0,71.65,98a4.37,4.37,0,0,1-.89-1.09c-1.8-.12-3.61-.23-5.35-.3.22,1.3.43,2.42.2,2.34A11.2,11.2,0,0,1,64,97.28v-.75c-1.12,0-2.2,0-3.2,0L60.6,98l-.92.68-.25-2c-.76.06-1.49.1-2.2.13,0,.35,0,.58,0,.58l.15,2.11-.15,2h-.32s-.26-2.85-.24-3.39c0-.17,0-.68,0-1.32l-1.78,0-.12,1.27s0-.55-.06-1.27h-2l-.14.85-.6.13s0,.55-.07,1.23-.58-.41-.84,0-.43,0-.72,0a1.52,1.52,0,0,1-1-1c0-.16-.07-.71-.13-1.36-1.32-.06-2.06-.14-2.06-.14l-1.07,3.63L45.4,327.68h5.54c.15-1.54.31-3.26.31-3.26l1.33,1.49,1.62.14-.41,1.61h2.9l-.18-7.18,1.11,2.32-.36,3.12s.16.76.35,1.75l1.65,0c.27-1.91.51-3.67.51-3.67L61,325l-.69,2.6,0,.09,1.88.06c.17-1.48.31-2.75.31-2.75h2.87s3.59-1.59,2.44,0c-1,1.34-1.59,1.94-1.82,2.92,1.26.08,2.59.17,4,.28h0l1.56-2.84.91.27s-.22,1.36-.42,2.75c1.35.12,2.76.27,4.22.44L76,326.59l.66-.13.83.27L77,327.88l.07,1.06,1.16.14c.21-2.53.37-5.34.37-5.34l.44,2.85v2.6l1.16.13v-5.58h.88l.58,2.44-.34,3.26c1,.1,2.05.18,3.06.25l.35-3,1.24-.27,1.93.4-1.09,3,2.51.09.14-2.37.77.41s.42-.95.54-.81a6.91,6.91,0,0,0,.73.54L90.82,329l-.08.89c1.27,0,2.5,0,3.67,0l-.15-1.55s.4-1.9.56-1.63l.75,1.36.67-1.91.33-2.17s.6-.14.67.41a21.58,21.58,0,0,1-.27,2.72l-.09,2.7,1.19,0,.05-.75a14.85,14.85,0,0,1,.09-2.58c.16,0,1.49-.41,1.49-.41s.93,1.36,1.07,1.63,1.26-1.36,1.26-1.36a21.37,21.37,0,0,0-1.13,3.31l1-.08.3-1.6.09,1.57c2.47-.2,3.94-.39,3.94-.39Z"/>
      <g class="cls-6">
        <path class="cls-7" d="M109.87,96.51s-2.73-.22-6.38-.41l.19,4.13-1.2.86s-.16-3.67-.16-4.22c0-.09,0-.39,0-.82l-2-.09L100.28,97l.8.54-.69,2.68-1.49-.91-.31-3.41c-1.35,0-2.71-.06-4-.06l-.08,1L94,98.37l-.89-1.09s-.11-.64-.2-1.41c-1.55,0-3,.1-4.19.23l.84,3.08L87,97.82l0-1.46a6.68,6.68,0,0,0-.87.24,9.17,9.17,0,0,1-1.35.34c0,1.23,0,2.24,0,2.24a9.81,9.81,0,0,1-.65,2.31c-.44,1-.51-.81-.69-1.76A4.48,4.48,0,0,0,82.6,98l-.64.81-.36,2.72L80.78,98l0-.74c-1.54,0-3.25-.07-5-.17a16.37,16.37,0,0,0,.31,1.86,3.88,3.88,0,0,1,0,2.58,4.5,4.5,0,0,1-.69-1.36A5.29,5.29,0,0,0,73.65,98a4.37,4.37,0,0,1-.89-1.09c-1.8-.12-3.61-.23-5.35-.3.22,1.3.43,2.42.2,2.34A11.2,11.2,0,0,1,66,97.28v-.75c-1.12,0-2.2,0-3.2,0L62.6,98l-.92.68-.25-2c-.76.06-1.49.1-2.2.13,0,.35,0,.58,0,.58l.15,2.11-.15,2h-.32s-.26-2.85-.24-3.39c0-.17,0-.68,0-1.32l-1.78,0-.12,1.27s0-.55-.06-1.27h-2l-.14.85-.6.13s0,.55-.07,1.23-.58-.41-.84,0-.43,0-.72,0a1.52,1.52,0,0,1-1-1c0-.16-.07-.71-.13-1.36-1.32-.06-2.06-.14-2.06-.14l-1.07,3.63-.11,37.51h61.65Z"/>
      </g>
      <g class="cls-8">
        <path class="cls-9" d="M47.52,286.36l-.12,41.32h5.54c.15-1.54.31-3.26.31-3.26l1.33,1.49,1.62.14-.41,1.61h2.9l-.18-7.18,1.11,2.32-.36,3.12s.16.76.35,1.75l1.65,0c.27-1.91.51-3.67.51-3.67L63,325l-.69,2.6,0,.09,1.88.06c.17-1.48.31-2.75.31-2.75h2.87s3.59-1.59,2.44,0c-1,1.34-1.59,1.94-1.82,2.92,1.26.08,2.59.17,4,.28h0l1.56-2.84.91.27s-.22,1.36-.42,2.75c1.35.12,2.76.27,4.22.44L78,326.59l.66-.13.83.27L79,327.88l.07,1.06,1.16.14c.21-2.53.37-5.34.37-5.34l.44,2.85v2.6l1.16.13v-5.58h.88l.58,2.44-.34,3.26c1,.1,2.05.18,3.06.25l.35-3,1.24-.27,1.93.4-1.09,3,2.51.09.14-2.37.77.41s.42-.95.54-.81a6.91,6.91,0,0,0,.73.54L92.82,329l-.08.89c1.27,0,2.5,0,3.67,0l-.15-1.55s.4-1.9.56-1.63l.75,1.36.67-1.91.33-2.17s.6-.14.67.41a21.58,21.58,0,0,1-.27,2.72l-.09,2.7,1.19,0,.05-.75a14.85,14.85,0,0,1,.09-2.58c.16,0,1.49-.41,1.49-.41s.93,1.36,1.07,1.63,1.26-1.36,1.26-1.36a21.37,21.37,0,0,0-1.13,3.31l1-.08.3-1.6.09,1.57c2.47-.2,3.94-.39,3.94-.39l.3-42.77Z"/>
      </g>
      <g>
        <path class="cls-10" d="M48.76,368v55c0,1.22-4.47,2.21-10,2.21s-10-1-10-2.21V368Z"/>
        <path class="cls-11" d="M16.23,363.27v5c0,2.76,10.1,5,22.55,5s22.55-2.23,22.55-5v-5Z"/>
        <ellipse class="cls-12" cx="38.78" cy="363.27" rx="22.55" ry="3.27"/>
        <path class="cls-13" d="M28.8,347.86v14c0,1.22,4.47,2.21,10,2.21s10-1,10-2.21v-14Z"/>
        <path class="cls-14" d="M0,344v8.58c0,4.74,17.36,8.58,38.78,8.58s38.78-3.84,38.78-8.58V344Z"/>
        <ellipse class="cls-12" cx="38.78" cy="343.95" rx="38.78" ry="2.16"/>
        <path class="cls-15" d="M48.76,305.76v37.75c0,.41-4.47.74-10,.74s-10-.33-10-.74V305.76Z"/>
      </g>
      <g>
        <path class="cls-16" d="M48.76,57.25v-55C48.76,1,44.29,0,38.78,0s-10,1-10,2.21v55Z"/>
        <path class="cls-17" d="M16.23,62V57c0-2.75,10.1-5,22.55-5s22.55,2.24,22.55,5v5Z"/>
        <ellipse class="cls-18" cx="38.78" cy="61.97" rx="22.55" ry="3.27"/>
        <path class="cls-19" d="M28.8,77.38v-14c0-1.22,4.47-2.21,10-2.21s10,1,10,2.21v14Z"/>
        <path class="cls-20" d="M0,81.29V72.71C0,68,17.36,64.13,38.78,64.13S77.56,68,77.56,72.71v8.58Z"/>
        <ellipse class="cls-18" cx="38.78" cy="81.29" rx="38.78" ry="2.16"/>
        <path class="cls-21" d="M48.76,119.48V81.72c0-.41-4.47-.74-10-.74s-10,.33-10,.74v37.76Z"/>
      </g>
      <path class="cls-22" d="M59.89,338.34c-1.21.44-2.43.83-3.64,1.17l-3.42-.26a23,23,0,0,0-3-.93,4.83,4.83,0,0,0-1.83.87l-2.22,2.29c-1,.11-2.06.18-3.07.23L41.62,339l-3.44.71-1.75,2c-2.32-.1-4.49-.31-6.49-.58,1.79-.79,3.87-1.73,3.91-1.82s-5.68.25-5.68.25l-2.67-1L22.87,338l-.77,1.65a44.19,44.19,0,0,1-4.43-1.31c6.08-130.94,0-250.64,0-250.64s.76-.24,2.18-.58c.3.61.62,1.24.62,1.24s2.21.77,2.33.79,4.1-1.25,4.1-1.25-.12-1-.39-1A2.67,2.67,0,0,1,25.9,86c1.67-.23,3.57-.45,5.67-.6l-.19,1.31,1.08-1.37,1.92-.1.95,1.61,1.39.82L39,86.3l-2.12-.61v-.53c2.22,0,4.6,0,7.12.19l.14.43v2l4.05,0L51,86.05c2.84.4,5.8.93,8.86,1.65C56.11,230.85,59.89,338.34,59.89,338.34Z"/>
      <path class="cls-23" d="M65.75,333.66c-1.76.39-3.58.72-5.44,1l-1.77-1.53L57.32,335c-1.55.17-3.12.32-4.69.43l1-1.9-8.41-1.87,2.69,1.74v2.29c-1.48,0-3,.08-4.43.1L42.36,334l-1.57,1.81c-1.91,0-3.78-.05-5.59-.11l.87-2.73-2.77.32-2.37.07a13,13,0,0,1,.5,2.17c-2.54-.13-4.93-.3-7.12-.48l1.86-1.41-4.75.29-1.15-1.47-2-.52-1.16,1.35H14.36L14,334l-2.18-.31C19.58,207.4,11.81,92,11.81,92c2.69-.43,5.64-.74,8.74-1l3.38.89,1.67,1.86,1.09-2.08L29,91.39l.58-.77c2.25-.05,4.51-.06,6.74-.05l-.83,1.2,2.78-1.18,1.52,0,2.31,2,3.09.51,1-1.54v-.79l4.25.17.25.68,1.41,3,4.11-.9,3,.13L55.59,92l1.29-.72c5.39.33,8.87.66,8.87.66C60.92,230,65.75,333.66,65.75,333.66Z"/>
      <path class="cls-24" d="M107,368v55c0,1.22,4.47,2.21,10,2.21s10-1,10-2.21V368Z"/>
      <path class="cls-25" d="M139.55,363.27v5c0,2.76-10.1,5-22.55,5s-22.55-2.23-22.55-5v-5Z"/>
      <ellipse class="cls-12" cx="117" cy="363.27" rx="22.55" ry="3.27"/>
      <path class="cls-26" d="M127,347.86v14c0,1.22-4.47,2.21-10,2.21s-10-1-10-2.21v-14Z"/>
      <path class="cls-27" d="M155.78,344v8.58c0,4.74-17.36,8.58-38.78,8.58s-38.78-3.84-38.78-8.58V344Z"/>
      <ellipse class="cls-12" cx="117" cy="343.95" rx="38.78" ry="2.16"/>
      <path class="cls-28" d="M107,305.76v37.75c0,.41,4.47.74,10,.74s10-.33,10-.74V305.76Z"/>
      <g>
        <path class="cls-29" d="M107,57.25v-55C107,1,111.49,0,117,0s10,1,10,2.21v55Z"/>
        <path class="cls-30" d="M139.55,62V57c0-2.75-10.1-5-22.55-5s-22.55,2.24-22.55,5v5Z"/>
        <ellipse class="cls-18" cx="117" cy="61.97" rx="22.55" ry="3.27"/>
        <path class="cls-31" d="M127,77.38v-14c0-1.22-4.47-2.21-10-2.21s-10,1-10,2.21v14Z"/>
        <path class="cls-32" d="M155.78,81.29V72.71c0-4.74-17.36-8.58-38.78-8.58S78.22,68,78.22,72.71v8.58Z"/>
        <ellipse class="cls-18" cx="117" cy="81.29" rx="38.78" ry="2.16"/>
        <path class="cls-33" d="M107,119.48V81.72c0-.41,4.47-.74,10-.74s10,.33,10,.74v37.76Z"/>
      </g>
      <path class="cls-34" d="M95.89,338.34c1.21.44,2.43.83,3.64,1.17l3.42-.26a23,23,0,0,1,3-.93,4.83,4.83,0,0,1,1.83.87l2.22,2.29c1,.11,2.06.18,3.07.23l1.07-2.72,3.43.71,1.76,2c2.32-.1,4.49-.31,6.49-.58-1.79-.79-3.87-1.73-3.91-1.82s5.68.25,5.68.25l2.67-1,2.63-.61.77,1.65a44.19,44.19,0,0,0,4.43-1.31c-6.09-130.94,0-250.64,0-250.64s-.76-.24-2.18-.58l-.62,1.24s-2.21.77-2.33.79-4.1-1.25-4.1-1.25.12-1,.39-1a2.67,2.67,0,0,0,.61-.93c-1.67-.23-3.57-.45-5.67-.6l.19,1.31-1.08-1.37-1.92-.1-1,1.61-1.39.82-2.32-1.36,2.12-.61v-.53c-2.22,0-4.6,0-7.12.19l-.14.43v2l-4,0-2.79-1.81c-2.84.4-5.8.93-8.86,1.65C99.67,230.85,95.89,338.34,95.89,338.34Z"/>
      <path class="cls-35" d="M90,333.66c1.76.39,3.58.72,5.44,1l1.77-1.53L98.46,335c1.55.17,3.12.32,4.69.43l-1-1.9,8.41-1.87-2.69,1.74v2.29c1.48,0,3,.08,4.43.1l1.09-1.81,1.57,1.81c1.91,0,3.77-.05,5.59-.11l-.87-2.73,2.76.32,2.38.07a13,13,0,0,0-.5,2.17c2.54-.13,4.93-.3,7.12-.48l-1.87-1.41,4.76.29,1.15-1.47,2-.52,1.16,1.35h2.76l.37.66,2.18-.31C136.2,207.4,144,92,144,92c-2.69-.43-5.64-.74-8.74-1l-3.38.89-1.67,1.86-1.09-2.08-2.31-.29-.58-.77c-2.25-.05-4.51-.06-6.74-.05l.83,1.2-2.79-1.18-1.52,0-2.3,2-3.09.51-1-1.54v-.79l-4.25.17-.25.68-1.41,3-4.11-.9-3,.13L100.19,92l-1.29-.72C93.51,91.64,90,92,90,92,94.85,230,90,333.66,90,333.66Z"/>
    </g>
  </g>
</svg>
