<svg xmlns="http://www.w3.org/2000/svg" xmlns:xlink="http://www.w3.org/1999/xlink" viewBox="0 0 205.2 415.71">
  <defs>
    <style>
      .cls-1, .cls-13 {
        fill: #fff;
      }

      .cls-1 {
        opacity: 0.58;
      }

      .cls-2, .cls-3 {
        stroke-linecap: round;
        stroke-linejoin: round;
        stroke-width: 0.85px;
      }

      .cls-2 {
        fill: url(#radial-gradient);
        stroke: url(#radial-gradient-2);
      }

      .cls-3 {
        fill: url(#radial-gradient-3);
        stroke: url(#radial-gradient-4);
      }

      .cls-4 {
        fill: url(#radial-gradient-5);
      }

      .cls-5 {
        fill: url(#radial-gradient-6);
      }

      .cls-6 {
        fill: url(#radial-gradient-7);
      }

      .cls-7 {
        fill: url(#radial-gradient-8);
      }

      .cls-8 {
        opacity: 0.65;
        fill: url(#radial-gradient-9);
      }

      .cls-10, .cls-11, .cls-12, .cls-13, .cls-8, .cls-9 {
        isolation: isolate;
      }

      .cls-9 {
        opacity: 0.97;
        fill: url(#radial-gradient-10);
      }

      .cls-10 {
        opacity: 0.42;
        fill: url(#radial-gradient-11);
      }

      .cls-11, .cls-12 {
        opacity: 0.53;
      }

      .cls-11 {
        fill: url(#radial-gradient-12);
      }

      .cls-12 {
        fill: url(#radial-gradient-13);
      }

      .cls-13 {
        opacity: 0.27;
      }
    </style>
    <radialGradient id="radial-gradient" cx="295.78" cy="625.11" r="78.43" gradientTransform="translate(-185.46 -235.17)" gradientUnits="userSpaceOnUse">
      <stop offset="0" stop-color="#bcbaba"/>
      <stop offset="0.42" stop-color="#b8bab8"/>
      <stop offset="0.68" stop-color="#656567"/>
      <stop offset="1" stop-color="#b2b2b2"/>
    </radialGradient>
    <radialGradient id="radial-gradient-2" cx="295.77" cy="625.42" r="78.71" gradientTransform="translate(-185.46 -235.17)" gradientUnits="userSpaceOnUse">
      <stop offset="0" stop-color="#bcbaba"/>
      <stop offset="0.53" stop-color="#b8bab8"/>
      <stop offset="0.81" stop-color="#656567"/>
      <stop offset="1" stop-color="#b2b2b2"/>
    </radialGradient>
    <radialGradient id="radial-gradient-3" cx="294.7" cy="-1602.28" r="78.43" gradientTransform="matrix(1, 0, 0, -1, -185.46, -1387.26)" gradientUnits="userSpaceOnUse">
      <stop offset="0" stop-color="#bcbaba" stop-opacity="0"/>
      <stop offset="0.22" stop-color="#b8bab8" stop-opacity="0"/>
      <stop offset="0.72" stop-color="#676563"/>
      <stop offset="1" stop-color="#b2b2b2" stop-opacity="0"/>
    </radialGradient>
    <radialGradient id="radial-gradient-4" cx="294.69" cy="-1601.97" r="78.71" gradientTransform="matrix(1, 0, 0, -1, -185.46, -1387.26)" gradientUnits="userSpaceOnUse">
      <stop offset="0" stop-color="#bcbaba"/>
      <stop offset="0.42" stop-color="#b8bab8"/>
      <stop offset="0.93" stop-color="#656567"/>
      <stop offset="1" stop-color="#b2b2b2"/>
    </radialGradient>
    <radialGradient id="radial-gradient-5" cx="285.04" cy="-1863.3" r="78.28" gradientTransform="matrix(0.94, 0, 0, -0.94, -156.73, -1350.18)" gradientUnits="userSpaceOnUse">
      <stop offset="0" stop-color="#dfdfe1"/>
      <stop offset="0.53" stop-color="#d4d2d4"/>
      <stop offset="0.81" stop-color="#656567"/>
      <stop offset="1" stop-color="#d4d2d0"/>
    </radialGradient>
    <radialGradient id="radial-gradient-6" cx="-144.77" cy="-1035.47" r="26.27" gradientTransform="matrix(2.12, -0.06, -0.07, -2.29, 348.66, -2081.83)" gradientUnits="userSpaceOnUse">
      <stop offset="0" stop-color="#ff0d1d"/>
      <stop offset="0.47" stop-color="#d40000" stop-opacity="0.84"/>
      <stop offset="0.68" stop-color="#d40000" stop-opacity="0.6"/>
      <stop offset="1" stop-color="#d40000" stop-opacity="0.06"/>
    </radialGradient>
    <radialGradient id="radial-gradient-7" cx="-110.21" cy="-1030.81" r="28.07" gradientTransform="matrix(1.24, 0, 0, -1.22, 249.2, -956.5)" gradientUnits="userSpaceOnUse">
      <stop offset="0" stop-color="#ffa74d" stop-opacity="0.75"/>
      <stop offset="0.28" stop-color="#ff270f"/>
      <stop offset="1" stop-color="red" stop-opacity="0"/>
    </radialGradient>
    <radialGradient id="radial-gradient-8" cx="-94.14" cy="-1255.88" r="4.68" gradientTransform="matrix(1, 0, 0, -1, 206.98, -953.4)" gradientUnits="userSpaceOnUse">
      <stop offset="0" stop-color="#ff0"/>
      <stop offset="1" stop-color="orange" stop-opacity="0"/>
    </radialGradient>
    <radialGradient id="radial-gradient-9" cx="269.25" cy="1967.09" r="54.89" gradientTransform="matrix(-1.42, 0.02, 0.01, 0.59, 466.45, -895.85)" gradientUnits="userSpaceOnUse">
      <stop offset="0" stop-color="#e4e2e2"/>
      <stop offset="1" stop-color="#ddd9dc" stop-opacity="0.16"/>
    </radialGradient>
    <radialGradient id="radial-gradient-10" cx="213.62" cy="909.57" r="54.89" gradientTransform="matrix(-2.53, 0.05, 0.03, 1.27, 629.16, -914.64)" xlink:href="#radial-gradient-9"/>
    <radialGradient id="radial-gradient-11" cx="416.71" cy="5961.91" r="54.89" gradientTransform="matrix(-0.7, 0.01, 0.01, 0.19, 359.88, -887.61)" xlink:href="#radial-gradient-9"/>
    <radialGradient id="radial-gradient-12" cx="368.51" cy="3859.36" r="54.89" gradientTransform="matrix(-0.8, 0.01, 0.01, 0.3, 375.74, -872.1)" xlink:href="#radial-gradient-9"/>
    <radialGradient id="radial-gradient-13" cx="511.12" cy="7475.88" r="54.89" gradientTransform="matrix(-0.51, 0.01, 0.01, 0.15, 333.08, -857.77)" xlink:href="#radial-gradient-9"/>
  </defs>
  <title>Asset 11</title>
  <g id="Layer_2" data-name="Layer 2">
    <g id="Layer_1-2" data-name="Layer 1">
      <path class="cls-1" d="M11.83,121a5.92,5.92,0,1,1-5.92-5.92A5.92,5.92,0,0,1,11.83,121Z"/>
      <g>
        <rect id="rect4467" x="20.48" width="184.72" height="415.71"/>
        <g id="g4469">
          <g id="g4074">
            <path id="path2996" class="cls-2" d="M191.12,302.48a78.29,78.29,0,1,0-78.28,78.29A78.28,78.28,0,0,0,191.12,302.48Z"/>
            <path id="path2996-0" class="cls-3" d="M191.12,302.48a78.29,78.29,0,1,1-78.28-78.29A78.28,78.28,0,0,1,191.12,302.48Z"/>
            <path id="path2996-5" class="cls-4" d="M186.08,302.48a73.25,73.25,0,1,1-73.24-73.25A73.24,73.24,0,0,1,186.08,302.48Z"/>
            <path id="path2996-6" d="M177.63,302.48a64.79,64.79,0,1,1-64.79-64.79A64.79,64.79,0,0,1,177.63,302.48Z"/>
            <path id="path4038" class="cls-5" d="M166.65,302.48c0,30.31-24.09,54.89-53.81,54.89S59,332.79,59,302.48s24.09-54.89,53.81-54.89c29.46,0,53.44,24.17,53.8,54.22"/>
            <path id="path4052" class="cls-6" d="M147.57,302.48a34.09,34.09,0,1,1,0-.42"/>
            <path id="path4064" class="cls-7" d="M117.52,302.48a4.65,4.65,0,1,1,0-.06"/>
          </g>
          <path id="path2996-52-9-3" class="cls-8" d="M112.22,263.69a35,35,0,0,0-13.85,2.79c1.54.95,3,2,4.45,3a36.56,36.56,0,0,1,17.64-.29,56.17,56.17,0,0,1,4.8-3.09,35.23,35.23,0,0,0-13-2.45Zm21.4,7.42c-1.38.54-2.72,1.12-4,1.74a27.63,27.63,0,0,1,6.92,5.7c.89-.28,1.79-.53,2.7-.77a24.72,24.72,0,0,0-5.59-6.67Zm-43.11.27a24.32,24.32,0,0,0-5.76,7.3c.81.26,1.61.53,2.4.82a27,27,0,0,1,7.17-6.33c-1.24-.64-2.51-1.23-3.81-1.79ZM141.91,288l-.47.11a19,19,0,0,1,.33,2,20.76,20.76,0,0,0,.14-2.11Zm-59.34.89c0,.41.06.81.1,1.22,0-.39.1-.77.17-1.15Z"/>
          <path id="path2996-52-9" class="cls-9" d="M112.83,247a52.84,52.84,0,0,0-24.6,6q4.13,3.09,7.92,6.58a53.61,53.61,0,0,1,31.32-.64,104.05,104.05,0,0,1,8.53-6.68,53,53,0,0,0-23.17-5.3Zm38,16.05c-2.45,1.17-4.83,2.42-7.16,3.77a52.11,52.11,0,0,1,21.64,37.42c.16-1.64.24-3.29.24-5A51.88,51.88,0,0,0,150.85,263Zm-76.58.59a51.83,51.83,0,0,0-14.16,35.63c0,1.68.08,3.33.23,5A52.08,52.08,0,0,1,81,267.46c-2.2-1.38-4.46-2.66-6.77-3.87Z"/>
          <path id="path2996-52-89-4" class="cls-10" d="M111.85,272.41c-8,0-14.58,3.57-14.58,8a3.91,3.91,0,0,0,.07.76c.69-4.06,6.92-7.23,14.51-7.23s13.81,3.17,14.51,7.23a4.87,4.87,0,0,0,.06-.76c0-4.42-6.52-8-14.57-8Z"/>
        </g>
        <path id="path2996-52-9-7" class="cls-11" d="M112.12,276.43a15,15,0,0,0-6.46,1.05,10.2,10.2,0,0,0,1.17,1.89,22.82,22.82,0,0,1,9.94-.14,15.38,15.38,0,0,0,1.1-2,13.51,13.51,0,0,0-5.75-.79Zm12.07,3.75a5.1,5.1,0,0,0-1.37,1.42c3.8,2,5.5,4.6,6,8.2a9.08,9.08,0,0,0,.07-1.17,10.73,10.73,0,0,0-4.67-8.45Zm-24.31.13a10.69,10.69,0,0,0-4.49,8.32,9.08,9.08,0,0,0,.07,1.17c.46-3.5,2.3-5.58,5.94-7.59a12.66,12.66,0,0,0-1.52-1.9Z"/>
        <path id="path2996-52-9-7-0" class="cls-12" d="M112.12,283.65a11.55,11.55,0,0,0-4.1.54,5,5,0,0,0,.74,1,17.67,17.67,0,0,1,6.31-.07,7,7,0,0,0,.7-1,10.34,10.34,0,0,0-3.65-.41Zm7.67,1.92a3.32,3.32,0,0,0-.88.73c2.42,1,3.5,2.37,3.79,4.21a2.88,2.88,0,0,0,0-.59c0-1.69-1.13-3.22-3-4.35Zm-15.44.07c-1.77,1.12-2.85,2.63-2.85,4.28a3.81,3.81,0,0,0,0,.59c.29-1.79,1.46-2.86,3.78-3.89a8.18,8.18,0,0,0-1-1Z"/>
        <path id="path4580" class="cls-13" d="M112.53,252.71c6.52,8.19,1.64,22.92-10.9,32.9s-28,11.42-34.51,3.23-1.64-22.93,10.9-32.9,28-11.43,34.51-3.23Z"/>
      </g>
    </g>
  </g>
</svg>
