<svg xmlns="http://www.w3.org/2000/svg" viewBox="0 0 67.18 435">
  <defs>
    <style>
      .cls-1 {
        fill: #fdbe40;
      }

      .cls-2 {
        fill: #dd9138;
      }

      .cls-3 {
        fill: #2d99d5;
      }

      .cls-4 {
        fill: #228db2;
      }

      .cls-5 {
        fill: #8dd7f7;
      }

      .cls-6 {
        fill: #7fcae5;
      }

      .cls-7 {
        fill: #fff;
        opacity: 0.86;
      }
    </style>
  </defs>
  <title>Asset 9</title>
  <g id="Layer_2" data-name="Layer 2">
    <g id="Layer_1-2" data-name="Layer 1">
      <rect class="cls-1" x="26.1" y="145.35" width="14.99" height="220.44"/>
      <path class="cls-2" d="M41.09,366.43h-15a.64.64,0,0,1-.64-.63V145.35a.64.64,0,0,1,.64-.63h15a.63.63,0,0,1,.63.63V365.8A.63.63,0,0,1,41.09,366.43Zm-14.36-1.27H40.45V146H26.73Z"/>
      <rect class="cls-2" x="23.74" y="365.79" width="19.71" height="4.58"/>
      <path class="cls-2" d="M43.45,371H23.74a.64.64,0,0,1-.64-.64V365.8a.64.64,0,0,1,.64-.64H43.45a.63.63,0,0,1,.63.64v4.57A.64.64,0,0,1,43.45,371Zm-19.08-1.27H42.81v-3.31H24.37Z"/>
      <polygon class="cls-1" points="41.09 404.17 41.09 370.37 33.59 370.37 26.1 370.37 26.1 404.17 19.99 413.54 33.59 413.54 47.2 413.54 41.09 404.17"/>
      <path class="cls-2" d="M47.2,414.18H20a.65.65,0,0,1-.56-.33.63.63,0,0,1,0-.65l6-9.22V370.37a.64.64,0,0,1,.64-.63h15a.63.63,0,0,1,.63.63V404l6,9.22a.61.61,0,0,1,0,.65A.63.63,0,0,1,47.2,414.18Zm-26-1.27H46l-5.46-8.39a.61.61,0,0,1-.11-.35V371H26.73v33.16a.6.6,0,0,1-.1.35Z"/>
      <polygon class="cls-2" points="33.59 413.54 19.99 413.54 23.91 419.06 33.59 419.06 43.27 419.06 47.2 413.54 33.59 413.54"/>
      <path class="cls-2" d="M43.27,419.7H23.91a.63.63,0,0,1-.52-.27l-3.92-5.52a.65.65,0,0,1,0-.66.64.64,0,0,1,.57-.34H47.2a.64.64,0,0,1,.56.34.63.63,0,0,1,0,.66l-3.92,5.52A.63.63,0,0,1,43.27,419.7Zm-19-1.27H43l3-4.25H21.22Z"/>
      <polygon class="cls-1" points="43.27 419.06 33.59 419.06 23.91 419.06 21.83 427.39 26.2 434.37 33.59 434.37 40.98 434.37 45.36 427.39 43.27 419.06"/>
      <path class="cls-2" d="M41,435H26.2a.63.63,0,0,1-.54-.3l-4.37-7a.66.66,0,0,1-.08-.49l2.08-8.33a.63.63,0,0,1,.62-.48H43.27a.62.62,0,0,1,.62.48L46,427.24a.61.61,0,0,1-.07.49l-4.38,7A.62.62,0,0,1,41,435Zm-14.43-1.27H40.63l4-6.45-1.9-7.58H24.41l-1.9,7.58Z"/>
      <g>
        <rect class="cls-2" x="22.83" y="140.49" width="21.52" height="4.86"/>
        <path class="cls-2" d="M44.35,146H22.83a.64.64,0,0,1-.63-.64v-4.86a.63.63,0,0,1,.63-.63H44.35a.64.64,0,0,1,.64.63v4.86A.64.64,0,0,1,44.35,146Zm-20.88-1.27H43.71v-3.59H23.47Z"/>
      </g>
      <path class="cls-3" d="M27.76,47.49a35.75,35.75,0,0,1-3.77,0A8.28,8.28,0,0,1,16.93,36L20,28.75c8-18.21-2-25.34-9.14-28a1.21,1.21,0,0,0-1.3,2c10.08,10.94-4,30.22-4,30.22C-6.94,49,8.33,55.4,8.33,55.4c18.32,7.77,14.54,22.9,14.54,22.9h4.89S31.72,67.06,27.76,47.49Z"/>
      <path class="cls-4" d="M27.76,78.94H22.87a.64.64,0,0,1-.5-.24.68.68,0,0,1-.12-.55c.15-.6,3.41-14.71-14.17-22.17-.25-.1-6.15-2.63-7.71-8.55C-.79,43,.79,38,5.05,32.52c.13-.17,13.64-19,4-29.4A1.83,1.83,0,0,1,8.91.81,1.8,1.8,0,0,1,11.07.12C14.91,1.57,20,4.45,22.29,10c2.15,5.1,1.57,11.51-1.72,19l-3.05,7.23A7.63,7.63,0,0,0,24,46.82a32.18,32.18,0,0,0,3.7,0,.61.61,0,0,1,.64.51c3.95,19.52.15,30.69,0,31.16A.64.64,0,0,1,27.76,78.94Zm-4.12-1.27h3.65c.64-2.19,3.24-12.77-.05-29.53-1.16,0-2.27,0-3.29,0a8.9,8.9,0,0,1-7.6-12.35l3-7.24c3.15-7.2,3.73-13.27,1.72-18-2.15-5.1-6.9-7.79-10.5-9.15a.53.53,0,0,0-.66.21.57.57,0,0,0,.06.74c4.29,4.66,5,11.53,1.91,19.86A50.13,50.13,0,0,1,6.06,33.29c-4,5.17-5.51,9.82-4.47,13.81,1.4,5.31,6.93,7.69,7,7.71,9.7,4.12,13.25,10.31,14.51,14.78A19.5,19.5,0,0,1,23.64,77.67Z"/>
      <polygon class="cls-1" points="49.42 84.76 33.59 84.76 17.77 84.76 27.35 121.82 24.01 131.82 26.1 140.49 33.59 140.49 41.09 140.49 43.17 131.82 39.84 121.82 49.42 84.76"/>
      <path class="cls-2" d="M41.09,141.13h-15a.63.63,0,0,1-.62-.49L23.4,132a.59.59,0,0,1,0-.35l3.27-9.82L17.15,84.92a.61.61,0,0,1,.12-.55.64.64,0,0,1,.5-.25H49.42a.66.66,0,0,1,.5.25.64.64,0,0,1,.11.55L40.5,121.8l3.27,9.82a.59.59,0,0,1,0,.35l-2.08,8.67A.64.64,0,0,1,41.09,141.13ZM26.6,139.86h14l1.92-8L39.24,122a.63.63,0,0,1,0-.36L48.6,85.39h-30L28,121.66a.63.63,0,0,1,0,.36l-3.28,9.83Z"/>
      <polygon class="cls-2" points="44.32 78.31 33.59 78.31 22.87 78.31 17.77 84.76 33.59 84.76 49.42 84.76 44.32 78.31"/>
      <path class="cls-2" d="M49.42,85.39H17.77A.61.61,0,0,1,17.2,85a.63.63,0,0,1,.07-.67l5.1-6.46a.64.64,0,0,1,.5-.24H44.32a.63.63,0,0,1,.49.24l5.11,6.46a.63.63,0,0,1-.5,1ZM19.08,84.12h29L44,78.94H23.18Z"/>
      <path class="cls-1" d="M33.59,23.13C21.93,24.37,20,35.83,20,35.83c11.8-1.81,7.77,11.66,7.77,11.66,4,19.57,0,30.81,0,30.81H39.42s-4-11.24,0-30.81c0,0-4-13.47,7.78-11.66C47.2,35.83,45.25,24.37,33.59,23.13Z"/>
      <path class="cls-2" d="M39.42,78.94H27.76a.64.64,0,0,1-.52-.27.66.66,0,0,1-.08-.58c0-.11,3.85-11.33,0-30.48a.61.61,0,0,1,0-.3c0-.07,1.85-6.35-.78-9.37C25.12,36.51,23,36,20.08,36.46a.61.61,0,0,1-.54-.19.62.62,0,0,1-.18-.55c0-.12,2.16-11.94,14.16-13.23h.14c12,1.29,14.14,13.11,14.16,13.23a.62.62,0,0,1-.17.55.63.63,0,0,1-.55.19c-2.92-.45-5,0-6.28,1.48-2.64,3-.81,9.3-.79,9.37a.61.61,0,0,1,0,.3C36.18,66.76,40,78,40,78.09a.64.64,0,0,1-.6.85Zm-10.8-1.27h9.94c-.83-3-3.13-13.51.21-30.16-.3-1.07-1.78-7.1,1.09-10.4,1.41-1.62,3.6-2.3,6.52-2-.69-2.61-3.5-10.29-12.79-11.33-9.17,1-12.06,8.73-12.77,11.32,2.91-.27,5.1.41,6.51,2,2.87,3.3,1.38,9.33,1.09,10.4C31.75,64.16,29.45,74.7,28.62,77.67Z"/>
      <path class="cls-3" d="M39.42,47.49a35.72,35.72,0,0,0,3.77,0A8.27,8.27,0,0,0,50.25,36l-3-7.23c-8-18.21,2-25.34,9.14-28a1.21,1.21,0,0,1,1.29,2c-10.07,10.94,4,30.22,4,30.22C74.13,49,58.86,55.4,58.86,55.4,40.53,63.17,44.32,78.3,44.32,78.3h-4.9S35.47,67.06,39.42,47.49Z"/>
      <path class="cls-4" d="M44.32,78.94h-4.9a.64.64,0,0,1-.6-.42c-.16-.47-4-11.64,0-31.16a.62.62,0,0,1,.65-.51,32.2,32.2,0,0,0,3.7,0,7.63,7.63,0,0,0,6.52-10.59L46.61,29c-3.29-7.51-3.87-13.92-1.71-19,2.32-5.52,7.38-8.4,11.21-9.85a1.81,1.81,0,0,1,2.17.69,1.84,1.84,0,0,1-.18,2.31c-9.6,10.43,3.91,29.23,4,29.42C66.4,38,68,43,66.82,47.43c-1.56,5.92-7.47,8.45-7.72,8.56-7.41,3.14-12,7.84-13.77,13.95a17.54,17.54,0,0,0-.4,8.21.64.64,0,0,1-.11.55A.65.65,0,0,1,44.32,78.94Zm-4.43-1.27h3.67c-.47-3.28-1.15-16,15-22.85.06,0,5.59-2.41,7-7.72,1-4-.45-8.64-4.46-13.8a49.68,49.68,0,0,1-5.87-11.18c-3-8.33-2.39-15.2,1.9-19.86a.57.57,0,0,0,.06-.74.53.53,0,0,0-.66-.21C53,2.67,48.21,5.36,46.07,10.46c-2,4.77-1.44,10.84,1.71,18l3.06,7.25a8.9,8.9,0,0,1-7.61,12.35c-1,.07-2.12.08-3.29,0C36.64,64.93,39.25,75.48,39.89,77.67Z"/>
      <path class="cls-5" d="M37,31.56a3.44,3.44,0,1,1-3.44-3.44A3.43,3.43,0,0,1,37,31.56Z"/>
      <path class="cls-6" d="M33.59,35.63a4.07,4.07,0,1,1,4.07-4.07A4.08,4.08,0,0,1,33.59,35.63Zm0-6.87a2.8,2.8,0,1,0,2.8,2.8A2.8,2.8,0,0,0,33.59,28.76Z"/>
      <path class="cls-5" d="M37,102c0,5.12-1.54,9.27-3.44,9.27s-3.43-4.15-3.43-9.27,1.53-9.28,3.43-9.28S37,96.82,37,102Z"/>
      <path class="cls-6" d="M33.59,111.86c-2.64,0-4.07-5.11-4.07-9.91S31,92,33.59,92s4.07,5.1,4.07,9.91S36.24,111.86,33.59,111.86Zm0-18.55c-1.17,0-2.8,3.28-2.8,8.64s1.63,8.63,2.8,8.63,2.8-3.28,2.8-8.63S34.76,93.31,33.59,93.31Z"/>
      <path class="cls-7" d="M30.56,362.38a.85.85,0,0,1-.85-.85l-.4-213.75a.85.85,0,0,1,.85-.85h0a.85.85,0,0,1,.84.85l.4,213.75a.84.84,0,0,1-.84.85Z"/>
      <path class="cls-7" d="M25.74,369.15a.42.42,0,0,1-.42-.42v-1.38a.42.42,0,0,1,.42-.42.42.42,0,0,1,.42.42v1.38A.42.42,0,0,1,25.74,369.15Z"/>
      <path class="cls-7" d="M24.49,411.69a.45.45,0,0,1-.25-.07.42.42,0,0,1-.1-.59l4.16-6V373.16a.42.42,0,0,1,.84,0v32a.4.4,0,0,1-.07.24l-4.24,6.07A.41.41,0,0,1,24.49,411.69Z"/>
      <path class="cls-7" d="M25.26,417.8a.45.45,0,0,1-.38-.23l-1.23-2.47a.42.42,0,0,1,.76-.38l1.23,2.47a.42.42,0,0,1-.19.57A.41.41,0,0,1,25.26,417.8Z"/>
      <path class="cls-7" d="M27.42,433.15a.43.43,0,0,1-.38-.22l-3.21-6a.42.42,0,0,1,0-.29l1.31-5.84a.42.42,0,0,1,.82.18l-1.27,5.69,3.14,5.88a.42.42,0,0,1-.18.57A.34.34,0,0,1,27.42,433.15Z"/>
      <path class="cls-7" d="M24.66,144.21a.42.42,0,0,1-.42-.42V142a.43.43,0,0,1,.85,0v1.84A.42.42,0,0,1,24.66,144.21Z"/>
      <path class="cls-7" d="M28.3,138.25a.44.44,0,0,1-.42-.34l-1.41-6.49a.45.45,0,0,1,0-.23l3.23-9.34-8.61-34.6a.42.42,0,1,1,.82-.21l8.64,34.73a.49.49,0,0,1,0,.24l-3.23,9.35,1.38,6.38a.42.42,0,0,1-.32.5Z"/>
      <path class="cls-7" d="M33.59,109.48a.42.42,0,0,1-.38-.24,16.75,16.75,0,0,1,0-14.47.43.43,0,0,1,.58-.16.41.41,0,0,1,.16.57,16.26,16.26,0,0,0,0,13.71.43.43,0,0,1-.21.56A.57.57,0,0,1,33.59,109.48Z"/>
      <path class="cls-7" d="M21.29,83.6a.43.43,0,0,1-.24-.08.42.42,0,0,1-.1-.59l2.37-3.35a.43.43,0,1,1,.69.5l-2.37,3.34A.42.42,0,0,1,21.29,83.6Z"/>
      <path class="cls-7" d="M30.16,77.12h-.08a.42.42,0,0,1-.34-.49,76.52,76.52,0,0,0-.63-29,.41.41,0,0,1,0-.22c1.31-4.67,1.08-8.23-.66-10.56a7.63,7.63,0,0,0-5.52-2.8.45.45,0,0,1-.34-.18.43.43,0,0,1-.06-.38,13.24,13.24,0,0,1,11-9.18.42.42,0,0,1,.45.39.42.42,0,0,1-.39.45,12.17,12.17,0,0,0-10.11,8.09,8.3,8.3,0,0,1,5.61,3.09c1.9,2.54,2.18,6.31.84,11.2a77.57,77.57,0,0,1,.61,29.22A.41.41,0,0,1,30.16,77.12Z"/>
      <path class="cls-7" d="M24.91,76.42h-.05a.41.41,0,0,1-.37-.47c.75-6.43-1.88-12.75-7.22-17.35a29.6,29.6,0,0,0-6.09-4.1l-.61-.3C7.38,52.64,4.09,51,2.94,47.13A10.43,10.43,0,0,1,3.21,41a23.37,23.37,0,0,1,3-5.59l.41-.61C19.29,15.55,13.47,6.58,13.41,6.49a.42.42,0,0,1,.7-.48c.26.38,6.24,9.47-6.77,29.21l-.41.62A22.45,22.45,0,0,0,4,41.22a9.7,9.7,0,0,0-.27,5.67c1,3.55,4,5,7.19,6.54l.61.3A30,30,0,0,1,17.82,58c5.56,4.78,8.29,11.38,7.51,18.09A.43.43,0,0,1,24.91,76.42Z"/>
    </g>
  </g>
</svg>
