<svg xmlns="http://www.w3.org/2000/svg" xmlns:xlink="http://www.w3.org/1999/xlink" viewBox="0 0 432.65 366.65">
  <defs>
    <style>
      .cls-1 {
        isolation: isolate;
      }

      .cls-2 {
        opacity: 0.43;
        fill: url(#radial-gradient);
      }

      .cls-3 {
        fill: url(#radial-gradient-2);
      }

      .cls-4 {
        mix-blend-mode: screen;
        fill: url(#radial-gradient-3);
      }

      .cls-5 {
        fill: url(#radial-gradient-4);
      }

      .cls-10, .cls-11, .cls-6, .cls-7, .cls-8, .cls-9 {
        opacity: 0.48;
      }

      .cls-6 {
        fill: url(#radial-gradient-5);
      }

      .cls-7 {
        fill: url(#radial-gradient-6);
      }

      .cls-8 {
        fill: url(#radial-gradient-7);
      }

      .cls-9 {
        fill: url(#radial-gradient-8);
      }

      .cls-10 {
        fill: url(#radial-gradient-9);
      }

      .cls-11 {
        fill: url(#radial-gradient-10);
      }

      .cls-12, .cls-13, .cls-14, .cls-15 {
        fill: #ced3d2;
        mix-blend-mode: multiply;
      }

      .cls-12 {
        opacity: 0.51;
      }

      .cls-13 {
        opacity: 0.72;
      }

      .cls-14 {
        opacity: 0.78;
      }

      .cls-15 {
        opacity: 0.82;
      }

      .cls-16 {
        opacity: 0.7;
        mix-blend-mode: color-dodge;
        fill: url(#radial-gradient-11);
      }
    </style>
    <radialGradient id="radial-gradient" cx="249.49" cy="169.29" r="182.44" gradientUnits="userSpaceOnUse">
      <stop offset="0" stop-color="#31a977"/>
      <stop offset="0.14" stop-color="#31a979" stop-opacity="0.9"/>
      <stop offset="0.41" stop-color="#31a97f" stop-opacity="0.64"/>
      <stop offset="0.79" stop-color="#31a988" stop-opacity="0.23"/>
      <stop offset="0.99" stop-color="#31a98d" stop-opacity="0"/>
    </radialGradient>
    <radialGradient id="radial-gradient-2" cx="244.87" cy="520.33" r="153.88" gradientTransform="translate(0 -267.54) scale(1 0.87)" xlink:href="#radial-gradient"/>
    <radialGradient id="radial-gradient-3" cx="278.6" cy="196.68" r="123" gradientUnits="userSpaceOnUse">
      <stop offset="0" stop-color="#905124"/>
      <stop offset="0.2" stop-color="#905124" stop-opacity="0.83"/>
      <stop offset="0.62" stop-color="#905124" stop-opacity="0.41"/>
      <stop offset="1" stop-color="#905124" stop-opacity="0"/>
    </radialGradient>
    <radialGradient id="radial-gradient-4" cx="244.99" cy="180.1" r="153.53" gradientUnits="userSpaceOnUse">
      <stop offset="0" stop-color="#fff"/>
      <stop offset="0.52" stop-color="#f7ffff"/>
      <stop offset="0.59" stop-color="#f6ffff"/>
      <stop offset="0.66" stop-color="#eef9f9"/>
      <stop offset="0.77" stop-color="#d8e8ea"/>
      <stop offset="0.9" stop-color="#b4ccd1"/>
      <stop offset="0.92" stop-color="#afc8ce"/>
      <stop offset="0.94" stop-color="#b2cacf"/>
      <stop offset="0.96" stop-color="#bbd0d4"/>
      <stop offset="0.98" stop-color="#cbdbdc"/>
      <stop offset="0.99" stop-color="#e1eae6"/>
      <stop offset="1" stop-color="#f1f5ee"/>
    </radialGradient>
    <radialGradient id="radial-gradient-5" cx="250.55" cy="108.13" r="23.91" gradientUnits="userSpaceOnUse">
      <stop offset="0" stop-color="#e3eaeb"/>
      <stop offset="0.29" stop-color="#e0e8e9"/>
      <stop offset="0.49" stop-color="#d7e1e3"/>
      <stop offset="0.67" stop-color="#c8d5d8"/>
      <stop offset="0.82" stop-color="#b3c5c9"/>
      <stop offset="0.9" stop-color="#a5bac0"/>
      <stop offset="0.94" stop-color="#abbec4"/>
      <stop offset="1" stop-color="#bbcbcf"/>
      <stop offset="1" stop-color="#bcccd0"/>
    </radialGradient>
    <radialGradient id="radial-gradient-6" cx="329.44" cy="143.14" r="42.81" xlink:href="#radial-gradient-5"/>
    <radialGradient id="radial-gradient-7" cx="244.99" cy="184.53" r="112.27" xlink:href="#radial-gradient-5"/>
    <radialGradient id="radial-gradient-8" cx="219.64" cy="182.28" r="8.72" xlink:href="#radial-gradient-5"/>
    <radialGradient id="radial-gradient-9" cx="172.87" cy="213.27" r="9.46" xlink:href="#radial-gradient-5"/>
    <radialGradient id="radial-gradient-10" cx="113.6" cy="210.55" r="5.17" xlink:href="#radial-gradient-5"/>
    <radialGradient id="radial-gradient-11" cx="183.5" cy="184.12" r="183.02" gradientUnits="userSpaceOnUse">
      <stop offset="0" stop-color="#655c1d"/>
      <stop offset="0.07" stop-color="#655c1d" stop-opacity="0.91"/>
      <stop offset="0.5" stop-color="#655c1d" stop-opacity="0.42"/>
      <stop offset="0.82" stop-color="#655c1d" stop-opacity="0.11"/>
      <stop offset="1" stop-color="#655c1d" stop-opacity="0"/>
    </radialGradient>
  </defs>
  <title>Asset 12</title>
  <g class="cls-1">
    <g id="Layer_2" data-name="Layer 2">
      <g id="Layer_1-2" data-name="Layer 1">
        <circle class="cls-2" cx="250.39" cy="182.26" r="182.26"/>
        <ellipse class="cls-3" cx="245.64" cy="197.32" rx="153.73" ry="134.52"/>
        <path class="cls-4" d="M401.6,196.68a123,123,0,1,1-123-123A123,123,0,0,1,401.6,196.68Z"/>
        <polygon class="cls-5" points="386.59 210.44 346.96 242.45 346.13 243.12 346.13 261.79 244.99 277.36 150.18 255.48 136.25 252.26 103.39 244.68 103.39 182.44 141.93 128.47 142.15 128.16 142.29 127.97 199.71 117.77 212.31 115.53 216.05 112.72 228.1 103.67 255.88 82.85 273 82.85 273 107.75 276.28 107.61 281.48 107.4 311.9 106.19 349.24 124.86 349.24 140.42 349.99 140.56 351.55 140.84 366.36 143.53 386.59 210.44"/>
        <polygon class="cls-6" points="273 82.85 273 105.71 272.22 106.97 251.99 133.42 237.99 106.97 228.1 103.67 255.88 82.85 273 82.85"/>
        <polygon class="cls-7" points="377.41 180.09 350.02 156.76 314.23 156.76 281.48 133.42 281.48 107.4 311.9 106.19 349.24 124.86 349.24 140.42 351.55 140.84 366.36 143.53 377.41 180.09"/>
        <path class="cls-8" d="M362.39,230l24.2-19.54-3.08-10.18L332.9,164.54H292.45l-20.23-21.79-51.35-6.22L216,112.72l-3.73,2.81-12.61,2.24-5.28,28.09-34.24,18.68H140l-18.64-7.2-17.92,25.1v11.21l13.47-2.13L132.09,197l3.26,25-32,8v14.7l32.86,7.58,22.38-36.36,1.55-23.34H177.3l15.56,18.67v20.23l35.79,10.9,15.56-18.68,20.23,3.11,32.67,29.56,49-3.11V243.12l1.33-1.07-23.89-21.49L304.9,219l-1.56-12.46,26.45,4.67ZM267,201.31l-29.36-5.44-9.79,10.88-12-3.26-1.08-12H198.43l3.26-15.22,5.44-6.53,25-14.14,5.44,2.18-4.35,12H262.6l4.35,9.79L240.85,185l32.63,7.61Z"/>
        <polygon class="cls-9" points="211.48 179.56 220.18 173.03 227.8 179.56 227.8 185 222.36 191.52 213.66 187.17 211.48 179.56"/>
        <polygon class="cls-10" points="166.89 211.1 166.89 203.49 174.5 201.31 178.85 205.66 178.85 216.54 172.33 225.24 172.33 213.27 166.89 211.1"/>
        <polygon class="cls-11" points="112.51 205.66 119.04 205.66 119.04 215.45 108.16 215.45 108.16 210.01 112.51 205.66"/>
        <polygon class="cls-12" points="386.59 210.44 346.13 243.12 346.13 261.79 245.25 277.31 244.99 277.36 150.18 255.48 103.39 244.68 103.39 182.44 141.93 128.47 143.07 128.75 160.18 142.76 220.87 136.53 253.7 117.42 273 105.77 273 107.75 281.48 107.4 311.9 106.19 349.24 124.86 349.24 140.42 351.55 140.84 366.36 143.53 386.59 210.44"/>
        <polygon class="cls-13" points="160.18 142.76 160.18 215.89 136.25 252.26 103.39 244.68 103.39 182.44 141.93 128.47 142.15 128.16 143.07 128.75 160.18 142.76"/>
        <polygon class="cls-13" points="220.09 135.75 244.99 277.36 346.13 261.79 346.96 242.45 386.59 210.44 366.36 143.53 349.24 140.42 349.24 124.86 311.9 106.19 273 107.75 220.09 135.75"/>
        <polygon class="cls-14" points="366.36 143.53 351.55 140.84 349.24 140.42 349.24 124.86 321.24 190.22 279.22 236.9 237.05 232.26 245.25 277.31 346.13 261.79 346.13 243.12 386.59 210.44 366.36 143.53"/>
        <polygon class="cls-15" points="386.59 210.44 346.13 243.12 321.24 190.22 349.24 124.86 349.24 140.42 351.55 140.84 366.36 143.53 386.59 210.44"/>
        <path class="cls-16" d="M367,183.15c0,101.35-82.16,183.5-183.51,183.5A183.5,183.5,0,0,1,0,183.15C0,90.89,68.09,14.53,156.75,1.58h53.5C298.92,14.53,367,90.89,367,183.15Z"/>
      </g>
    </g>
  </g>
</svg>
