<svg xmlns="http://www.w3.org/2000/svg" xmlns:xlink="http://www.w3.org/1999/xlink" viewBox="0 0 275.36 275.9">
  <defs>
    <style>
      .cls-1 {
        isolation: isolate;
      }

      .cls-2 {
        fill: url(#radial-gradient);
      }

      .cls-3 {
        mix-blend-mode: screen;
        fill: url(#radial-gradient-2);
      }

      .cls-4 {
        fill: url(#radial-gradient-3);
      }
    </style>
    <radialGradient id="radial-gradient" cx="168" cy="79.71" fx="151.23565376347472" r="218.29" gradientTransform="translate(138.06 -56.87) rotate(45)" gradientUnits="userSpaceOnUse">
      <stop offset="0.21" stop-color="#fbea78"/>
      <stop offset="0.81" stop-color="#a76a12"/>
      <stop offset="1" stop-color="#e1c25a"/>
    </radialGradient>
    <radialGradient id="radial-gradient-2" cx="174.08" cy="73.15" r="52.02" gradientUnits="userSpaceOnUse">
      <stop offset="0.21" stop-color="#fff"/>
      <stop offset="1" stop-color="#010102"/>
    </radialGradient>
    <radialGradient id="radial-gradient-3" cx="124.02" cy="137.71" fx="154.9726982012086" fy="82.19950456124774" r="138.33" gradientTransform="translate(14.84) scale(0.99 1)" gradientUnits="userSpaceOnUse">
      <stop offset="0" stop-color="#fff9cc"/>
      <stop offset="0.33" stop-color="#ffffc4"/>
      <stop offset="0.46" stop-color="#ffffce"/>
      <stop offset="0.67" stop-color="#ffffe9"/>
      <stop offset="0.82" stop-color="#fff"/>
      <stop offset="1" stop-color="#d6d1cf"/>
    </radialGradient>
  </defs>
  <title>Asset 8</title>
  <g class="cls-1">
    <g id="Layer_2" data-name="Layer 2">
      <g id="Layer_1-2" data-name="Layer 1">
        <g>
          <circle class="cls-2" cx="137.68" cy="138.21" r="137.68" transform="translate(-57.41 137.84) rotate(-45)"/>
          <circle class="cls-3" cx="174.08" cy="73.15" r="52.02"/>
        </g>
        <path class="cls-4" d="M241.8,53.36l-.25-1.47C226.32,35.61,210.24,24.28,187.76,14l-3.9-1.71c4.86,3.88,10.38,8.28,12.72,15.34,1,3.88,1.32,7.38-.74,11.83a19.22,19.22,0,0,1-9.24,8.6,27.67,27.67,0,0,1-5,1.81c-14,3.68-13.22-7.64-13.2-7.76.38-2,.38-2,6.61-3.93a18.86,18.86,0,0,0,7.65-4.33L184.55,32c1.73-7.61,1.73-7.61,1.4-9.11l0-.09-.49-1.77c-2-3.67-3.66-6.85-11.14-12.08l-1.37-.9A176.42,176.42,0,0,0,145.67.75L145,.64c.68,1.55,1.13,3.1.28,7.79h0c-.55,2.89-1.27,5.5-2.85,11.21h0c-.85,3.16-2,7.49-2.85,11.18-.44,1.91-.46,2-.64,2.84h0a135.73,135.73,0,0,0-2.32,16.43h-.05c-.14,3.27-.2,4.5-.21,5.76v.08a107.56,107.56,0,0,0,8.48,43.46l1,2.51c28.12-1.64,44.23-5.44,59.76-10.64l3.59-1.32c13.17-6.41,13.17-6.41,13.47-6.59l.09,0,1-.6c4.85-3.31,6.66-4.56,9.88-7.79l.83-.84a31.6,31.6,0,0,0,5.73-8.63l.61-1.5A22.39,22.39,0,0,0,241.8,53.36ZM172.87,9.61c.06,0,5.92,4.2,7.77,9.27-12.31-5.32-21.89-8.3-32-10a15.21,15.21,0,0,0-.6-6.28A161.77,161.77,0,0,1,172.87,9.61ZM148.3,11.77c10.65,1.65,20.53,4.74,33,10.31a9.4,9.4,0,0,1-2.69,7.21,130.59,130.59,0,0,0-16.25-6,99.79,99.79,0,0,0-15.54-3.19C147.66,15.92,148,14,148.3,11.77Zm-2.23,12.29a101.53,101.53,0,0,1,29.14,7.85c-3.76,2.18-9.18,1.05-11.57,5.94-3.42-1-6.53-1.85-9.64-2.47A95.27,95.27,0,0,0,144.37,34C144.87,30.68,145.35,27.9,146.07,24.06Zm4.74,70.28a108,108,0,0,1-8-38.1c22.5,2.44,40.28,11.85,56,29.59C191.27,88.3,175,92.69,150.81,94.34Zm53.72-10.51C187.3,63.65,167.7,53,142.85,50.41c.16-5.77.65-9.8.84-11.32.07,0,7.25,0,19.05,3.6.4,7.13,8,18,24.47,12.06l.69-.24a110.48,110.48,0,0,1,27.19,24.67A97.46,97.46,0,0,1,204.53,83.83Zm14.82-7.07a120.7,120.7,0,0,0-12.23-13.28A125.76,125.76,0,0,0,192.84,52.1a21.31,21.31,0,0,0,6.95-6.53,129.75,129.75,0,0,1,27.4,25.49A50.3,50.3,0,0,1,219.35,76.76ZM230,68.34a135.81,135.81,0,0,0-28.48-26.1,17.05,17.05,0,0,0,.85-8.72A148,148,0,0,1,235,61.46,28.22,28.22,0,0,1,230,68.34Zm6.2-9.82c-1.64-1.81-4.16-4.6-7.69-8a147.22,147.22,0,0,0-13.69-11.67c-.66-.5-1.55-1.16-2.23-1.65-3.63-2.63-7.55-4.83-11.18-7.46-.29-.21-.21-.56-.31-.85-1.91-4.92-5.78-8.78-7.24-10.23,5.63,2.89,22.75,11.69,38.21,26.24C238.66,51.1,238.66,51.1,236.21,58.52Zm17.57,9L251.32,64c.45,4.47,1.37,13.76-9.83,24.8A66,66,0,0,1,227,99.1c-21.14,11.4-47.9,16.06-66.63,18l-6.36.65c9.94,14.3,25,35.91,60.74,52.22l1,.49c4.59,1.85,4.59,1.85,13.59,5.4l2.16.77c9.4,3,9.57,3,12.4,3.74l1.19.32.49.14c9.6,2.1,9.6,2.1,10.63,2.27l.07,0,1.21.21a65,65,0,0,0,8.23.87l.65,0C275,161.31,284.76,115.77,253.78,67.55Zm-40.64,93.17a136.88,136.88,0,0,1-27.66-18.14,123.12,123.12,0,0,1-17.68-18.64l.3,0c11.16-1.46,28.05-4.15,45.72-10.6C216.11,120,220.61,138.13,213.14,160.72Zm16.42,7.11c-2.24-.83-6-2.23-10.95-4.49a82.22,82.22,0,0,0,.81-52.24,111.24,111.24,0,0,0,10.55-5A91,91,0,0,1,229.56,167.83Zm14.84,4.82c-3.92-1.13-5.55-1.6-9.67-3,1.21-5.74,3.3-11.24,4.31-17A97.83,97.83,0,0,0,240.41,137a94.47,94.47,0,0,0-6-33.49,68.23,68.23,0,0,0,8.42-6.22C253,122.11,253.5,147.49,244.4,172.65Zm12.81,3c-2-.36-5.4-1.07-8.61-1.88,4.31-13.84,13.26-42.62-2.59-79.52a39.44,39.44,0,0,0,5.7-7.44C254,90.87,273.91,127.86,257.21,175.65Zm3.1.52c7.45-21.69,12.31-55.4-6.85-92.88a26.51,26.51,0,0,0,2.09-9.71c23.89,40.89,19.52,78.77,11.65,103.36A65.13,65.13,0,0,1,260.31,176.17ZM137.48,0c-4.53.05-9.8.66-20.76,3.46l-.93.24A64.3,64.3,0,0,0,99,16.51l0,0-.76.88a38.66,38.66,0,0,0-2.45,3.22,28.79,28.79,0,0,0-4.4,10.26l0,0L91,33V33c-.49,4.48-.49,4.48,1.59,13.79.11,3-2.28,5.6-3.72,6.88a8.21,8.21,0,0,1-2.28,1.43l-.7.25c-.2.06-.47.13-.68.17a4.3,4.3,0,0,1-2.77-.3L82,55h0l-.35-.27-.31-.31L81,54c-.07-.12-6.31-13.23,4.5-29.5C89.61,18.57,94.58,14,102.07,9.08l4.52-2.69C81.45,14.92,63.83,24.52,45.78,39.56L44.12,41a43.28,43.28,0,0,0-6.84,18.06h0l-.12,1.67a26.64,26.64,0,0,0,2.4,12.57v0a31.65,31.65,0,0,0,8.74,10.72l0,0,.55.41A57.6,57.6,0,0,0,61.93,92v0c8.3,3.15,23.73,9,59.75,10l.22,0,2,0,3.33.09h0C116,65.67,122.46,40.73,137.42,10c2.07-4.37,3.1-6.57,3.55-8.79l.08-1.09C139.3,0,138.5,0,137.48,0ZM52.89,35.94C64.61,26.75,79,18.65,95.57,11.88c-.8.56-1.89,1.33-3.36,2.48a59.75,59.75,0,0,0-8.39,8c-4.5,5.26-11.14,7.15-16.65,10.81a151.35,151.35,0,0,0-25,20.64C43.88,43,46.33,41.09,52.89,35.94ZM44,67.65a22.77,22.77,0,0,1-2.1-9.57C51.63,47.31,64.15,37.49,79.1,28.87a38.64,38.64,0,0,0-4.47,10.86,2.34,2.34,0,0,1-.17.76c-.41.61-1.4.95-2,1.35A135.56,135.56,0,0,0,44,67.65Zm2,3.55A129.55,129.55,0,0,1,73.79,45.34a35.4,35.4,0,0,0,.9,10.54c-8.86,7.39-14.2,11.85-22.19,22.26A30.43,30.43,0,0,1,46,71.2ZM72,87.8C84.18,73,97.58,64,115.44,58.74a99.15,99.15,0,0,0,.75,31c.3,1.66.58,3.07,1,5C102.74,93.94,87.24,92.57,72,87.8Zm44.47-35.25C89.62,59.8,75,75,66.39,85.82a60.9,60.9,0,0,1-10-5A107.34,107.34,0,0,1,77.11,60a7.81,7.81,0,0,0,5.07,1.74C85.8,61.63,89.27,60,92.49,57a21.69,21.69,0,0,0,3.3-4.08,16.89,16.89,0,0,0,1.8-3.81A11.75,11.75,0,0,0,98,47.44c.33-.19,8.33-4.48,21.59-7.15A113.88,113.88,0,0,0,116.45,52.55Zm5-17.62a98.3,98.3,0,0,0-23.95,7.41A29,29,0,0,1,95.91,33,100.28,100.28,0,0,1,126,24.2C124.23,28,122.9,31.09,121.46,34.93Zm6.75-15c-10.87,1.18-20.11,3.7-31.89,8.71a25.65,25.65,0,0,1,2.44-7,20,20,0,0,1,1.69-2.8A102.27,102.27,0,0,1,133.21,11C131.17,14.46,129.81,16.86,128.21,19.9ZM135.05,8c-10,.39-18.77,2.27-31.36,6.71A56.74,56.74,0,0,1,115,5.31c.11,0,12.75-4,23.65-3.73C138.54,2.2,137.61,3.8,135.05,8Zm5.17,258.14h.33c-8.71-7.74-17.78-11.65-27-11.64-4.17,0-7.23,1.08-9.09,3.09l-1.63,2,.42.13c-.77,2.66-.09,5.2,2.22,8.24l1.2,1.38c18.81,5.83,27.51,6.56,35.45,5.86l1.5-.13C143.71,273.28,143.8,270.55,140.22,266.15ZM130,262.53a96.27,96.27,0,0,1-18.51-3.39C116.61,257.19,125.54,260.18,130,262.53Zm7.3,11c-14.23-.17-28.45-5.22-28.57-5.27s-2.54-3.59-.39-6.9c4,1.2,14.49,4.4,25.53,4.71a5.75,5.75,0,0,1,1.61,0,18.12,18.12,0,0,1,5.63,7.29C139.21,273.49,137.89,273.51,137.27,273.5ZM250,198h0a178,178,0,0,1-44.63-14.22c-31.37-15.16-53.45-35.23-69.49-63.17l-1.15-2h0c-37.53.35-85.81-4.47-102.72-29.42a29.69,29.69,0,0,1-4.58-13.74c-.23-5-.14-10.15,3.44-19l1.76-3.86c-12,14.11-23.87,31.2-30.09,60.4L1.73,117c5.07.87,5.27.91,8.12,1.47,8.73,1.75,8.73,1.75,9.94,4.71a21.24,21.24,0,0,1,.52,2.52,18.38,18.38,0,0,1-.1,4c-.09.47-.2,1.1-.31,1.57a16.41,16.41,0,0,1-1,2.85c-1.6,3.13-1.6,3.13-10.12,1.4h0l-1.51-.3v0c-2.28-.43-4.09-.76-6.53-1.15L.1,134c-.27,18.84,2.14,33.34,8.33,50l1.6,4c.73-5.05,2.44-10.49,14.55-16.59,21.61-10.62,46-10.41,62.74-8.36,32.07,4.37,65.63,20.69,83.53,40.63,1.2,1.38,1.35,1.56,2.09,2.47l.08.09a65.91,65.91,0,0,1,9.16,15,53.73,53.73,0,0,1,3.2,9.88,50.2,50.2,0,0,1,1.05,7.06,44.36,44.36,0,0,1-.18,8.67c-.62,4.23-1.57,10.62-6.63,17.3l-1.11,1.32c45.75-18.27,65.92-42.78,78.37-62.08l2.59-4.43C255.34,198.7,254,198.55,250,198Zm-7.62,5.83c-9.81,13.22-23.62,28.75-51.58,43.83.07-.34.12-.62.18-.93s.13-.69.22-1.2a46.44,46.44,0,0,0,.64-7.91c17.3-10.12,29.65-20.84,41.31-35.88C236.5,202.56,239.18,203.16,242.33,203.78Zm-13.51-3.24c-10.7,13.53-21.84,23.26-37.26,32.53a53,53,0,0,0-2-10.4,115.75,115.75,0,0,0,29-25.44C222.24,198.54,225.23,199.5,228.82,200.54ZM4.54,109.7A124.16,124.16,0,0,1,25.38,64.06,43.3,43.3,0,0,0,23.1,77.93a3.18,3.18,0,0,1,0,.87,9.05,9.05,0,0,1-1,1.84,117.8,117.8,0,0,0-11.7,30.1C8.58,110.4,6.91,110.1,4.54,109.7Zm8.66,1.61A108.53,108.53,0,0,1,23.63,83.64a32,32,0,0,0,3.88,10.53A106.4,106.4,0,0,0,21,114C19.56,112.59,19.56,112.59,13.2,111.31ZM7.92,178.16a124.34,124.34,0,0,1-6.48-36.07c1.76.29,3.54.6,6,1.06a115.47,115.47,0,0,0,4.79,28A16.94,16.94,0,0,0,7.92,178.16ZM14.57,169a112.92,112.92,0,0,1-4.29-25.31c1.81.4,3.63.75,5.44,1.13a3.37,3.37,0,0,0,3-.82A104.41,104.41,0,0,0,22,164.36,46.89,46.89,0,0,0,14.57,169Zm20.67-10a76,76,0,0,0-9.52,3.55c-2.3-9.23-3-15.49-3-20a37.36,37.36,0,0,1,1.08-9,32.71,32.71,0,0,0,.72-9.41c-.29-5.21-.59-10.59,5.61-26.09a46.94,46.94,0,0,0,7.48,7.38C32.56,127.66,30.26,137.81,35.24,159Zm16.28-3.53a110.23,110.23,0,0,0-11.4,2.17A91.17,91.17,0,0,1,42,108.52c1.62,1,3.64,2.19,5.46,3.12,1.06.52,2.84,1.39,4.66,2.21C48.92,132.41,47.72,139.36,51.52,155.48Zm127.7,47.25c-.74-1-1-1.34-1.76-2.21-1.33-1.62-1.84-2.18-2.94-3.39-.52-.57-.52-.57-1.34-1.44-22.19-22.61-67.87-45.05-115.73-40.9a77.52,77.52,0,0,1,.24-38.69c2.77,1,5.72,2,11.24,3.44,7.76,2,29.23,6.8,60.88,6.71h.09a147.4,147.4,0,0,0,20.17,27.13A168.08,168.08,0,0,0,196.91,188,84.24,84.24,0,0,1,179.22,202.73Zm3.39,4.91c7.72-5.42,12.39-8.7,19.8-17,3.9,1.8,7.12,3.18,11.13,4.73a108.78,108.78,0,0,1-25.71,22.48A63.39,63.39,0,0,0,182.61,207.64Zm2.68,53.14a20.44,20.44,0,0,0,2.1-4.75,14.45,14.45,0,0,1,2.36-4.62c.78-.92,2.49-1.29,3.56-1.85a149.9,149.9,0,0,0,52.38-45.18c2.93.48,5.25.78,7.76,1C241.44,222.88,223.94,243.13,185.29,260.78Zm-10-15.17h0a47.61,47.61,0,0,0-3.72-13.84h0a62.58,62.58,0,0,0-6.81-11.62c-.84-1.14-1.07-1.43-2.26-2.91l.11,0c-2.5-2.71-2.5-2.71-3.39-3.66-21.58-22.78-57.67-33.44-76.67-35h0c-3.4-.33-5.92-.51-10.3-.56H70.91c-.77,0-3.47,0-6,.19l-4.15.21c-5,1.25-10.12,1.51-15.08,2.78l-1.86.48c-8.67,3-8.67,3-11.94,4.58l-1.15.55-.82.45a46.52,46.52,0,0,0-7.42,4.76L21.26,193c-2.36,2.6-3.46,4.12-4.09,7.74l-.12,1.3a134.28,134.28,0,0,0,31.39,36.38l2.85,2.28c-7.46-17.41,6.27-26.16,9.66-25a12.9,12.9,0,0,1,7.22,7.74h0a5.84,5.84,0,0,1,.09,3.05c-1.49,3.68-5.53,5.21-7.23,8.71L60.38,237c-.41,3.33-.66,5.34,1.38,10.1l.8,1.6a183.27,183.27,0,0,0,32.81,16.64l2.19.85c-9.28-10.09-4.78-16.85,2.53-19.82,12.91-4.39,28.51.91,37.94,6.79l.63.38h0c4.64,3.12,7.52,6,9.59,9.6.22.44.5,1,.7,1.47a11.23,11.23,0,0,1,.06,9l-.39.73a151.72,151.72,0,0,0,18.47-4.78l2.21-.7C171.33,266.39,176.66,259.9,175.3,245.61ZM150.1,214a78.72,78.72,0,0,1-13.95,1.2c-25.86-.69-46-10.24-63.25-30.06C103.55,185.11,134.4,200.06,150.1,214ZM65.19,185.34C76.34,197.57,106,230,155.34,219a64.81,64.81,0,0,1,7.79,10.06c-5.66,2-16.45,4.19-26.78,4.08-34.27-1-62.33-16.58-83.41-46.18A96.17,96.17,0,0,1,65.19,185.34Zm-44,20.12A12.37,12.37,0,0,1,25,199.31a130,130,0,0,0,19.35,24,19.94,19.94,0,0,0,.52,9.61A133.84,133.84,0,0,1,21.14,205.46Zm24.13,14.67a127.5,127.5,0,0,1-18-22.7,45.92,45.92,0,0,1,5.4-3.33c.61-.32.82-.44,1.81-.94a120,120,0,0,0,15.67,20.12A20.44,20.44,0,0,0,45.27,220.13Zm21,28.73a12.32,12.32,0,0,1-.51-8.12A169.17,169.17,0,0,0,87.32,253a15.48,15.48,0,0,0,3.34,8.49A174.37,174.37,0,0,1,66.3,248.86ZM87.68,250A163.09,163.09,0,0,1,67,238.09c1.51-2.39,4.19-3.63,5.8-5.93A140,140,0,0,0,93,243.45,12,12,0,0,0,87.68,250Zm50.1-2.39c-15.74-8.45-30.49-9-38.34-6.86-4,1.08-22.36-10.45-25.58-12.61a13,13,0,0,0-.41-3.22C71,216,60.1,205.63,53.16,210.72c-3.06-3.22-5.67-6.23-8.09-9.33a119.79,119.79,0,0,1-6.93-9.91,73.29,73.29,0,0,1,9-3.12c13.25,16.29,53.57,65.83,118.59,45.4a48.51,48.51,0,0,1,3.56,9.31C169.12,243.18,145.85,252.22,137.78,247.65Zm29.48,20.06a145.07,145.07,0,0,1-14.91,4.06,11.85,11.85,0,0,0,.75-7.25,122.1,122.1,0,0,0,17.12-4.75C169.21,265.11,167.28,267.7,167.26,267.71Zm3.36-11.24a115.31,115.31,0,0,1-18.49,5,21,21,0,0,0-3.48-5.35,34.45,34.45,0,0,0-3-3,103,103,0,0,0,24.63-5.62A39.46,39.46,0,0,1,170.62,256.47Z"/>
      </g>
    </g>
  </g>
</svg>
