<svg xmlns="http://www.w3.org/2000/svg" viewBox="0 0 278.02 441.85">
  <defs>
    <style>
      .cls-1 {
        fill: #333;
      }

      .cls-2 {
        fill: #f2f2f2;
      }

      .cls-3 {
        fill: #fff6d5;
      }

      .cls-4 {
        fill: #765424;
      }

      .cls-10, .cls-11, .cls-4, .cls-5, .cls-6, .cls-7, .cls-8, .cls-9 {
        fill-rule: evenodd;
      }

      .cls-5 {
        fill: #c4963c;
      }

      .cls-6 {
        fill: #7c4c23;
      }

      .cls-7 {
        fill: #a27724;
      }

      .cls-8 {
        fill: #c19713;
      }

      .cls-9 {
        fill: #d0aa2e;
      }

      .cls-10 {
        fill: #a06b24;
      }

      .cls-11 {
        fill: #a88123;
      }
    </style>
  </defs>
  <title>Asset 6</title>
  <g id="Layer_2" data-name="Layer 2">
    <g id="Layer_1-2" data-name="Layer 1">
      <g>
        <path class="cls-1" d="M254.11,362.16c-.42-.14-.84-.28-1.32-.46s-1.22-.49-1.91-.8c-1.37-.61-2.84-1.31-4.36-2.08s-3.08-1.6-4.66-2.48-3.18-1.81-4.76-2.77-3.12-1.93-4.61-2.91-2.92-2-4.25-2.93-2.57-1.91-3.67-2.82c-.55-.45-1.06-.9-1.54-1.33s-.91-.85-1.31-1.25-.75-.79-1.05-1.16a9.9,9.9,0,0,1-.77-1.05c-.81-1.33-1.52-2.58-2.21-3.73-.35-.57-.68-1.13-1-1.65s-.69-1-1-1.5a14.48,14.48,0,0,0-1.11-1.33,12.24,12.24,0,0,0-1.25-1.14,10.24,10.24,0,0,0-1.45-.93,11.32,11.32,0,0,0-1.69-.73,13.7,13.7,0,0,0-1.69-.44,11.84,11.84,0,0,0-1.49-.16c-.47,0-.92,0-1.37,0l-1.36.05c-.46,0-.93,0-1.43,0a12,12,0,0,1-1.6-.17,15.32,15.32,0,0,1-1.87-.46,20.74,20.74,0,0,1-2.23-.84,12.11,12.11,0,0,1-1.14-.55c-.35-.19-.67-.38-1-.58a11.56,11.56,0,0,1-1.57-1.22c-.45-.41-.85-.82-1.21-1.22l-1-1.16a11,11,0,0,0-1-1,6.26,6.26,0,0,0-.57-.45c-.2-.13-.41-.26-.64-.38a6.16,6.16,0,0,0-.73-.31,6.4,6.4,0,0,0-.84-.23,6.81,6.81,0,0,0-1-.15c-.35,0-.73-.05-1.14-.05-1.63,0-2.95,0-4.13.06-.58,0-1.13.08-1.66.15a13.26,13.26,0,0,0-1.55.3,12.32,12.32,0,0,0-1.54.48c-.53.2-1.08.44-1.67.73s-1.21.62-1.89,1-1.42.83-2.23,1.34c-.41.26-.85.56-1.32.91s-1,.75-1.49,1.18c-1.05.86-2.2,1.88-3.41,3s-2.48,2.32-3.78,3.58-2.64,2.57-4,3.87l-3.92,3.82c-1.28,1.24-2.51,2.41-3.67,3.47s-2.25,2-3.22,2.81c-.48.39-.94.75-1.37,1.05a12.91,12.91,0,0,1-1.17.77c-.71.41-1.4.83-2.07,1.27s-1.32.88-2,1.33c-1.27.9-2.49,1.81-3.71,2.65-.62.42-1.23.82-1.84,1.2s-1.25.74-1.88,1.06a17.84,17.84,0,0,1-2,.85,14.47,14.47,0,0,1-2.07.6c-.71.16-1.37.32-2,.5s-1.21.37-1.78.57c-1.13.4-2.18.85-3.25,1.33s-2.17,1-3.4,1.56-2.61,1.14-4.24,1.75c-.82.31-1.55.6-2.22.89s-1.28.58-1.84.87-1.1.59-1.6.91-1,.64-1.47,1-1,.74-1.48,1.16-1,.86-1.59,1.36c-1.14,1-2.44,2.17-4.07,3.59s-3.64,3.16-5.83,5c-1.1.9-2.24,1.83-3.39,2.74s-2.34,1.82-3.51,2.69-2.34,1.69-3.47,2.45-2.24,1.46-3.28,2.06c-.53.29-1,.57-1.52.82s-1,.47-1.42.66-.88.34-1.29.47a8.09,8.09,0,0,1-1.15.26c-.71.1-1.41.17-2.09.2s-1.34,0-2,0c-1.29,0-2.54-.11-3.76-.19l-1.82-.09c-.6,0-1.2,0-1.8,0s-1.2.06-1.8.13a17.07,17.07,0,0,0-1.82.34c-.61.15-1.22.33-1.84.53s-1.23.43-1.85.69-1.24.52-1.88.82-1.27.62-1.92,1q-2,1-4,2.33c-1.4.86-2.85,1.8-4.38,2.82s-2.72,1.81-3.77,2.46l-1.49.88c-.48.27-.94.51-1.41.74a33.74,33.74,0,0,1-3.13,1.31c-1.2.44-2.63.93-4.46,1.54-.85.28-1.76.55-2.65.83v10.2h228Z"/>
        <path class="cls-1" d="M108.7,364.9l-2-.56c-1.22-.36-2.47-.75-3.71-1.14s-2.46-.8-3.62-1.2-2.27-.8-3.28-1.18-1.92-.74-2.69-1.07a20.61,20.61,0,0,1-1.87-.88c-.92-.51-2.32-1.36-4-2.37l-5.59-3.44c-2-1.23-4-2.47-5.9-3.59s-3.58-2.12-4.9-2.83-2.24-1.17-3-1.48c-.35-.15-.66-.27-.94-.36a6.54,6.54,0,0,0-.79-.2c-.51-.1-1-.15-1.73-.26s-1.63-.25-3-.56a9.17,9.17,0,0,1-1-.28c-.32-.12-.65-.25-1-.41A14.89,14.89,0,0,1,57.86,342c-.64-.42-1.28-.89-1.91-1.38s-1.26-1-1.88-1.58c-1.25-1.1-2.48-2.26-3.71-3.35-.62-.54-1.23-1.07-1.84-1.56s-1.23-.95-1.84-1.36c-1.22-.81-2.44-1.66-3.69-2.49s-2.52-1.66-3.85-2.45c-.66-.4-1.33-.78-2-1.15S35.72,326,35,325.62s-1.47-.67-2.24-1-1.56-.58-2.37-.84-1.53-.49-2.18-.71-1.22-.44-1.73-.66c-.14-.05-.24-.11-.37-.16v83.88c.89-.28,1.8-.55,2.65-.83,1.83-.61,3.26-1.1,4.46-1.54a33.74,33.74,0,0,0,3.13-1.31c.47-.23.93-.47,1.41-.74l1.49-.88c1-.65,2.25-1.44,3.77-2.46s3-2,4.38-2.82,2.73-1.64,4-2.33q1-.51,1.92-1c.64-.3,1.26-.57,1.88-.82s1.24-.48,1.85-.69,1.23-.38,1.84-.53a17.07,17.07,0,0,1,1.82-.34c.6-.07,1.2-.11,1.8-.13s1.2,0,1.8,0l1.82.09c1.22.08,2.47.17,3.76.19.65,0,1.32,0,2,0s1.38-.1,2.09-.2a8.09,8.09,0,0,0,1.15-.26c.41-.13.84-.28,1.29-.47s.93-.41,1.42-.66,1-.53,1.52-.82c1-.6,2.14-1.3,3.28-2.06s2.29-1.59,3.47-2.45,2.35-1.77,3.51-2.69,2.29-1.84,3.39-2.74c2.19-1.81,4.2-3.54,5.83-5s2.93-2.6,4.07-3.59c.56-.5,1.09-.95,1.59-1.36s1-.8,1.48-1.16,1-.69,1.47-1,.81-.48,1.24-.71Z"/>
        <path class="cls-1" d="M254.11,313.54c-1,.49-1.94,1-3.23,1.71-.81.46-1.55.9-2.21,1.31s-1.28.79-1.83,1.15c-1.12.73-2.05,1.37-2.94,1.93-.45.28-.88.54-1.33.78s-.9.47-1.38.68a16,16,0,0,1-1.54.58c-.55.18-1.15.35-1.81.5s-1.28.33-1.86.52-1.13.4-1.65.62-1,.47-1.49.73-.92.54-1.37.83c-.89.59-1.75,1.24-2.63,1.95s-1.8,1.47-2.82,2.28-1.79,1.48-2.44,2.08-1.2,1.16-1.79,1.74-1.21,1.21-2,2c-.5.47-1.26,1.13-1.94,1.72.65,1.1,1.31,2.25,2.07,3.5a9.9,9.9,0,0,0,.77,1.05c.3.37.66.76,1.05,1.16s.83.82,1.31,1.25,1,.88,1.54,1.33c1.1.91,2.34,1.86,3.67,2.82s2.76,1.95,4.25,2.93,3,2,4.61,2.91,3.17,1.89,4.76,2.77,3.15,1.72,4.66,2.48,3,1.47,4.36,2.08c.69.31,1.32.57,1.91.8s.9.32,1.32.46Z"/>
        <path class="cls-1" d="M254.11,308.23c-.24-.21-.51-.42-.74-.63-1.31-1.22-2.73-2.55-4.23-3.93s-3.08-2.8-4.7-4.22-3.3-2.82-5-4.15c-.85-.67-1.69-1.31-2.54-1.94s-1.69-1.21-2.54-1.77-1.83-1.19-2.92-1.86-2.29-1.37-3.56-2.1-2.6-1.47-4-2.22-2.76-1.5-4.16-2.23-2.78-1.43-4.13-2.1-2.65-1.29-3.88-1.86-2.37-1.06-3.4-1.48-1.94-.75-2.7-1-1.63-.51-2.56-.84-1.93-.7-3-1.11-2.12-.85-3.2-1.33-2.18-1-3.25-1.51-2.11-1.08-3.1-1.65-1.92-1.16-2.76-1.75q-.65-.45-1.2-.9c-.38-.3-.73-.61-1.05-.91a12.26,12.26,0,0,1-.87-.92,7.56,7.56,0,0,1-.67-.91,20.35,20.35,0,0,1-1.06-2c-.34-.75-.66-1.55-1-2.4-.63-1.7-1.23-3.57-1.86-5.49-.32-1-.64-1.93-1-2.9s-.7-1.93-1.07-2.88-.79-1.87-1.22-2.75a26.78,26.78,0,0,0-1.4-2.54c-.25-.39-.52-.78-.8-1.15s-.58-.73-.89-1.08-.65-.68-1-1a13.06,13.06,0,0,0-1.07-.9,9.31,9.31,0,0,0-.89-.61,10.71,10.71,0,0,0-.94-.52,20,20,0,0,0-2-.84c-.7-.24-1.41-.46-2.13-.67l-2.14-.64c-.72-.22-1.42-.45-2.1-.72a13.38,13.38,0,0,1-1.95-.92c-.32-.18-.62-.37-.91-.57a9.1,9.1,0,0,1-.83-.68,8.11,8.11,0,0,1-.77-.78,9,9,0,0,1-.67-.92,18.66,18.66,0,0,1-1-1.72,10.76,10.76,0,0,1-.57-1.29,6.2,6.2,0,0,1-.26-1,5.49,5.49,0,0,1-.08-.75c0-.22,0-.42,0-.62a3.31,3.31,0,0,0-.11-.6,2.78,2.78,0,0,0-.3-.68,6.72,6.72,0,0,0-.64-.86c-.56-.65-1.45-1.57-2.54-2.68s-2.38-2.44-3.73-3.92c-.68-.74-1.38-1.51-2.08-2.32s-1.39-1.64-2.08-2.51-1.35-1.75-2-2.65-1.25-1.84-1.81-2.77-1.1-1.93-1.62-2.95-1-2.07-1.5-3.13c-1-2.13-1.85-4.29-2.69-6.33q-.63-1.53-1.23-2.94c-.4-.93-.79-1.81-1.18-2.61s-.77-1.54-1.14-2.17c-.19-.32-.38-.61-.57-.88s-.37-.5-.56-.72a12.91,12.91,0,0,0-1.11-1.11c-.36-.33-.72-.62-1.08-.89s-.72-.5-1.08-.72l-1.08-.65c-.73-.42-1.47-.84-2.23-1.36-.39-.27-.78-.56-1.18-.89s-.81-.7-1.23-1.12a12,12,0,0,1-1.12-1.29,14.41,14.41,0,0,1-.88-1.32c-.53-.89-1-1.76-1.37-2.58-.21-.41-.42-.81-.64-1.18a9.27,9.27,0,0,0-.73-1,5.29,5.29,0,0,0-.88-.89,5.39,5.39,0,0,0-1.12-.68c-.42-.18-.84-.34-1.25-.47a7.83,7.83,0,0,0-1.23-.29,7.07,7.07,0,0,0-1.21-.11,7.26,7.26,0,0,0-1.23.08,9.51,9.51,0,0,0-1.24.27,12.39,12.39,0,0,0-1.27.47c-.43.19-.86.42-1.31.67s-.9.56-1.37.88c-.24.17-.45.34-.66.52s-.39.38-.57.58a9.15,9.15,0,0,0-.93,1.31,13.73,13.73,0,0,0-.73,1.49c-.22.52-.42,1.06-.62,1.63-.4,1.12-.79,2.31-1.28,3.53-.25.61-.53,1.22-.85,1.84a17.86,17.86,0,0,1-1.1,1.84,13.24,13.24,0,0,1-1.22,1.51,6.82,6.82,0,0,1-1.13,1,5,5,0,0,1-1.07.56,5.1,5.1,0,0,1-1,.28c-.68.12-1.35.13-2,.21a6.79,6.79,0,0,0-1,.18,5.45,5.45,0,0,0-1.09.41,3.92,3.92,0,0,0-.56.35,6.05,6.05,0,0,0-.57.48,11.5,11.5,0,0,0-1.16,1.33c-.39.51-.8,1.1-1.22,1.75s-.85,1.36-1.31,2.13c-.91,1.52-1.91,3.24-3,5.07q-.82,1.38-1.77,2.82c-.63,1-1.29,1.94-2,2.92s-1.47,2-2.3,3-1.7,2-2.62,3.07-1.87,2-2.84,3.07-2,2-3,3-2,1.91-3,2.82-2,1.77-2.89,2.59-1.85,1.58-2.71,2.28-1.67,1.34-2.42,1.9-1.44,1.05-2.07,1.46-1.21.77-1.76,1.07-1,.56-1.53.79-.94.43-1.38.62c-.89.37-1.74.7-2.64,1.12-.45.21-.91.44-1.41.72s-1,.59-1.57,1a13,13,0,0,0-1.66,1.32,21.47,21.47,0,0,0-1.61,1.67c-.54.6-1.07,1.25-1.61,1.94s-1.08,1.4-1.63,2.13c-1.1,1.48-2.23,3-3.45,4.57-.6.77-1.23,1.54-1.88,2.29s-1.32,1.48-2,2.18c-.35.35-.74.71-1.16,1.06-.2.17-.43.34-.64.51v70.79c.13.05.23.11.37.16.51.22,1.09.43,1.73.66s1.36.46,2.18.71,1.6.54,2.37.84,1.51.63,2.24,1,1.43.69,2.12,1.07,1.37.75,2,1.15c1.33.79,2.6,1.62,3.85,2.45s2.47,1.68,3.69,2.49c.61.41,1.23.87,1.84,1.36s1.22,1,1.84,1.56c1.23,1.09,2.46,2.25,3.71,3.35.62.54,1.25,1.08,1.88,1.58s1.27,1,1.91,1.38a14.89,14.89,0,0,0,1.93,1.08c.33.16.66.29,1,.41a9.17,9.17,0,0,0,1,.28c1.33.31,2.25.46,3,.56s1.22.16,1.73.26a6.54,6.54,0,0,1,.79.2c.28.09.59.21.94.36.72.31,1.63.76,3,1.48s3,1.7,4.9,2.83,3.91,2.36,5.9,3.59l5.59,3.44c1.67,1,3.07,1.86,4,2.37a20.61,20.61,0,0,0,1.87.88c.77.33,1.68.69,2.69,1.07s2.12.78,3.28,1.18,2.38.8,3.62,1.2,2.49.78,3.71,1.14l2,.56c.12-.06.23-.14.36-.2.56-.29,1.17-.58,1.84-.87s1.4-.58,2.22-.89c1.63-.61,3-1.2,4.24-1.75s2.33-1.08,3.4-1.56,2.12-.93,3.25-1.33c.57-.2,1.15-.39,1.78-.57s1.29-.34,2-.5a14.47,14.47,0,0,0,2.07-.6,17.84,17.84,0,0,0,2-.85c.63-.32,1.26-.68,1.88-1.06s1.22-.78,1.84-1.2c1.22-.84,2.44-1.75,3.71-2.65.64-.45,1.29-.89,2-1.33s1.36-.86,2.07-1.27a12.91,12.91,0,0,0,1.17-.77c.43-.3.89-.66,1.37-1.05,1-.79,2.06-1.74,3.22-2.81s2.39-2.23,3.67-3.47l3.92-3.82c1.32-1.3,2.65-2.61,4-3.87s2.57-2.47,3.78-3.58,2.36-2.14,3.41-3c.52-.43,1-.83,1.49-1.18s.91-.65,1.32-.91c.81-.51,1.55-.95,2.23-1.34s1.31-.73,1.89-1,1.14-.53,1.67-.73a12.32,12.32,0,0,1,1.54-.48,13.26,13.26,0,0,1,1.55-.3c.53-.07,1.08-.12,1.66-.15,1.18-.06,2.5-.06,4.13-.06.41,0,.79,0,1.14.05a6.81,6.81,0,0,1,1,.15,6.4,6.4,0,0,1,.84.23,6.16,6.16,0,0,1,.73.31c.23.12.44.25.64.38a6.26,6.26,0,0,1,.57.45,11,11,0,0,1,1,1l1,1.16c.36.4.76.81,1.21,1.22a11.56,11.56,0,0,0,1.57,1.22c.3.2.62.39,1,.58a12.11,12.11,0,0,0,1.14.55,20.74,20.74,0,0,0,2.23.84,15.32,15.32,0,0,0,1.87.46,12,12,0,0,0,1.6.17c.5,0,1,0,1.43,0l1.36-.05c.45,0,.9,0,1.37,0a11.84,11.84,0,0,1,1.49.16,13.7,13.7,0,0,1,1.69.44,11.32,11.32,0,0,1,1.69.73,10.24,10.24,0,0,1,1.45.93,12.24,12.24,0,0,1,1.25,1.14,14.48,14.48,0,0,1,1.11,1.33q.54.7,1,1.5c.34.52.67,1.08,1,1.65,0,.07.09.16.14.23.68-.59,1.44-1.25,1.94-1.72.81-.76,1.43-1.38,2-2s1.13-1.13,1.79-1.74,1.42-1.26,2.44-2.08,1.93-1.58,2.82-2.28,1.74-1.36,2.63-1.95c.45-.29.9-.57,1.37-.83s1-.5,1.49-.73,1.06-.43,1.65-.62,1.2-.36,1.86-.52,1.26-.32,1.81-.5a16,16,0,0,0,1.54-.58c.48-.21.94-.44,1.38-.68s.88-.5,1.33-.78c.89-.56,1.82-1.2,2.94-1.93.55-.36,1.16-.75,1.83-1.15s1.4-.85,2.21-1.31c1.29-.72,2.27-1.22,3.23-1.71Z"/>
        <path class="cls-1" d="M254.11,184.89l-1-.87c-1.59-1.43-3.12-2.82-4.69-4.18-.78-.67-1.57-1.34-2.38-2s-1.64-1.3-2.51-1.94-1.75-1.34-2.66-2.1-1.84-1.56-2.78-2.39-1.88-1.71-2.82-2.6-1.89-1.8-2.82-2.72c-1.86-1.82-3.67-3.65-5.36-5.36s-3.24-3.31-4.59-4.67c-.68-.67-1.29-1.34-1.87-2s-1.12-1.33-1.66-2c-1.06-1.32-2.07-2.65-3.24-4-.58-.7-1.2-1.41-1.88-2.14s-1.43-1.48-2.26-2.25-1.75-1.58-2.78-2.41-2.17-1.69-3.44-2.6-2.44-1.75-3.5-2.58-2-1.62-2.91-2.4-1.71-1.56-2.49-2.34-1.51-1.56-2.22-2.37-1.41-1.64-2.12-2.51-1.41-1.79-2.15-2.76c-1.48-1.94-3.1-4.12-5.05-6.68-1-1.27-1.87-2.41-2.7-3.44s-1.6-2-2.32-2.79-1.41-1.59-2.08-2.28-1.31-1.33-1.95-1.93-1.3-1.17-2-1.73-1.37-1.11-2.12-1.69c-1.48-1.14-3.16-2.36-5.18-3.87-1-.75-2-1.49-2.85-2.21s-1.72-1.45-2.5-2.17-1.53-1.44-2.25-2.16-1.39-1.44-2.06-2.17c-1.33-1.47-2.6-3-3.91-4.56s-2.66-3.26-4.16-5.06c-.76-.9-1.51-1.75-2.27-2.55s-1.53-1.54-2.3-2.23-1.54-1.32-2.32-1.89a25.27,25.27,0,0,0-2.36-1.56,21.23,21.23,0,0,0-2.38-1.2c-.4-.17-.8-.33-1.2-.47s-.8-.26-1.21-.37-.81-.2-1.21-.28-.81-.14-1.22-.19l-1.23-.09c-.41,0-.83,0-1.24,0-.83,0-1.55.09-2.21.14s-1.22.12-1.74.19-1,.16-1.43.25-.84.18-1.23.28c-.79.21-1.54.45-2.43.7s-1.93.54-3.28.85a9,9,0,0,1-1,.15,8,8,0,0,1-1,0,7.46,7.46,0,0,1-1-.1c-.32,0-.63-.12-.94-.2a15.92,15.92,0,0,1-1.84-.62c-.6-.24-1.2-.51-1.81-.79s-1.2-.54-1.8-.79a18.48,18.48,0,0,0-1.84-.67c-.31-.09-.62-.16-.94-.23s-.63-.11-.95-.14a8,8,0,0,0-1,0,6.91,6.91,0,0,0-1,.1,10,10,0,0,0-1.75.43,5.5,5.5,0,0,0-.69.29,5.07,5.07,0,0,0-.61.34,6.16,6.16,0,0,0-1,.87,12.91,12.91,0,0,0-.94,1.15c-.64.86-1.34,1.93-2.32,3.26-.5.66-1.06,1.39-1.73,2.18s-1.44,1.66-2.34,2.6-1.74,1.86-2.54,2.75-1.54,1.76-2.25,2.6-1.4,1.63-2.07,2.39-1.32,1.47-2,2.14-1.29,1.28-2,1.84c-.33.28-.66.55-1,.8s-.68.49-1,.71-.71.42-1.07.61-.74.35-1.12.5-.78.29-1.18.4a12.83,12.83,0,0,1-1.26.29c-1.73.3-3,.52-3.95.77a13,13,0,0,0-1.31.39,7.69,7.69,0,0,0-1.09.49,9.51,9.51,0,0,0-1,.66c-.36.26-.74.55-1.18.9-.87.69-1.94,1.59-3.44,2.8-.75.6-1.49,1.25-2.23,1.93s-1.46,1.4-2.18,2.15-1.43,1.51-2.13,2.29-1.41,1.58-2.1,2.38c-1.39,1.6-2.76,3.2-4.12,4.73-.69.76-1.36,1.51-2,2.22s-1.36,1.39-2,2A19.73,19.73,0,0,1,43,120.66a9.84,9.84,0,0,1-1.55,1,6.55,6.55,0,0,1-1.36.48,6.12,6.12,0,0,1-1.25.16c-.83,0-1.66,0-2.61,0a12.42,12.42,0,0,0-1.55.1,12.19,12.19,0,0,0-1.85.38,10.83,10.83,0,0,0-1.76.62,7.59,7.59,0,0,0-1.35.78,8.39,8.39,0,0,0-1.09,1,14.29,14.29,0,0,0-1,1.22c-.42.55-1,1.31-1.52,2V251.49c.21-.17.44-.34.64-.51.42-.35.81-.71,1.16-1.06.7-.7,1.38-1.43,2-2.18s1.28-1.52,1.88-2.29c1.22-1.53,2.35-3.09,3.45-4.57.55-.73,1.09-1.45,1.63-2.13s1.07-1.34,1.61-1.94a21.47,21.47,0,0,1,1.61-1.67,13,13,0,0,1,1.66-1.32c.56-.38,1.08-.7,1.57-1s1-.51,1.41-.72c.9-.42,1.75-.75,2.64-1.12.44-.19.9-.39,1.38-.62s1-.48,1.53-.79,1.13-.65,1.76-1.07,1.32-.89,2.07-1.46,1.56-1.2,2.42-1.9,1.77-1.46,2.71-2.28,1.91-1.68,2.89-2.59,2-1.85,3-2.82,2-2,3-3,1.92-2,2.84-3.07,1.79-2.05,2.62-3.07,1.6-2,2.3-3,1.36-2,2-2.92,1.22-1.9,1.77-2.82c1.12-1.83,2.12-3.55,3-5.07.46-.77.89-1.48,1.31-2.13s.83-1.24,1.22-1.75a11.5,11.5,0,0,1,1.16-1.33,6.05,6.05,0,0,1,.57-.48,3.92,3.92,0,0,1,.56-.35,5.45,5.45,0,0,1,1.09-.41,6.79,6.79,0,0,1,1-.18c.68-.08,1.35-.09,2-.21a5.1,5.1,0,0,0,1-.28,5,5,0,0,0,1.07-.56,6.82,6.82,0,0,0,1.13-1,13.24,13.24,0,0,0,1.22-1.51,17.86,17.86,0,0,0,1.1-1.84c.32-.62.6-1.23.85-1.84.49-1.22.88-2.41,1.28-3.53.2-.57.4-1.11.62-1.63a13.73,13.73,0,0,1,.73-1.49,9.15,9.15,0,0,1,.93-1.31c.18-.2.37-.39.57-.58s.42-.35.66-.52c.47-.32.92-.62,1.37-.88s.88-.48,1.31-.67a12.39,12.39,0,0,1,1.27-.47,9.51,9.51,0,0,1,1.24-.27,7.26,7.26,0,0,1,1.23-.08,7.07,7.07,0,0,1,1.21.11,7.83,7.83,0,0,1,1.23.29c.41.13.83.29,1.25.47a5.39,5.39,0,0,1,1.12.68,5.29,5.29,0,0,1,.88.89,9.27,9.27,0,0,1,.73,1c.22.37.43.77.64,1.18.42.82.84,1.69,1.37,2.58a14.41,14.41,0,0,0,.88,1.32,12,12,0,0,0,1.12,1.29c.42.42.83.79,1.23,1.12s.79.62,1.18.89c.76.52,1.5.94,2.23,1.36l1.08.65q.54.33,1.08.72c.36.27.72.56,1.08.89a12.91,12.91,0,0,1,1.11,1.11c.19.22.37.46.56.72s.38.56.57.88c.37.63.76,1.36,1.14,2.17s.78,1.68,1.18,2.61.81,1.92,1.23,2.94c.84,2,1.73,4.2,2.69,6.33.48,1.06,1,2.11,1.5,3.13s1.06,2,1.62,2.95,1.17,1.86,1.81,2.77,1.31,1.79,2,2.65,1.39,1.7,2.08,2.51,1.4,1.58,2.08,2.32c1.35,1.48,2.64,2.8,3.73,3.92s2,2,2.54,2.68a6.72,6.72,0,0,1,.64.86,2.78,2.78,0,0,1,.3.68,3.31,3.31,0,0,1,.11.6c0,.2,0,.4,0,.62a5.49,5.49,0,0,0,.08.75,6.2,6.2,0,0,0,.26,1,10.76,10.76,0,0,0,.57,1.29,18.66,18.66,0,0,0,1,1.72,9,9,0,0,0,.67.92,8.11,8.11,0,0,0,.77.78,9.1,9.1,0,0,0,.83.68c.29.2.59.39.91.57a13.38,13.38,0,0,0,1.95.92c.68.27,1.38.5,2.1.72l2.14.64c.72.21,1.43.43,2.13.67a20,20,0,0,1,2,.84,10.71,10.71,0,0,1,.94.52,9.31,9.31,0,0,1,.89.61,13.06,13.06,0,0,1,1.07.9c.34.31.67.65,1,1s.61.71.89,1.08.55.76.8,1.15a26.78,26.78,0,0,1,1.4,2.54c.43.88.84,1.81,1.22,2.75s.73,1.91,1.07,2.88.66,1.94,1,2.9c.63,1.92,1.23,3.79,1.86,5.49.31.85.63,1.65,1,2.4a20.35,20.35,0,0,0,1.06,2,7.56,7.56,0,0,0,.67.91,12.26,12.26,0,0,0,.87.92c.32.3.67.61,1.05.91s.77.6,1.2.9c.84.59,1.78,1.18,2.76,1.75s2,1.12,3.1,1.65,2.16,1,3.25,1.51,2.16.92,3.2,1.33,2,.78,3,1.11,1.8.61,2.56.84,1.67.57,2.7,1,2.17.92,3.4,1.48,2.53,1.19,3.88,1.86,2.74,1.37,4.13,2.1,2.8,1.48,4.16,2.23,2.71,1.5,4,2.22,2.47,1.44,3.56,2.1,2.08,1.29,2.92,1.86,1.69,1.15,2.54,1.77,1.69,1.27,2.54,1.94c1.68,1.33,3.35,2.74,5,4.15s3.2,2.85,4.7,4.22,2.92,2.71,4.23,3.93c.23.21.5.42.74.63Z"/>
        <path class="cls-1" d="M26.1,27V128.32c.52-.7,1.1-1.46,1.52-2a14.29,14.29,0,0,1,1-1.22,8.39,8.39,0,0,1,1.09-1,7.59,7.59,0,0,1,1.35-.78,10.83,10.83,0,0,1,1.76-.62,12.19,12.19,0,0,1,1.85-.38,12.42,12.42,0,0,1,1.55-.1c.95,0,1.78.06,2.61,0a6.12,6.12,0,0,0,1.25-.16,6.55,6.55,0,0,0,1.36-.48,9.84,9.84,0,0,0,1.55-1,19.73,19.73,0,0,0,1.85-1.56c.67-.64,1.35-1.32,2-2s1.35-1.46,2-2.22c1.36-1.53,2.73-3.13,4.12-4.73.69-.8,1.39-1.59,2.1-2.38s1.42-1.55,2.13-2.29,1.45-1.47,2.18-2.15,1.48-1.33,2.23-1.93c1.5-1.21,2.57-2.11,3.44-2.8.44-.35.82-.64,1.18-.9a9.51,9.51,0,0,1,1-.66,7.69,7.69,0,0,1,1.09-.49,13,13,0,0,1,1.31-.39c1-.25,2.22-.47,3.95-.77A12.83,12.83,0,0,0,75,95.07c.4-.11.79-.25,1.18-.4s.75-.32,1.12-.5.72-.39,1.07-.61.69-.46,1-.71.67-.52,1-.8c.66-.56,1.3-1.17,2-1.84s1.3-1.38,2-2.14,1.35-1.56,2.07-2.39,1.46-1.7,2.25-2.6,1.64-1.81,2.54-2.75,1.67-1.8,2.34-2.6,1.23-1.52,1.73-2.18c1-1.33,1.68-2.4,2.32-3.26a12.91,12.91,0,0,1,.94-1.15,6.16,6.16,0,0,1,1-.87,5.07,5.07,0,0,1,.61-.34,5.5,5.5,0,0,1,.69-.29,10,10,0,0,1,1.75-.43,6.91,6.91,0,0,1,1-.1,8,8,0,0,1,1,0c.32,0,.64.08.95.14s.63.14.94.23a18.48,18.48,0,0,1,1.84.67c.6.25,1.2.52,1.8.79s1.21.55,1.81.79a15.92,15.92,0,0,0,1.84.62c.31.08.62.15.94.2a7.46,7.46,0,0,0,1,.1,8,8,0,0,0,1,0,9,9,0,0,0,1-.15c1.35-.31,2.38-.59,3.28-.85s1.64-.49,2.43-.7c.39-.1.8-.19,1.23-.28s.91-.17,1.43-.25,1.09-.13,1.74-.19,1.38-.1,2.21-.14c.41,0,.83,0,1.24,0l1.23.09c.41,0,.81.11,1.22.19s.81.17,1.21.28.81.23,1.21.37.8.3,1.2.47a21.23,21.23,0,0,1,2.38,1.2A25.27,25.27,0,0,1,142,74.26c.78.57,1.55,1.21,2.32,1.89s1.54,1.44,2.3,2.23,1.51,1.65,2.27,2.55c1.5,1.8,2.85,3.47,4.16,5.06s2.58,3.09,3.91,4.56c.67.73,1.35,1.45,2.06,2.17s1.46,1.44,2.25,2.16,1.61,1.44,2.5,2.17,1.83,1.46,2.85,2.21c2,1.51,3.7,2.73,5.18,3.87.75.58,1.45,1.13,2.12,1.69s1.33,1.13,2,1.73,1.29,1.24,1.95,1.93,1.35,1.44,2.08,2.28,1.49,1.75,2.32,2.79,1.72,2.17,2.7,3.44c2,2.56,3.57,4.74,5.05,6.68.74,1,1.45,1.89,2.15,2.76s1.4,1.7,2.12,2.51,1.44,1.59,2.22,2.37,1.6,1.55,2.49,2.34,1.86,1.58,2.91,2.4,2.22,1.68,3.5,2.58,2.41,1.77,3.44,2.6,2,1.63,2.78,2.41,1.58,1.52,2.26,2.25,1.3,1.44,1.88,2.14c1.17,1.39,2.18,2.72,3.24,4,.54.66,1.08,1.33,1.66,2s1.19,1.33,1.87,2l3.65,3.71,1.61-1.34c2.22-1.85,4.71-4,5.82-5s3.1-2.76,5-4.54c1-.88,1.89-1.77,2.68-2.56a24.57,24.57,0,0,0,1.83-2c.39-.49.72-.92,1-1.31a11.48,11.48,0,0,1,1-1.09,12.85,12.85,0,0,1,1.19-1.05c.46-.37,1-.75,1.66-1.2a10.24,10.24,0,0,1,1.16-.64c.44-.2.92-.4,1.42-.59,1-.37,2.07-.7,3.07-1l.51-.13V27Z"/>
        <path class="cls-2" d="M185.26,317.4c-6.52,0-9.24.26-15.91,4.43-3.83,2.39-9.06,7.65-14.36,12.84S144.21,345,142.12,346.24c-6.09,3.48-10,7.68-14.82,8.71-6.09,1.3-8.7,3.44-15,5.8-6.76,2.53-8.52,4.56-15,10.21-3.24,2.83-8,6.88-12.59,10.27s-9.37,6-11.06,6.29c-5.1.73-9.63-1-15.32.46-5.36,1.34-10.45,4.36-16.62,8.47s-6.4,4.22-13.71,6.66l-1.91.62v4.91c1.15-.36,2.29-.72,3.39-1.09,7.36-2.45,8.69-3.11,14.82-7.2s10.75-6.73,15.17-7.83c4.09-1,8.53.54,14.84-.36,4-.57,8.41-3.63,13.19-7.16s9.6-7.64,12.88-10.51c6.58-5.76,7.26-7,13.55-9.36,6.74-2.53,9-4.47,14.34-5.61,6.63-1.42,10.84-6.18,16.16-9.22,3.62-2.06,8.53-7.08,13.83-12.28s10.86-10.53,13.56-12.22c6.37-4,6.91-3.72,13.43-3.72,2.72,0,3,.48,4.17,1.82a18.19,18.19,0,0,0,14.85,7,12.24,12.24,0,0,1,5.1.44,8.46,8.46,0,0,1,4.38,3.32c1.25,1.66,2.47,4,4.15,6.69,2.2,3.58,7.23,7.29,13.29,11.28A140.48,140.48,0,0,0,249.93,363a32.11,32.11,0,0,0,4.18,1.57v-4.93c-.67-.24-1.42-.53-2.28-.92a136.73,136.73,0,0,1-18.05-10.05c-5.86-3.86-10.82-8.1-11.88-9.82-1.58-2.57-2.81-4.95-4.41-7.07a13.68,13.68,0,0,0-6.63-4.93,17.09,17.09,0,0,0-6.71-.68,12.11,12.11,0,0,1-6.13-1.28c-2.8-1.23-3.66-2.54-5.11-4.16a9.92,9.92,0,0,0-7.65-3.37Z"/>
        <path class="cls-2" d="M26.1,319.74v5.06c1,.4,2.16.8,3.58,1.25,6.08,1.9,10.74,5.37,15.7,8.68a82.68,82.68,0,0,1,7.15,6.08c2.57,2.26,5.32,4.47,8.71,5.26,2.77.64,4,.68,4.75.83s1.44.4,4,1.8c5.06,2.72,16.4,10,20.35,12.21a78.5,78.5,0,0,0,11.89,4.52c1.25.4,2.51.79,3.75,1.15.47-.34,1-.67,1.44-1s1-.62,1.6-.91,1.17-.58,1.84-.87l1.11-.46c-2.48-.63-5.45-1.49-8.32-2.4a92,92,0,0,1-11-4.15c-3.38-1.88-14.86-9.26-20.4-12.24a19.69,19.69,0,0,0-5.34-2.28c-1.31-.26-2.1-.22-4.62-.8-1.91-.44-4.26-2.09-6.68-4.21A75.62,75.62,0,0,0,48,330.83c-4.81-3.21-9.94-7.07-16.9-9.25a34.51,34.51,0,0,1-5-1.84Z"/>
        <path class="cls-2" d="M254.11,310.9c-1.2.59-2.61,1.32-4.38,2.31-3.36,1.9-5.4,3.39-7.08,4.44a15.23,15.23,0,0,1-5.34,2.25c-5.81,1.34-8.77,4.19-12.75,7.38-3.79,3-4.2,4-8,7.34l.08.12c.34.52.67,1.08,1,1.65.43.73.88,1.5,1.36,2.3,4.52-3.9,4.73-4.79,8.43-7.75,4.17-3.33,6.1-5.37,10.88-6.48a20.79,20.79,0,0,0,6.79-2.84c1.89-1.19,3.72-2.55,6.88-4.33.76-.42,1.45-.8,2.08-1.13Z"/>
        <path class="cls-2" d="M109.29,167a10.23,10.23,0,0,0-1.56.11,14.35,14.35,0,0,0-6.27,2.61c-2.5,1.75-3.54,4.32-4.37,6.66a26.73,26.73,0,0,1-3,6.65c-1.45,2.1-2,2.2-2.92,2.35a12.34,12.34,0,0,0-4.81,1c-2.62,1.31-3.93,3.84-5.79,6.93s-4,6.85-6.68,10.66c-5.36,7.5-15.47,16.89-21.23,21.21a26.28,26.28,0,0,1-6.24,3.65,31,31,0,0,0-6,3c-5.49,3.66-9,11.14-14.21,16.39l-.15.14v6a27.76,27.76,0,0,0,3.46-2.87c6-6,10-13.49,13.5-15.82a26.7,26.7,0,0,1,5.23-2.6A32.15,32.15,0,0,0,55.52,229c6.23-4.67,16.35-14,22.23-22.24,2.9-4.06,5.09-8,6.89-11a22,22,0,0,1,3.86-5.15c.87-.43,1.7-.27,3.52-.58a9.49,9.49,0,0,0,6-4.3A29.88,29.88,0,0,0,101.5,178c.77-2.16,1.41-3.52,2.65-4.39,3.35-2.34,5-2.51,7.82-1.28,1,.43,1.44,1.17,2.24,2.73a20.46,20.46,0,0,0,3.8,5.78,22.6,22.6,0,0,0,5.11,3.74,13.28,13.28,0,0,1,3.78,2.9c.93,1,2.59,4.59,4.27,8.66a96.57,96.57,0,0,0,6,12.71,67.48,67.48,0,0,0,8.24,10.64c2.77,3,5.29,5.45,6.22,6.54s.46.25.52,1.36a12.26,12.26,0,0,0,2.29,5.87c2.14,3.33,5.54,4.65,8.51,5.56s5.67,1.58,7.39,2.9a13.71,13.71,0,0,1,3.19,3.51,49.51,49.51,0,0,1,4.42,10.55c1.26,3.82,2.36,7.55,4.13,10.42,2.07,3.37,6.18,5.73,10.6,7.92A86.35,86.35,0,0,0,205,279c5.26,1.6,21.66,10.23,28.11,14.53s13.44,10.9,18.7,15.78c.73.68,1.51,1.35,2.33,2v-6.21c-5.13-4.78-11.79-11-18.43-15.45-7-4.69-22.45-13-29.34-15.12a82.9,82.9,0,0,1-11.62-4.64c-4.12-2.05-7.77-4.68-8.69-6.18-1.23-2-2.4-5.57-3.67-9.43a52.34,52.34,0,0,0-4.91-11.59,18.31,18.31,0,0,0-4.31-4.73c-2.84-2.18-6.14-2.82-8.86-3.66s-4.71-1.7-5.95-3.61c-1.54-2.41-1.51-2.92-1.55-3.59a7.09,7.09,0,0,0-1.63-4.16c-1.32-1.54-3.67-3.77-6.33-6.66a64.84,64.84,0,0,1-7.68-9.88,95.52,95.52,0,0,1-5.64-12.09c-1.69-4.08-3-7.65-5.1-10a18.37,18.37,0,0,0-4.93-3.84,17.73,17.73,0,0,1-4.15-3,17.12,17.12,0,0,1-2.95-4.61,9.66,9.66,0,0,0-4.5-4.87,11.21,11.21,0,0,0-4.58-1Z"/>
        <path class="cls-1" d="M254.11,137.4l-.51.13c-1,.28-2.08.61-3.07,1-.5.19-1,.39-1.42.59a10.24,10.24,0,0,0-1.16.64c-.66.45-1.2.83-1.66,1.2A12.85,12.85,0,0,0,245.1,142a11.48,11.48,0,0,0-1,1.09c-.32.39-.65.82-1,1.31a24.57,24.57,0,0,1-1.83,2c-.79.79-1.73,1.68-2.68,2.56-1.91,1.78-3.91,3.55-5,4.54s-3.6,3.11-5.82,5l-1.61,1.34.94,1c1.69,1.71,3.5,3.54,5.36,5.36.93.92,1.87,1.82,2.82,2.72s1.88,1.76,2.82,2.6,1.87,1.64,2.78,2.39,1.8,1.46,2.66,2.1,1.7,1.29,2.51,1.94,1.6,1.33,2.38,2c1.57,1.36,3.1,2.75,4.69,4.18l1,.87Z"/>
        <path class="cls-2" d="M103.8,66.76a11.31,11.31,0,0,0-1.62.14,9.77,9.77,0,0,0-6.53,4,58.21,58.21,0,0,1-6.2,7.81c-3.71,3.86-6.38,7.36-8.82,9.87s-4.48,4-7.32,4.47c-3.47.6-5.28.94-7.06,1.9s-3.06,2.22-6,4.59c-6.45,5.15-11.87,13-17,17.86-2.47,2.33-3.28,2.46-4.51,2.51a21,21,0,0,0-6.53.54,11.5,11.5,0,0,0-6.11,4v7.66c1.57-1.89,2.57-3.35,3.37-4.38a5.77,5.77,0,0,1,4-2.78c2.28-.63,3.42-.27,5.49-.37s4.58-1,7.52-3.79c5.71-5.39,11.1-13.14,16.68-17.6a57.54,57.54,0,0,1,5.32-4.13c1-.54,2.2-.81,5.64-1.41,4.08-.71,7.14-3,9.88-5.82S89.33,85.6,92.83,82a60.51,60.51,0,0,0,6.58-8.27c1.14-1.55,1.23-1.78,3.54-2.16,1.86-.31,3.74.49,6.16,1.59s5.43,2.48,9,1.69c2.81-.63,4.35-1.18,5.79-1.56a27,27,0,0,1,6.13-.79c5.62-.26,11.27,3.07,17,10,5.95,7.15,9.78,12.52,18.13,18.71,8.15,6,10.13,7.16,17.87,17.28s10.52,14.77,20.95,22.13c9.9,7,11.07,11.42,16.82,17.17,5.35,5.35,14.05,14.71,21.3,20.06,4.19,3.1,7.68,6.53,12,10.26v-6.27c-3-2.67-5.82-5.25-9.2-7.75-6.58-4.86-15.31-14.14-20.78-19.61-5.07-5.07-6.9-10.26-17.43-17.69-10-7.07-12.07-10.87-19.93-21.15s-10.71-12.2-18.8-18.19c-7.87-5.83-11.26-10.67-17.33-17.95-6.26-7.51-13.24-12-20.84-11.66a32.48,32.48,0,0,0-7.09.94c-1.72.45-3,.94-5.63,1.52-1.85.41-3.65-.31-6-1.39a19.19,19.19,0,0,0-6.31-2c-.31,0-.62,0-.93,0Z"/>
        <path class="cls-2" d="M254.11,135a28.22,28.22,0,0,0-9.68,5.32c-3,2.43-5.91,5.42-10,9.21-3.33,3.1-6.85,6.16-9.86,8.69l2.48,2.53.82.82c3-2.52,6.45-5.54,9.75-8.61,4.15-3.87,7.06-6.83,9.74-9a23.1,23.1,0,0,1,6.73-4Z"/>
        <path class="cls-3" d="M239.59,75.29A28.27,28.27,0,1,1,211.32,47a28.27,28.27,0,0,1,28.27,28.27Z"/>
        <path class="cls-2" d="M56.55,106.22c-.47.5-.94,1-1.4,1.52l-1,1.11c4.47,8,11.89,14.43,20.54,20.11,12.3,8.08,27.23,14.73,40.45,22.19s24.66,15.71,30.22,26.62c4.84,9.5,5.48,21.15-1.16,36.81.27.32.53.64.8.95.55.63,1.09,1.24,1.63,1.83,7.56-17.07,7.17-30.4,1.71-41.11-6.09-11.94-18.14-20.44-31.56-28S88.51,134,76.54,126.16c-8.8-5.78-16-12.14-20-19.94Z"/>
        <path class="cls-2" d="M44.1,119.78c-.38.34-.75.63-1.09.88l-.5.34c4.24,7,10.91,12.11,18.74,16.28C72.84,143.47,87,147.65,100,152.64s24.78,10.82,31.64,20c5.58,7.48,8.06,17.24,5.36,31,.16.33.32.66.49,1,.31.61.63,1.21.95,1.79,3.55-15.44,1.05-26.6-5.19-35-7.28-9.76-19.42-15.66-32.53-20.7s-27.24-9.21-38.56-15.26c-7.72-4.12-14.11-9.06-18.09-15.73Z"/>
        <path class="cls-2" d="M26.1,146.43v2.27c14.38,7.52,30.56,9.73,45.1,11.19,11.15,1.12,21.38,1.82,29.09,4.07,4.34,1.26,7.84,2.95,10.35,5.45a9.71,9.71,0,0,1,1,.26c.41.13.83.29,1.25.47a5.39,5.39,0,0,1,1.12.68,6.89,6.89,0,0,1,.56.52c-2.77-4.7-7.66-7.54-13.75-9.31-8.06-2.34-18.34-3-29.45-4.14-14.82-1.49-31.06-3.73-45.3-11.46Z"/>
        <path class="cls-2" d="M26.1,160.28v2.13c12.9,4.81,26.8,5.47,39.41,5.54,10.94.07,20.95-.27,28.48,1.2a23.2,23.2,0,0,1,8.18,3,6.51,6.51,0,0,1,.64-.51c.38-.26.75-.51,1.12-.73a24.3,24.3,0,0,0-9.56-3.73c-7.9-1.54-18-1.17-28.84-1.23-12.81-.08-26.69-.75-39.43-5.67Z"/>
        <path class="cls-2" d="M88.22,173.48c-7.45.05-16.62,2-26.53,3.52-10.57,1.63-21.95,2.82-32.76.92-.95-.17-1.89-.36-2.83-.57v2.05c.82.18,1.65.35,2.48.5,11.19,2,22.78.73,33.41-.92s20.36-3.69,27.64-3.47c3.64.1,6.63.78,8.87,2.23l.48.34c.1-.31.21-.62.32-.91s.25-.71.39-1l-.1-.07c-2.68-1.74-6-2.43-9.9-2.55l-1.47,0Z"/>
        <path class="cls-2" d="M78.92,182.09q-1.83,0-3.72.15c-8.09.69-17.09,3.48-26.56,5.81-7.33,1.81-14.93,3.34-22.54,3.47v2c7.87-.13,15.62-1.71,23-3.53,9.54-2.35,18.5-5.1,26.25-5.76,6.19-.53,11.53.22,16,3.5l.26,0a5.1,5.1,0,0,0,1-.28,4.78,4.78,0,0,0,.93-.47c-4.18-3.49-9.19-4.82-14.66-4.86Z"/>
        <path class="cls-2" d="M73.62,190.39a33.63,33.63,0,0,0-7.93,1.06c-8.35,2-17.55,6.62-26.78,10.81-4.3,2-8.61,3.82-12.81,5.32v2.14c4.51-1.57,9.09-3.56,13.64-5.63,9.27-4.21,18.42-8.74,26.43-10.69a26.36,26.36,0,0,1,11-.7,14.52,14.52,0,0,1,5.34,2.1,2.2,2.2,0,0,1,.15-.26c.3-.51.6-1,.89-1.45a16.82,16.82,0,0,0-6-2.36,21.57,21.57,0,0,0-2.81-.32c-.35,0-.71,0-1.08,0Z"/>
        <path class="cls-2" d="M72.89,196.5a31.46,31.46,0,0,0-8.3,1.24c-8.16,2.24-17.1,7.09-26.06,11.55-4.17,2.07-8.35,4.05-12.43,5.66v2.17c4.41-1.69,8.88-3.83,13.32-6,9-4.47,17.9-9.26,25.7-11.4a25.05,25.05,0,0,1,10.72-.93,14.53,14.53,0,0,1,3.61,1.11l.15-.25.89-1.46a16,16,0,0,0-4.3-1.38,19.54,19.54,0,0,0-2.77-.26Z"/>
        <path class="cls-2" d="M62.15,210.47A26.57,26.57,0,0,0,52,212.53c-6.87,2.76-13.15,7.77-19.37,12.26-2.19,1.58-4.37,3.09-6.55,4.43v2.35c2.62-1.54,5.18-3.31,7.73-5.15,6.27-4.53,12.46-9.42,18.94-12,5.11-2,10.35-2.74,16.16-.79.5-.53,1-1.06,1.47-1.6a24.29,24.29,0,0,0-7.54-1.51l-.71,0Z"/>
        <path class="cls-2" d="M171.68,103.07c4.54,15.84,5,37.19,2.13,59-3.08,23.66-10,47.9-19.15,66.42,0,.13.08.28.13.43a10.76,10.76,0,0,0,.57,1.29,18.66,18.66,0,0,0,1,1.72c0,.09.11.17.16.25,10-19.25,17.35-44.73,20.6-69.67,2.62-20.12,2.62-39.85-1-55.71l-.27-.26c-.65-.6-1.3-1.17-2-1.73s-1.37-1.11-2.12-1.69l-.08-.06Z"/>
        <path class="cls-2" d="M191.45,125.6c2.79,14.28,3.86,31.15,3.13,48.27-1.16,27.12-6.83,54.9-17,74.11.17.41.35.82.52,1.24l.45,1.18c10.94-19.71,16.85-48.41,18-76.45a218.33,218.33,0,0,0-2.47-45.14c-.67-.77-1.33-1.55-2-2.38l-.66-.83Z"/>
        <path class="cls-2" d="M199.54,134.17c10.67,44.85.71,93.62-17.21,127.2.21.53.42,1,.64,1.52.13.28.25.55.39.81,18.29-33.44,28.74-82.14,18.72-127.47l-.23-.18c-.82-.64-1.59-1.27-2.31-1.88Z"/>
        <path class="cls-2" d="M216.75,149.3c2.11,18.38-.09,37.29-4.64,54.93-6.38,24.69-17.38,46.87-27.49,61.51l.08.1a12.26,12.26,0,0,0,.87.92l.48.43c10.34-14.85,21.51-37.33,28-62.45,4.34-16.83,6.58-34.84,5-52.53l-.12-.14c-.73-.91-1.44-1.83-2.2-2.77Z"/>
        <path class="cls-2" d="M231.62,165.3c3.53,46-26.4,85-43.39,103.55.55.37,1.12.74,1.72,1.1C206.86,251.4,236.26,213,233.78,167.4l-1.35-1.31-.81-.79Z"/>
        <path class="cls-2" d="M245,177.07c-1.62,23.47-10.22,46-21.19,61.26a1,1,0,0,0,1.48,1.34c9.16-8,18.88-12.26,28.78-15.87v-2.14c-8.51,3.09-17,6.61-25.22,12.6a127.08,127.08,0,0,0,18.05-55.66l-.92-.76-1-.77Z"/>
        <path class="cls-2" d="M254,184.82c-.5,3.81-1.16,7.57-2,11.14-2.08,9-5.18,16.86-8.85,21.39a1,1,0,0,0,1.35,1.46,35.84,35.84,0,0,1,9.58-5v-2a34.27,34.27,0,0,0-6.82,3,68.45,68.45,0,0,0,6.7-18.38l.12-.54v-11l-.09-.07Z"/>
        <path class="cls-2" d="M254.11,232.55c-21.65,8-44.62,18.76-61.53,38.86l1.1.56.75.37c16.36-19.25,38.5-29.76,59.68-37.65Z"/>
        <path class="cls-2" d="M254.11,246.71c-16.9,7.51-31.08,17.21-44.07,31.74l1.72.77.2.1c12.47-13.84,26-23.15,42.15-30.41Z"/>
        <path class="cls-2" d="M254.11,264.34c-9,7.2-16.5,15.33-23.94,24.62l1.29.77.45.28a151.32,151.32,0,0,1,22.2-23.1Z"/>
        <path class="cls-2" d="M254.11,286a115.69,115.69,0,0,0-9.21,13.87l1.54,1.36a115,115,0,0,1,7.67-11.89Z"/>
        <path class="cls-2" d="M109.23,169.27h-.45a61.94,61.94,0,0,1,6.25,2.57,1.71,1.71,0,0,0-.11-.14,5.29,5.29,0,0,0-.88-.89,5.39,5.39,0,0,0-1.12-.68c-.42-.18-.84-.34-1.25-.47a7.83,7.83,0,0,0-1.23-.29,7.07,7.07,0,0,0-1.21-.11Z"/>
        <path class="cls-2" d="M100.71,174l-.06.09a13.73,13.73,0,0,0-.73,1.49l-.09.21c9.67,4.85,15.64,11.2,19.33,18.51,5.18,10.28,5.82,22.6,5.39,35.41s-1.91,26.07-.78,38.24,4.93,23.3,15.1,31.5c15.8,12.72,41.63,15.7,65.07,13.84a148.79,148.79,0,0,0,31.86-5.91,73.63,73.63,0,0,0,12.07-4.83l-1.63-1.46a72.91,72.91,0,0,1-11,4.38,146.82,146.82,0,0,1-31.42,5.82c-23.16,1.83-48.57-1.26-63.65-13.41-9.67-7.79-13.26-18.25-14.36-30.12s.36-25.07.79-38-.17-25.59-5.61-36.38c-3.87-7.69-10.22-14.36-20.24-19.4Z"/>
        <path class="cls-2" d="M96.31,184l-.24.37c-.33.46-.64.86-.94,1.21a22.63,22.63,0,0,1,10.3,10.21c4.42,8.52,4.88,20.56,4.66,33.77s-1.1,27.59,1,40.88,7.13,25.56,18.77,34.25c12,8.94,26.92,14.59,43,17.76.68-.38,1.3-.72,1.88-1,.41-.2.79-.37,1.16-.53-16.88-3-32.57-8.66-44.85-17.83-11.14-8.33-16-20-18-33s-1.17-27.25-1-40.53S112,204,107.21,194.87A24.66,24.66,0,0,0,96.31,184Z"/>
        <path class="cls-2" d="M83.37,193.31c-.24.4-.49.8-.74,1.23l-.31.52a26.64,26.64,0,0,1,4.87,2.42c5.19,3.3,8.29,8,10.17,13.86C101.12,223,99.8,239.17,100,255.8s1.91,33.85,12.22,47.69c9.11,12.24,24.87,21.69,51.75,25.8l.42-.39,1.49-1.35c-27.51-3.91-43.13-13.27-52.05-25.25-9.9-13.29-11.65-30-11.83-46.52s1.26-32.73-2.71-45.05c-2-6.16-5.38-11.37-11-14.94a28.8,28.8,0,0,0-4.9-2.48Z"/>
        <path class="cls-2" d="M136.9,203.39a100.19,100.19,0,0,1-.08,17.9c-.93,11.75-3,24-2.85,35.54s2.44,22.29,10.37,30.76c15.34,16.4,38.25,19.82,58.76,17.4A107.68,107.68,0,0,0,231,297.86a78.67,78.67,0,0,0,7.33-3.46l-1.37-1-.42-.3c-1.93,1-4,2-6.31,2.94a105.74,105.74,0,0,1-27.32,7c-20.13,2.37-42.31-1-57.07-16.78-7.48-8-9.71-18.16-9.83-29.41s1.92-23.49,2.85-35.37a117.4,117.4,0,0,0,.4-13.71l-.08-.13c-.56-.94-1.1-1.93-1.62-2.95-.21-.41-.42-.84-.62-1.26Z"/>
        <path class="cls-2" d="M75.6,205.68c-.4.56-.83,1.12-1.27,1.69a27.38,27.38,0,0,1,6.18,2.85c5,3.2,7.9,7.76,9.53,13.43,3.24,11.34,1.23,27,.71,43.24s.5,33,10.3,46.52c8.87,12.25,24.85,21.66,52.9,25.55l1.82-1.77c-28.66-3.71-44.45-13-53.1-25C93.31,299.29,92.24,283,92.76,267s2.65-31.85-.79-43.86c-1.72-6-4.91-11.09-10.38-14.57a28.64,28.64,0,0,0-6-2.85Z"/>
        <path class="cls-2" d="M63.53,219l-1.39,1.29-.32.29a31,31,0,0,1,6.89,2.82A23.29,23.29,0,0,1,79.3,236.14c4,10.74,2.9,25.71,2.7,41.43s.55,32.23,8.79,46.15c7.58,12.78,21.47,23.2,46.31,28.69l2.15-1.54.06,0c-25.59-5.28-39.34-15.57-46.79-28.14-7.92-13.35-8.72-29.46-8.51-45.1s1.45-30.74-2.83-42.16a25.49,25.49,0,0,0-11.47-13.76A31.43,31.43,0,0,0,63.53,219Z"/>
        <path class="cls-2" d="M150.5,221.43c-9.48,25.12-8.27,49.31,5.31,63.65,7.13,7.53,17.64,12.24,31.54,12.89,12.08.56,26.73-1.93,44.09-8.25l-2.23-1.33c-16.5,5.84-30.39,8.1-41.77,7.57-13.49-.62-23.43-5.14-30.18-12.26-12.68-13.39-14.15-36.36-5.21-60.67l-1.22-1.26-.33-.34Z"/>
        <path class="cls-2" d="M52.18,228.44l-.13.09c-.63.42-1.21.77-1.76,1.07s-1,.56-1.53.79-.68.31-1,.45a26.54,26.54,0,0,1,8.39,2.83c4.86,2.68,8.1,6.8,10.41,12.15,4.6,10.71,5.1,26.28,6.14,42.6s2.67,33.43,10.17,47.49c6.19,11.6,16.49,21,33.36,25.78l1.14-.5c1.23-.55,2.33-1.08,3.4-1.56l.32-.14c-18.56-4.16-29-13.37-35.27-25.16-7.06-13.22-8.75-29.89-9.78-46.13s-1.39-32-6.41-43.7c-2.51-5.84-6.28-10.68-11.87-13.76a28.15,28.15,0,0,0-5.57-2.3Z"/>
        <path class="cls-2" d="M162.59,236.21c-8.92,16.45-7.24,33.62,2.37,43.71,5.42,5.69,13.34,9.06,23.06,8.77,7.73-.23,16.61-2.76,26.36-8.22l-2.24-1.07c-9,4.86-17.16,7.08-24.18,7.29-9.23.27-16.53-2.89-21.54-8.15-9-9.43-10.68-25.8-1.88-41.73l-.94-.28-1-.32Z"/>
        <path class="cls-2" d="M177,246.66c-5,5.26-7.7,10.29-8.51,14.8a13.62,13.62,0,0,0,5.18,13.85c5.92,4.38,15.6,4.65,24.83-1.17l-1.53-.66-.73-.32c-8.26,4.68-16.51,4.13-21.38.54-3.49-2.58-5.34-6.66-4.4-11.88.7-3.86,3-8.35,7.43-13.17-.28-.67-.58-1.34-.89-2Z"/>
        <path class="cls-2" d="M240.1,321.53A223.71,223.71,0,0,1,191.74,323l.45.52c.36.4.76.81,1.21,1.22l.6.51a222.82,222.82,0,0,0,38-.7l.81-.48c.48-.26,1-.5,1.49-.73s1.06-.43,1.65-.62,1.2-.36,1.86-.52,1.26-.32,1.81-.5l.45-.15Z"/>
        <path class="cls-2" d="M26.1,331.32v2.61c7.47,6.13,15.11,13.78,23.77,21,11.86,9.91,25.71,19,43.8,22.19.7-.58,1.38-1.15,2-1.7-18.47-2.8-32.43-11.92-44.53-22-9.06-7.58-17-15.71-25.06-22.1Z"/>
        <path class="cls-2" d="M26.1,340.62v2.86C32.05,349.37,38,356.34,44.72,363c9.89,9.82,21.52,19,37.4,22.91l.53-.35,1.71-1.18c-16.34-3.55-28.08-12.73-38.23-22.8-7.16-7.12-13.48-14.69-20-21Z"/>
        <path class="cls-2" d="M26.1,353.84v3.53c4,5.75,7.88,12.2,12.06,18.42S46.91,388,52.44,392.73l.9-.44,1.11-.5c-5.62-4.62-10.29-10.68-14.62-17.12-4.69-7-9-14.41-13.73-20.83Z"/>
        <path class="cls-2" d="M26.1,370.47v5.29c3.24,7.71,7.42,16.05,15.71,23.44l1.2-.8.52-.34c-8.82-7.68-12.85-16.42-16.22-24.62l-1.21-3Z"/>
        <path class="cls-2" d="M26.1,390v4.68A35.6,35.6,0,0,0,33,403.87l.23-.08c.67-.25,1.26-.48,1.82-.72a34.48,34.48,0,0,1-8.93-13Z"/>
        <path class="cls-2" d="M185.26,319.74H184a38.06,38.06,0,0,1,11.33,25.64,11.53,11.53,0,0,0,4.71,9.08c2.62,2,5.83,3.3,9.16,5.08,6.66,3.55,13.91,8.68,18,23.92,1.48,5.48,3.58,8.42,6.23,10.14s5.47,2.24,8.62,3.66c3.36,1.52,7.34,4,12.09,9.9v-5a33,33,0,0,0-10.71-7.94c-3.51-1.58-6.24-2.16-8.18-3.42s-3.46-3.16-4.82-8.19c-4.32-16.05-12.67-22.28-19.66-26-3.5-1.86-6.62-3.18-8.71-4.78a7.62,7.62,0,0,1-3.4-6.56,41.22,41.22,0,0,0-9.38-24.59l-.31-.17a6.16,6.16,0,0,0-.73-.31,6.4,6.4,0,0,0-.84-.23,6.81,6.81,0,0,0-1-.15c-.35,0-.73-.05-1.14-.05Z"/>
        <path class="cls-2" d="M177.3,320.42c-.3.09-.61.2-.92.31s-.86.35-1.31.56a28.57,28.57,0,0,1,11.91,15c2.91,8.24,2.8,18.05,3.6,28.76s2.52,22.31,9.31,34A73.23,73.23,0,0,0,214,416.36h3a72.32,72.32,0,0,1-15.39-18.24c-6.58-11.35-8.27-22.58-9-33.18s-.63-20.56-3.7-29.27a30.73,30.73,0,0,0-11.58-15.25Z"/>
        <path class="cls-2" d="M172.41,322.71c-.55.32-1.13.67-1.76,1.06,7.77,8,10.46,15.7,9.94,23.44-.62,9.42-6.13,19-13.67,28.67-10.33,13.26-24.42,26.64-34.4,40.48h2.57c9.77-13.15,23.26-26.21,33.42-39.25,7.64-9.81,13.41-19.67,14.09-29.76.54-8.2-2.37-16.45-10.19-24.64Z"/>
        <path class="cls-2" d="M168.29,325.48l-.51.42L166.5,327c2.13,14.69-1,26.32-7.3,36.05-7.35,11.38-19.09,20.14-31.88,27.77s-26.6,14.1-38,21c-2.45,1.49-4.79,3-7,4.53h3.59Q88,415,90.33,413.55c11.29-6.83,25.11-13.32,38-21s24.91-16.6,32.54-28.41c6.69-10.35,9.93-22.94,7.4-38.64Z"/>
        <path class="cls-2" d="M162.7,330.46c-.64.61-1.3,1.23-2,1.87-.05,10.8-4,19.89-10.31,27.91-8.78,11.07-22.31,20-36.83,28s-30,15-42.68,22.37c-3.24,1.88-6.3,3.79-9.12,5.75h3.61c2.06-1.35,4.24-2.69,6.52-4C84.47,405.05,100,398,114.56,390s28.37-17.07,37.44-28.51c6.94-8.75,11.09-18.95,10.7-31Z"/>
        <path class="cls-2" d="M140.84,349.78c-.54.36-1.07.73-1.59,1.09l-1,.71a41.16,41.16,0,0,1-9.1,14.87c-9.12,9.89-23.07,17.5-38,24.21s-30.77,12.52-43.72,19a108,108,0,0,0-11.73,6.69h3.75c2.73-1.68,5.7-3.31,8.88-4.9,12.79-6.4,28.64-12.22,43.65-19s29.17-14.42,38.64-24.68a42.27,42.27,0,0,0,10.2-18Z"/>
        <path class="cls-2" d="M254.11,141.51a63.77,63.77,0,0,0-13.2,5.2c-.72.7-1.52,1.46-2.34,2.22-1.91,1.78-3.91,3.55-5,4.54s-3.6,3.11-5.82,5l-1.61,1.34.57.58a56.84,56.84,0,0,1,27.41-16.74Z"/>
        <path class="cls-2" d="M254.11,148.12a55.34,55.34,0,0,0-22.59,17.08l.91.89.52.51a53.43,53.43,0,0,1,21.16-16.37Z"/>
        <path class="cls-2" d="M254.11,165.8A41.73,41.73,0,0,0,246,177.86c.55.44,1.08.9,1.62,1.35a39.75,39.75,0,0,1,6.45-10.34Z"/>
        <path class="cls-2" d="M254.11,313.54l-.63.32c-5.64,8.92-14.32,22.44-18.65,38.31l1.78,1.1c3.92-14.77,11.81-27.6,17.5-36.63Z"/>
        <path class="cls-2" d="M240.2,321.49l-.55.19c-.55.18-1.15.35-1.81.5l-.7.18a70.21,70.21,0,0,0-11.07,23.74c.55.44,1.13.87,1.73,1.31,3.24-12.81,8-19.68,12.4-25.92Z"/>
        <path class="cls-2" d="M254.11,330.42a107.61,107.61,0,0,0-10.76,26.74l1.83,1a101.6,101.6,0,0,1,8.93-23.45Z"/>
      </g>
      <g>
        <path class="cls-4" d="M.11.55l.2,115.62,0-3.55v-.48l0-3.08v-1.78l0-2.8v-.74l0-3.1v-.42l0-11v-.46h0L.56,87l0-1.73V67.82l0-1.37,0-1.72V63l0-1.7V59.64L.72,58l0-1.38v-.29l0-1.65L.79,53v-.06l0-1.57,0-1.62v-.4l0-1.2,0-1.6V45c0-1.94,0-3.86.06-5.72v-.43l0-3v-.12l0-3.16v-.11l0-2.71v-.56l0-2.7v-.12c0-.86,0-1.71,0-2.54v-.52l0-2.42v-.31c0-.81,0-1.62,0-2.41V18c0-.78,0-1.55,0-2.3V10.81c0-1,0-1.85,0-2.7,0-.48,0-.93,0-1.38V6.59a1.55,1.55,0,0,0,0-.22q0-1.38,0-2.55c0-.2,0-.39,0-.58V3.07c0-.11,0-.22,0-.33s0-.41,0-.6,0-.38,0-.56l275.22-.13L276,440.64C242.3,440,13.19,443,2.19,439.4q-.1-.34-.21-.78H2c-.07-.3-.13-.61-.2-.95v0c-.07-.34-.12-.7-.18-1.09v-.08c-.06-.38-.11-.78-.16-1.21l0-.16c0-.4-.1-.83-.14-1.27l0-.28c0-.41-.08-.86-.11-1.31l0-.43c0-.42-.06-.85-.09-1.3l0-.6q0-.61-.09-1.26c0-.28,0-.57,0-.86L.75,426.7c0-.4,0-.8-.06-1.21s0-.6,0-.91q0-.72-.06-1.47l0-.77-.06-1.71,0,21.22,277.5-.13V0Z"/>
        <path class="cls-5" d="M1,1.58c0,.18,0,.37,0,.56s0,.4,0,.6,0,.22,0,.33,0,.49,0,.75q0,1.17,0,2.55c0,.56,0,1.13,0,1.74,0,.85,0,1.75,0,2.7v3.27C1.2,73.37-2.07,426,2.19,439.4c11,3.63,240.11.64,273.81,1.24l.26-439.19ZM35.28,405.94V34.39H243.41V405.94Z"/>
        <path class="cls-6" d="M6,4.68C3.38,14.21,3.73,419.31,5.4,436.4l268,.65.42-431.66ZM35.28,405.94V34.39H243.41V405.94Z"/>
        <path class="cls-7" d="M8.36,7.62l.22,426.3,261.56-.43.14-426.3ZM243.41,34.39V405.94H35.28V34.39Z"/>
        <path class="cls-8" d="M267.71,10l-257,.28L11,431.39,268.12,431Zm-232.43,396V34.39H243.41V405.94Z"/>
        <path class="cls-9" d="M13.49,11.5l0,417.32,252.23-.41.16-416.84ZM35.28,405.94V34.39H243.41V405.94Z"/>
        <path class="cls-8" d="M261,15.08c-12.91-3-231.11-2.6-244.06.28L16.54,425l245.61.43C264.84,413.53,264.23,23.14,261,15.08ZM35.28,405.94V34.39H243.41V405.94Z"/>
        <path class="cls-10" d="M17.37,16.43l0,407.74,243.48.53.37-407.81Zm226,18V405.94H35.28V34.39Z"/>
        <path class="cls-6" d="M259.25,18.94C248.62,16.36,35.88,16,20.32,18.39,17.9,26.1,17.66,410,19.8,422.06c12.65,3.22,217.71,2.75,239.17.51C261.56,411.7,261.19,33.65,259.25,18.94Zm-224,387V34.39H243.41V405.94Z"/>
        <path class="cls-11" d="M24,23.33l.13,394.61H254.41l.14-394.54ZM243.41,405.94H35.28V34.39H243.41Z"/>
        <path class="cls-9" d="M27.14,25.23,26.4,415.29l225.59.33.54-390.08ZM243.41,405.94H35.28V34.39H243.41Z"/>
      </g>
    </g>
  </g>
</svg>
