<svg xmlns="http://www.w3.org/2000/svg" xmlns:xlink="http://www.w3.org/1999/xlink" viewBox="0 0 173.63 312.66">
  <defs>
    <style>
      .cls-1 {
        fill: #b58d5d;
      }

      .cls-2 {
        fill: #dab073;
      }

      .cls-13, .cls-3, .cls-4, .cls-6, .cls-8 {
        fill: #fff;
      }

      .cls-3 {
        opacity: 0.24;
      }

      .cls-4 {
        opacity: 0.26;
      }

      .cls-5 {
        fill: url(#linear-gradient);
      }

      .cls-6 {
        opacity: 0.15;
      }

      .cls-7 {
        opacity: 0.05;
      }

      .cls-8 {
        opacity: 0.43;
      }

      .cls-9 {
        fill: #ededed;
      }

      .cls-10, .cls-14 {
        opacity: 0.18;
      }

      .cls-11 {
        fill: #b7b7b7;
      }

      .cls-12 {
        opacity: 0.35;
      }

      .cls-15 {
        fill: #ad8959;
      }
    </style>
    <linearGradient id="linear-gradient" x1="15.29" y1="163.46" x2="158.3" y2="163.46" gradientUnits="userSpaceOnUse">
      <stop offset="0" stop-color="#cdcdcd"/>
      <stop offset="0.03" stop-color="#d4d4d4"/>
      <stop offset="0.15" stop-color="#ebebeb"/>
      <stop offset="0.22" stop-color="#f3f3f3"/>
      <stop offset="0.55" stop-color="#b9b9b9"/>
      <stop offset="0.63" stop-color="#bebebe"/>
      <stop offset="0.72" stop-color="#cbcbcb"/>
      <stop offset="0.82" stop-color="#e1e1e1"/>
      <stop offset="0.85" stop-color="#e9e9e9"/>
      <stop offset="1" stop-color="#acacac"/>
    </linearGradient>
  </defs>
  <title>Asset 15</title>
  <g id="Layer_2" data-name="Layer 2">
    <g id="Layer_1-2" data-name="Layer 1">
      <g>
        <g>
          <path class="cls-1" d="M158.55,278.84c-15.63-5.7-41.93-9.44-71.73-9.44s-56.11,3.74-71.74,9.44L0,275.49V291C0,303,38.87,312.66,86.82,312.66S173.63,303,173.63,291V275.49Z"/>
          <ellipse class="cls-2" cx="86.82" cy="275.49" rx="86.82" ry="21.63"/>
          <path class="cls-3" d="M102.3,254.21c15.48,3.9,25,9.27,25,15.19,0,11.94-38.87,21.63-86.82,21.63-5.28,0-10.46-.12-15.48-.35,15.74,4,37.61,6.44,61.79,6.44,47.94,0,86.81-9.68,86.81-21.63C173.63,264.86,142.86,256,102.3,254.21Z"/>
          <path class="cls-4" d="M86.82,295.9c-47.13,0-85.49-9.35-86.79-21,0,.21,0,.41,0,.61,0,11.95,38.87,21.63,86.82,21.63s86.81-9.68,86.81-21.63c0-.2,0-.4,0-.61C172.3,286.55,134,295.9,86.82,295.9Z"/>
        </g>
        <path class="cls-5" d="M158.3,272.79a6.06,6.06,0,0,1-2.16,4.27c-10.95,9.81-47.69,13.53-76.06,12.86-15.32-.1-59.11-3.66-64.44-15.47-.65-2.43-.15-1.36-.3-1.87V36.92h143s0,7.69,0,20.29C158.29,113.72,158.3,269,158.3,272.79Z"/>
        <path class="cls-6" d="M158.3,39.89c-10.87,20.74-132.63,20.44-143,0C27,60.57,147.92,59.91,158.3,39.89Z"/>
        <path class="cls-6" d="M158.3,45.39c-10.87,20.74-132.63,20.44-143,0C27,66.07,147.92,65.41,158.3,45.39Z"/>
        <path class="cls-6" d="M158.3,50.89c-10.87,20.74-132.63,20.44-143,0C27,71.57,147.92,70.9,158.3,50.89Z"/>
        <path class="cls-6" d="M158.3,56.39c-10.87,20.74-132.63,20.44-143,0C27,77.07,147.92,76.4,158.3,56.39Z"/>
        <path class="cls-6" d="M158.3,61.89c-10.87,20.73-132.63,20.44-143,0C27,82.56,147.92,81.9,158.3,61.89Z"/>
        <path class="cls-6" d="M158.3,67.39c-10.87,20.73-132.63,20.44-143,0C27,88.06,147.92,87.4,158.3,67.39Z"/>
        <path class="cls-6" d="M158.3,72.89c-10.87,20.73-132.63,20.43-143,0C27,93.56,147.92,92.9,158.3,72.89Z"/>
        <path class="cls-6" d="M158.3,78.39c-10.87,20.73-132.63,20.43-143,0C27,99.06,147.92,98.4,158.3,78.39Z"/>
        <path class="cls-6" d="M158.3,83.88c-10.87,20.74-132.63,20.44-143,0C27,104.56,147.92,103.9,158.3,83.88Z"/>
        <path class="cls-6" d="M158.3,89.38c-10.87,20.74-132.63,20.44-143,0C27,110.06,147.92,109.4,158.3,89.38Z"/>
        <path class="cls-6" d="M158.3,94.88c-10.87,20.74-132.63,20.44-143,0C27,115.56,147.92,114.89,158.3,94.88Z"/>
        <path class="cls-6" d="M158.3,100.38c-10.87,20.74-132.63,20.44-143,0C27,121.05,147.92,120.39,158.3,100.38Z"/>
        <path class="cls-6" d="M158.3,105.88c-10.87,20.73-132.63,20.44-143,0C27,126.55,147.92,125.89,158.3,105.88Z"/>
        <path class="cls-6" d="M158.3,111.38c-10.87,20.73-132.63,20.44-143,0C27,132.05,147.92,131.39,158.3,111.38Z"/>
        <path class="cls-6" d="M158.3,116.88c-10.87,20.73-132.63,20.43-143,0C27,137.55,147.92,136.89,158.3,116.88Z"/>
        <path class="cls-6" d="M158.3,122.38c-10.87,20.73-132.63,20.43-143,0C27,143.05,147.92,142.39,158.3,122.38Z"/>
        <path class="cls-6" d="M158.3,127.87c-10.87,20.74-132.63,20.44-143,0C27,148.55,147.92,147.89,158.3,127.87Z"/>
        <path class="cls-6" d="M158.3,133.37c-10.87,20.74-132.63,20.44-143,0C27,154.05,147.92,153.38,158.3,133.37Z"/>
        <path class="cls-6" d="M158.3,138.87c-10.87,20.74-132.63,20.44-143,0C27,159.55,147.92,158.88,158.3,138.87Z"/>
        <path class="cls-6" d="M158.3,144.37c-10.87,20.74-132.63,20.44-143,0C27,165,147.92,164.38,158.3,144.37Z"/>
        <path class="cls-6" d="M158.3,149.87c-10.87,20.73-132.63,20.44-143,0C27,170.54,147.92,169.88,158.3,149.87Z"/>
        <path class="cls-6" d="M158.3,155.37c-10.87,20.73-132.63,20.44-143,0C27,176,147.92,175.38,158.3,155.37Z"/>
        <path class="cls-6" d="M158.3,160.87c-10.87,20.73-132.63,20.43-143,0C27,181.54,147.92,180.88,158.3,160.87Z"/>
        <path class="cls-6" d="M158.3,166.37c-10.87,20.73-132.63,20.43-143,0C27,187,147.92,186.38,158.3,166.37Z"/>
        <path class="cls-6" d="M158.3,171.86c-10.87,20.74-132.63,20.44-143,0C27,192.54,147.92,191.88,158.3,171.86Z"/>
        <path class="cls-6" d="M158.3,177.36c-10.87,20.74-132.63,20.44-143,0C27,198,147.92,197.37,158.3,177.36Z"/>
        <path class="cls-6" d="M158.3,182.86c-10.87,20.74-132.63,20.44-143,0C27,203.54,147.92,202.87,158.3,182.86Z"/>
        <path class="cls-6" d="M158.3,188.36c-10.87,20.73-132.63,20.44-143,0C27,209,147.92,208.37,158.3,188.36Z"/>
        <path class="cls-6" d="M158.3,193.86c-10.87,20.73-132.63,20.44-143,0C27,214.53,147.92,213.87,158.3,193.86Z"/>
        <path class="cls-6" d="M158.3,199.36c-10.87,20.73-132.63,20.44-143,0C27,220,147.92,219.37,158.3,199.36Z"/>
        <path class="cls-6" d="M158.3,204.86c-10.87,20.73-132.63,20.43-143,0C27,225.53,147.92,224.87,158.3,204.86Z"/>
        <path class="cls-6" d="M158.3,210.35c-10.87,20.74-132.63,20.44-143,0C27,231,147.92,230.37,158.3,210.35Z"/>
        <path class="cls-6" d="M158.3,215.85c-10.87,20.74-132.63,20.44-143,0C27,236.53,147.92,235.87,158.3,215.85Z"/>
        <path class="cls-6" d="M158.3,221.35c-10.87,20.74-132.63,20.44-143,0C27,242,147.92,241.36,158.3,221.35Z"/>
        <path class="cls-6" d="M158.3,226.85c-10.87,20.74-132.63,20.44-143,0C27,247.53,147.92,246.86,158.3,226.85Z"/>
        <path class="cls-6" d="M158.3,232.35c-10.87,20.73-132.63,20.44-143,0C27,253,147.92,252.36,158.3,232.35Z"/>
        <path class="cls-6" d="M158.3,237.85c-10.87,20.73-132.63,20.44-143,0C27,258.52,147.92,257.86,158.3,237.85Z"/>
        <path class="cls-6" d="M158.3,243.35c-10.87,20.73-132.63,20.44-143,0C27,264,147.92,263.36,158.3,243.35Z"/>
        <path class="cls-6" d="M158.3,248.84c-10.87,20.74-132.63,20.44-143,0C27,269.52,147.92,268.86,158.3,248.84Z"/>
        <path class="cls-6" d="M158.3,254.34c-10.87,20.74-132.63,20.44-143,0C27,275,147.92,274.36,158.3,254.34Z"/>
        <path class="cls-6" d="M158.3,259.84c-10.87,20.74-132.63,20.44-143,0C27,280.52,147.92,279.85,158.3,259.84Z"/>
        <path class="cls-6" d="M158.3,265.34c-10.87,20.74-132.63,20.44-143,0C27,286,147.92,285.35,158.3,265.34Z"/>
        <path class="cls-6" d="M158.3,270.84c-10.87,20.73-132.63,20.44-143,0C27,291.51,147.92,290.85,158.3,270.84Z"/>
        <g class="cls-7">
          <path d="M158.3,41.29c-10.87,20.73-132.63,20.44-143,0C27,62,147.92,61.3,158.3,41.29Z"/>
          <path d="M158.3,46.79c-10.87,20.73-132.63,20.44-143,0C27,67.46,147.92,66.8,158.3,46.79Z"/>
          <path d="M158.3,52.29c-10.87,20.73-132.63,20.44-143,0C27,73,147.92,72.3,158.3,52.29Z"/>
          <path d="M158.3,57.79c-10.87,20.73-132.63,20.43-143,0C27,78.46,147.92,77.8,158.3,57.79Z"/>
          <path d="M158.3,63.28c-10.87,20.74-132.63,20.44-143,0C27,84,147.92,83.3,158.3,63.28Z"/>
          <path d="M158.3,68.78c-10.87,20.74-132.63,20.44-143,0C27,89.46,147.92,88.8,158.3,68.78Z"/>
          <path d="M158.3,74.28c-10.87,20.74-132.63,20.44-143,0C27,95,147.92,94.29,158.3,74.28Z"/>
          <path d="M158.3,79.78c-10.87,20.74-132.63,20.44-143,0C27,100.45,147.92,99.79,158.3,79.78Z"/>
          <path d="M158.3,85.28c-10.87,20.73-132.63,20.44-143,0C27,106,147.92,105.29,158.3,85.28Z"/>
          <path d="M158.3,90.78c-10.87,20.73-132.63,20.44-143,0C27,111.45,147.92,110.79,158.3,90.78Z"/>
          <path d="M158.3,96.28c-10.87,20.73-132.63,20.43-143,0C27,117,147.92,116.29,158.3,96.28Z"/>
          <path d="M158.3,101.78c-10.87,20.73-132.63,20.43-143,0C27,122.45,147.92,121.79,158.3,101.78Z"/>
          <path d="M158.3,107.27c-10.87,20.74-132.63,20.44-143,0C27,128,147.92,127.29,158.3,107.27Z"/>
          <path d="M158.3,112.77c-10.87,20.74-132.63,20.44-143,0C27,133.45,147.92,132.78,158.3,112.77Z"/>
          <path d="M158.3,118.27c-10.87,20.74-132.63,20.44-143,0C27,139,147.92,138.28,158.3,118.27Z"/>
          <path d="M158.3,123.77c-10.87,20.73-132.63,20.44-143,0C27,144.44,147.92,143.78,158.3,123.77Z"/>
          <path d="M158.3,129.27c-10.87,20.73-132.63,20.44-143,0C27,149.94,147.92,149.28,158.3,129.27Z"/>
          <path d="M158.3,134.77c-10.87,20.73-132.63,20.44-143,0C27,155.44,147.92,154.78,158.3,134.77Z"/>
          <path d="M158.3,140.27c-10.87,20.73-132.63,20.43-143,0C27,160.94,147.92,160.28,158.3,140.27Z"/>
          <path d="M158.3,145.76c-10.87,20.74-132.63,20.44-143,0C27,166.44,147.92,165.78,158.3,145.76Z"/>
          <path d="M158.3,151.26c-10.87,20.74-132.63,20.44-143,0C27,171.94,147.92,171.28,158.3,151.26Z"/>
          <path d="M158.3,156.76c-10.87,20.74-132.63,20.44-143,0C27,177.44,147.92,176.77,158.3,156.76Z"/>
          <path d="M158.3,162.26c-10.87,20.74-132.63,20.44-143,0C27,182.93,147.92,182.27,158.3,162.26Z"/>
          <path d="M158.3,167.76c-10.87,20.73-132.63,20.44-143,0C27,188.43,147.92,187.77,158.3,167.76Z"/>
          <path d="M158.3,173.26c-10.87,20.73-132.63,20.44-143,0C27,193.93,147.92,193.27,158.3,173.26Z"/>
          <path d="M158.3,178.76c-10.87,20.73-132.63,20.44-143,0C27,199.43,147.92,198.77,158.3,178.76Z"/>
          <path d="M158.3,184.26c-10.87,20.73-132.63,20.43-143,0C27,204.93,147.92,204.27,158.3,184.26Z"/>
          <path d="M158.3,189.76c-10.87,20.73-132.63,20.43-143,0C27,210.43,147.92,209.77,158.3,189.76Z"/>
          <path d="M158.3,195.25c-10.87,20.74-132.63,20.44-143,0C27,215.93,147.92,215.27,158.3,195.25Z"/>
          <path d="M158.3,200.75c-10.87,20.74-132.63,20.44-143,0C27,221.43,147.92,220.76,158.3,200.75Z"/>
          <path d="M158.3,206.25c-10.87,20.74-132.63,20.44-143,0C27,226.93,147.92,226.26,158.3,206.25Z"/>
          <path d="M158.3,211.75c-10.87,20.73-132.63,20.44-143,0C27,232.42,147.92,231.76,158.3,211.75Z"/>
          <path d="M158.3,217.25c-10.87,20.73-132.63,20.44-143,0C27,237.92,147.92,237.26,158.3,217.25Z"/>
          <path d="M158.3,222.75c-10.87,20.73-132.63,20.44-143,0C27,243.42,147.92,242.76,158.3,222.75Z"/>
          <path d="M158.3,228.25c-10.87,20.73-132.63,20.43-143,0C27,248.92,147.92,248.26,158.3,228.25Z"/>
          <path d="M158.3,233.74c-10.87,20.74-132.63,20.44-143,0C27,254.42,147.92,253.76,158.3,233.74Z"/>
          <path d="M158.3,239.24c-10.87,20.74-132.63,20.44-143,0C27,259.92,147.92,259.26,158.3,239.24Z"/>
          <path d="M158.3,244.74c-10.87,20.74-132.63,20.44-143,0C27,265.42,147.92,264.75,158.3,244.74Z"/>
          <path d="M158.3,250.24c-10.87,20.74-132.63,20.44-143,0C27,270.91,147.92,270.25,158.3,250.24Z"/>
          <path d="M158.3,255.74c-10.87,20.73-132.63,20.44-143,0C27,276.41,147.92,275.75,158.3,255.74Z"/>
          <path d="M158.3,261.24c-10.87,20.73-132.63,20.44-143,0C27,281.91,147.92,281.25,158.3,261.24Z"/>
          <path d="M158.3,266.74c-10.87,20.73-132.63,20.43-143,0C27,287.41,147.92,286.75,158.3,266.74Z"/>
          <path d="M158.3,272.24c-10.87,20.73-132.63,20.43-143,0C27,292.91,147.92,292.25,158.3,272.24Z"/>
        </g>
        <path class="cls-6" d="M158.3,43.35c-10.87,20.74-132.63,20.44-143,0C27,64,147.92,63.36,158.3,43.35Z"/>
        <path class="cls-6" d="M158.3,48.85c-10.87,20.73-132.63,20.44-143,0C27,69.52,147.92,68.86,158.3,48.85Z"/>
        <path class="cls-6" d="M158.3,54.35c-10.87,20.73-132.63,20.44-143,0C27,75,147.92,74.36,158.3,54.35Z"/>
        <path class="cls-6" d="M158.3,59.85c-10.87,20.73-132.63,20.44-143,0C27,80.52,147.92,79.86,158.3,59.85Z"/>
        <path class="cls-6" d="M158.3,65.35c-10.87,20.73-132.63,20.43-143,0C27,86,147.92,85.36,158.3,65.35Z"/>
        <path class="cls-6" d="M158.3,70.84c-10.87,20.74-132.63,20.44-143,0C27,91.52,147.92,90.86,158.3,70.84Z"/>
        <path class="cls-6" d="M158.3,76.34c-10.87,20.74-132.63,20.44-143,0C27,97,147.92,96.36,158.3,76.34Z"/>
        <path class="cls-6" d="M158.3,81.84c-10.87,20.74-132.63,20.44-143,0C27,102.52,147.92,101.85,158.3,81.84Z"/>
        <path class="cls-6" d="M158.3,87.34c-10.87,20.74-132.63,20.44-143,0C27,108,147.92,107.35,158.3,87.34Z"/>
        <path class="cls-6" d="M158.3,92.84c-10.87,20.73-132.63,20.44-143,0C27,113.51,147.92,112.85,158.3,92.84Z"/>
        <path class="cls-6" d="M158.3,98.34c-10.87,20.73-132.63,20.44-143,0C27,119,147.92,118.35,158.3,98.34Z"/>
        <path class="cls-6" d="M158.3,103.84c-10.87,20.73-132.63,20.43-143,0C27,124.51,147.92,123.85,158.3,103.84Z"/>
        <path class="cls-6" d="M158.3,109.34c-10.87,20.73-132.63,20.43-143,0C27,130,147.92,129.35,158.3,109.34Z"/>
        <path class="cls-6" d="M158.3,114.83c-10.87,20.74-132.63,20.44-143,0C27,135.51,147.92,134.85,158.3,114.83Z"/>
        <path class="cls-6" d="M158.3,120.33c-10.87,20.74-132.63,20.44-143,0C27,141,147.92,140.34,158.3,120.33Z"/>
        <path class="cls-6" d="M158.3,125.83c-10.87,20.74-132.63,20.44-143,0C27,146.51,147.92,145.84,158.3,125.83Z"/>
        <path class="cls-6" d="M158.3,131.33c-10.87,20.73-132.63,20.44-143,0C27,152,147.92,151.34,158.3,131.33Z"/>
        <path class="cls-6" d="M158.3,136.83c-10.87,20.73-132.63,20.44-143,0C27,157.5,147.92,156.84,158.3,136.83Z"/>
        <path class="cls-6" d="M158.3,142.33c-10.87,20.73-132.63,20.44-143,0C27,163,147.92,162.34,158.3,142.33Z"/>
        <path class="cls-6" d="M158.3,147.83c-10.87,20.73-132.63,20.43-143,0C27,168.5,147.92,167.84,158.3,147.83Z"/>
        <path class="cls-6" d="M158.3,153.32c-10.87,20.74-132.63,20.44-143,0C27,174,147.92,173.34,158.3,153.32Z"/>
        <path class="cls-6" d="M158.3,158.82c-10.87,20.74-132.63,20.44-143,0C27,179.5,147.92,178.84,158.3,158.82Z"/>
        <path class="cls-6" d="M158.3,164.32c-10.87,20.74-132.63,20.44-143,0C27,185,147.92,184.33,158.3,164.32Z"/>
        <path class="cls-6" d="M158.3,169.82c-10.87,20.74-132.63,20.44-143,0C27,190.49,147.92,189.83,158.3,169.82Z"/>
        <path class="cls-6" d="M158.3,175.32c-10.87,20.73-132.63,20.44-143,0C27,196,147.92,195.33,158.3,175.32Z"/>
        <path class="cls-6" d="M158.3,180.82c-10.87,20.73-132.63,20.44-143,0C27,201.49,147.92,200.83,158.3,180.82Z"/>
        <path class="cls-6" d="M158.3,186.32c-10.87,20.73-132.63,20.44-143,0C27,207,147.92,206.33,158.3,186.32Z"/>
        <path class="cls-6" d="M158.3,191.82c-10.87,20.73-132.63,20.43-143,0C27,212.49,147.92,211.83,158.3,191.82Z"/>
        <path class="cls-6" d="M158.3,197.32c-10.87,20.73-132.63,20.43-143,0C27,218,147.92,217.33,158.3,197.32Z"/>
        <path class="cls-6" d="M158.3,202.81c-10.87,20.74-132.63,20.44-143,0C27,223.49,147.92,222.83,158.3,202.81Z"/>
        <path class="cls-6" d="M158.3,208.31c-10.87,20.74-132.63,20.44-143,0C27,229,147.92,228.32,158.3,208.31Z"/>
        <path class="cls-6" d="M158.3,213.81c-10.87,20.74-132.63,20.44-143,0C27,234.49,147.92,233.82,158.3,213.81Z"/>
        <path class="cls-6" d="M158.3,219.31c-10.87,20.73-132.63,20.44-143,0C27,240,147.92,239.32,158.3,219.31Z"/>
        <path class="cls-6" d="M158.3,224.81c-10.87,20.73-132.63,20.44-143,0C27,245.48,147.92,244.82,158.3,224.81Z"/>
        <path class="cls-6" d="M158.3,230.31c-10.87,20.73-132.63,20.44-143,0C27,251,147.92,250.32,158.3,230.31Z"/>
        <path class="cls-6" d="M158.3,235.81c-10.87,20.73-132.63,20.43-143,0C27,256.48,147.92,255.82,158.3,235.81Z"/>
        <path class="cls-6" d="M158.3,241.3c-10.87,20.74-132.63,20.44-143,0C27,262,147.92,261.32,158.3,241.3Z"/>
        <path class="cls-6" d="M158.3,246.8c-10.87,20.74-132.63,20.44-143,0C27,267.48,147.92,266.81,158.3,246.8Z"/>
        <path class="cls-6" d="M158.3,252.3c-10.87,20.74-132.63,20.44-143,0C27,273,147.92,272.31,158.3,252.3Z"/>
        <path class="cls-6" d="M158.3,257.8c-10.87,20.74-132.63,20.44-143,0C27,278.47,147.92,277.81,158.3,257.8Z"/>
        <path class="cls-6" d="M158.3,263.3c-10.87,20.73-132.63,20.44-143,0C27,284,147.92,283.31,158.3,263.3Z"/>
        <path class="cls-6" d="M158.3,268.8c-10.87,20.73-132.63,20.44-143,0C27,289.47,147.92,288.81,158.3,268.8Z"/>
        <path class="cls-6" d="M156.45,276.75c-19.5,17.6-120.86,17.12-139.26,0C37.76,294.26,137.68,293.52,156.45,276.75Z"/>
        <path class="cls-8" d="M53.4,23.77V288c-5.86-.74-11.24-1.67-16-2.76V36.91Z"/>
        <path class="cls-8" d="M67.7,23.77V289.38c-2.73-.18-5.4-.4-8-.66V36.91Z"/>
        <path class="cls-9" d="M158.3,36.91c-3.17,22.84-140,22.4-143,.15C17.77,14,156,14.47,158.3,36.91Z"/>
        <g class="cls-10">
          <path class="cls-11" d="M86.82,52.77C-3,51.7-2.55,22.13,86.54,21.06,176.73,22.06,176.27,51.78,86.82,52.77Zm0-31.57c-90.14,1.18-88.73,30.43,0,31.43C177,51.45,175.54,22.2,86.82,21.2Z"/>
        </g>
        <g class="cls-12">
          <path class="cls-13" d="M86.82,52.2C-.58,51.09,1.3,22.44,87.1,21.63,174.27,22.81,172.1,51.34,86.82,52.2Zm0-30.43c-87.2,1.15-85.39,29.47.53,30.29C174.06,50.78,171.85,22.69,86.82,21.77Z"/>
        </g>
        <g class="cls-12">
          <path class="cls-13" d="M86.82,51.65C2.52,50.58,4.42,23,87.1,22.18,171.16,23.32,169,50.83,86.82,51.65Zm0-29.33c-83.76,1.1-82.45,28.26,0,29.19C170.57,50.41,169.26,23.25,86.82,22.32Z"/>
        </g>
        <g class="cls-10">
          <path class="cls-11" d="M86.82,50.86C6.6,49.8,9.27,23.58,87.38,23,167,24.18,164,50.14,86.82,50.86Zm0-27.75C7.32,24.16,9,50,87.3,50.72,166.35,49.55,164.34,24,86.82,23.11Z"/>
        </g>
        <g class="cls-10">
          <path class="cls-11" d="M86.82,53.44c-93.58-1.11-93.12-31.95-.28-33C180.49,21.43,180,52.41,86.82,53.44Zm0-32.88c-94.23,1.24-92.27,31.83.57,32.71C181.08,51.89,178.7,21.55,86.82,20.56Z"/>
        </g>
        <g class="cls-12">
          <path class="cls-13" d="M86.82,49.65c-73-.94-71-24.84.28-25.47C159.86,25.19,157.62,49,86.82,49.65Zm0-25.33c-59.48.37-75,18.76-19.65,24.33,18.86,2.09,64.25.82,72.86-9.74C146.46,27.21,97.4,23.8,86.82,24.32Z"/>
        </g>
        <g class="cls-12">
          <path class="cls-13" d="M86.82,48.59c-66.21-.8-65.64-22.57-.28-23.35C153.12,26,152.54,47.88,86.82,48.59Zm0-23.22c-13.08,0-25.48,1.19-34.77,3.35-14.87,3.35-21.49,9.71-4.94,15.06,26.83,8.41,83,4.79,88.73-5.43C140.12,27.86,96.59,24.94,86.82,25.37Z"/>
        </g>
        <g class="cls-12">
          <path class="cls-13" d="M86.82,50.21c-76.11-1-74.17-25.92.28-26.59C163,24.67,160.77,49.49,86.82,50.21Zm0-26.44c-52,.14-76.11,15-36.53,23.13,23.67,4.86,65.63,4.43,85.52-3.54,17.55-7.57-.84-14.15-11-16.13C114.32,25,101.05,23.78,86.82,23.77Z"/>
        </g>
        <path class="cls-14" d="M158.3,36.92s0,7.69,0,20.29c-15.66,5.65-41.83,9.35-71.47,9.35S31,62.86,15.34,57.21V36.92Z"/>
        <g>
          <path class="cls-1" d="M158.55,25c-15.63-5.7-41.93-9.44-71.73-9.44S30.71,19.28,15.08,25L0,21.63V37.16c0,12,38.87,21.63,86.82,21.63s86.81-9.68,86.81-21.63V21.63Z"/>
          <ellipse class="cls-2" cx="86.82" cy="21.63" rx="86.82" ry="21.63"/>
          <path class="cls-3" d="M102.3.34c15.48,3.91,25,9.27,25,15.2,0,11.94-38.87,21.62-86.82,21.62-5.28,0-10.46-.11-15.48-.34,15.74,4,37.61,6.44,61.79,6.44,47.94,0,86.81-9.69,86.81-21.63C173.63,11,142.86,2.16,102.3.34Z"/>
          <path class="cls-4" d="M86.82,42C39.69,42,1.33,32.68,0,21a6.08,6.08,0,0,0,0,.61C0,33.57,38.87,43.26,86.82,43.26s86.81-9.69,86.81-21.63a6.08,6.08,0,0,0,0-.61C172.3,32.68,134,42,86.82,42Z"/>
          <ellipse class="cls-15" cx="86.82" cy="19.44" rx="15.67" ry="3.9"/>
        </g>
      </g>
    </g>
  </g>
</svg>
