<svg xmlns="http://www.w3.org/2000/svg" viewBox="0 0 761.02 823.75">
  <defs>
    <style>
      .cls-1 {
        fill: #e9d7bd;
      }

      .cls-2 {
        fill: #caa475;
      }

      .cls-3 {
        fill: #e9d8bd;
      }

      .cls-4 {
        fill: #f3e9da;
      }

      .cls-5 {
        fill: #602f00;
        opacity: 0.1;
      }

      .cls-6 {
        fill: #fff;
      }
    </style>
  </defs>
  <title>Asset 17</title>
  <g id="Layer_2" data-name="Layer 2">
    <g id="Layer_1-2" data-name="Layer 1">
      <path class="cls-1" d="M652.91,0,95.33,13.9a7.2,7.2,0,0,0-6.84,8.84l75.63,322.61a6.62,6.62,0,0,1,.18,1.17l30.57,469.71a7.21,7.21,0,0,0,8,6.69l543.66-60.46a16.3,16.3,0,0,0,14.5-16.2V640.1c0-217.52-32.19-426-100.24-632.55L659.94,5A7.22,7.22,0,0,0,652.91,0Z"/>
      <path class="cls-2" d="M195.36,823.75,7.13,782.09A9.1,9.1,0,0,1,0,773.21V525.48C0,382,41.57,242.89,80.6,105.11c8.32-29.38,11.07-59.83,5.87-91h0L116.1,104.4h0a1589.76,1589.76,0,0,1,79.26,495.72Z"/>
      <path class="cls-3" d="M693.3,86.46,121.85,104.22,86.47,14.12,652,0a8.44,8.44,0,0,1,8.22,5.82Z"/>
      <path class="cls-4" d="M121.73,100.68,86.47,14.12,652.7,0A7.47,7.47,0,0,1,660,5.17L694.73,82Z"/>
      <g>
        <polygon class="cls-5" points="389.54 142.6 378.82 96.14 385.18 95.94 396.08 113.22 389.54 142.6"/>
        <path class="cls-6" d="M372,34.61,385.28,93a7.11,7.11,0,0,1-1.2,5.35l-.57.8a7,7,0,0,0-1.19,5.4L397,182.07a2.75,2.75,0,0,0,2.88,2.23l81-5.23a2.74,2.74,0,0,0,2.5-3.34l-16.49-73.61a7,7,0,0,1,1.45-6h0a7,7,0,0,0,1.38-6.34L454,31.83a2.74,2.74,0,0,0-2.71-2l-76.63,1.56A2.75,2.75,0,0,0,372,34.61Z"/>
      </g>
      <polygon class="cls-5" points="685.08 86.71 117.03 104.37 119.14 110.4 686.4 91.31 685.08 86.71 685.08 86.71"/>
      <path class="cls-5" d="M116.1,104.4h-.55l6.69,19.12L690,104.46l-5-17.75Z"/>
      <path class="cls-5" d="M116.1,104.4l-1.16,0,4.2,12,569-19.09-3-10.59Z"/>
    </g>
  </g>
</svg>
