<svg xmlns="http://www.w3.org/2000/svg" viewBox="0 0 368.29 472.9">
  <defs>
    <style>
      .cls-1 {
        fill: #fac86c;
      }

      .cls-2 {
        fill: #94251d;
      }

      .cls-3 {
        fill: #e53533;
      }

      .cls-4 {
        fill: #67190d;
      }

      .cls-5 {
        fill: #ffdf88;
      }

      .cls-6 {
        fill: #18a291;
      }

      .cls-7 {
        fill: #ffeca8;
      }
    </style>
  </defs>
  <title>Asset 13</title>
  <g id="Layer_2" data-name="Layer 2">
    <g id="Layer_1-2" data-name="Layer 1">
      <g>
        <path class="cls-1" d="M366.3,33.55A44.09,44.09,0,0,0,342.55,5.2c-24.27-11.26-51.4-2.88-71.91,12.21C257.88,26.8,246.56,38,235,48.82c-6.55,6.12-13.27,12.22-19.44,18.72-5.19,5.47-8.93,13-15,17.52-2.07,1.56-2,5.21.17,6.29-.32.26-.63.51-.95.8-4.64,4.25-4.82,14,.41,17.94l-.26-.43a18,18,0,0,0,4.32,3.43c3.69,2.06,8.56,2,12.68,2,7.66,0,15.32-.43,23-.72,14.81-.57,29.64-1,44.32-3.16,28.33-4.22,55.29-14.45,72.47-38.5C364.71,61.51,370.07,47.35,366.3,33.55ZM336.48,53C324.63,69,304,76.78,285.26,80.48c-13.21,2.61-26.87,3.1-40.29,3.83-7.27.4-14.55.72-21.81,1.21l-3.37.21a74.62,74.62,0,0,0,11.26-8.48c10-8.9,19.88-18,29.73-27C276.12,36.07,293.63,20.1,315.61,19c9.38-.47,19.77,1.73,26.14,9.2C347.53,35,341,46.91,336.48,53Z"/>
        <path class="cls-1" d="M13,80.53c18.26,23.25,45.66,32.24,74.15,35.16,14.76,1.52,29.59,1.26,44.41,1.15,7.66-.06,15.33,0,23-.32,4.12-.16,9-.36,12.58-2.58a18,18,0,0,0,4.16-3.63l-.24.44c5.05-4.17,4.42-13.9-.41-17.94-.32-.27-.65-.51-1-.76,2.13-1.17,2-4.82-.12-6.28-6.28-4.28-10.35-11.6-15.78-16.82-6.46-6.22-13.46-12-20.27-17.82-12-10.26-23.85-21-37-29.76C75.27,7.23,47.79.09,24.05,12.43A44.08,44.08,0,0,0,1.62,41.84C-1.53,55.79,4.48,69.69,13,80.53ZM25.9,35.39C31.92,27.63,42.2,25,51.59,25c22,.09,40.22,15.25,56.19,28.69C118,62.32,128.3,70.91,138.71,79.35a74.79,74.79,0,0,0,11.63,8L147,87.25c-7.28-.16-14.56-.15-21.84-.22C111.69,86.91,98,87,84.7,85c-18.93-2.85-39.85-9.72-52.41-25.13C27.5,54,20.43,42.42,25.9,35.39Z"/>
        <path class="cls-1" d="M176.15,152.1l30.69-.69s26.74-48.14,19.59-68.87-76.89-16.49-74.75,7.75C154.25,119.37,176.15,152.1,176.15,152.1Z"/>
        <polygon class="cls-2" points="14.92 152.89 43.16 472.9 341.9 466.11 350.28 145.27 14.92 152.89"/>
        <polygon class="cls-3" points="0 111.51 2.51 222.13 367.81 213.83 368.29 103.14 0 111.51"/>
        <polygon class="cls-4" points="20.99 221.71 23.42 249.21 347.28 214.29 20.99 221.71"/>
        <polygon class="cls-5" points="168.28 470.06 154.65 108 228.01 106.33 218.48 468.92 168.28 470.06"/>
        <path class="cls-1" d="M163.44,96.91c-.16-4.45-6-4.71-7.41-.83-3.16,8.86-4.59,18.22-8.41,26.88-3.5,7.92-7.89,15.13-14.21,21.12a32.94,32.94,0,0,1-3.11,2.49,40.78,40.78,0,0,0-2-4.94c-4.82-9.83-14.88-18.09-26.33-16.64-10.42,1.33-19.21,9.92-21.66,20-2.55,10.55,1.68,22,12.46,25.73,8.08,2.78,17.28,1,25.47-2.14-3.06,10.94-11.64,20.22-20.68,27.2a131.12,131.12,0,0,1-26.44,15.88c-9.78,4.36-19.41,9.6-29.7,12.63a1.16,1.16,0,0,0,0,2.23c12.88,3.15,25.15,2.49,37.36-3,11.59-5.21,22.86-11.92,32.36-20.42,12-10.72,20.94-26.07,21.36-41.9C153.3,147.21,164.37,122,163.44,96.91ZM92.55,152.84c-1.3-7,5.08-15.28,12.34-15.05,7.58.25,12.35,9.23,13.81,15.83C107.63,159.28,94.45,163.09,92.55,152.84Z"/>
        <path class="cls-1" d="M345.64,206.25c-8.19.91-15.79-.12-23.79-1.93-7.38-1.67-15-2.74-21.94-6a45.53,45.53,0,0,1-25.74-32.48c.72.07,1.45.12,2.2.14a28.62,28.62,0,0,0,27.23-17.62c4.27-10.63,1.88-25.79-10.17-30.07-12.43-4.42-23.42,5-28.5,15.65a54.49,54.49,0,0,0-3.77,10.6c-1.16-1.05-2.28-2.14-3.35-3.25-7.18-7.37-14.13-15.25-19.7-23.91-2.91-4.53-5.83-9.47-7.52-14.6-1.21-3.7-.61-7.13-.74-10.88a2,2,0,0,0-2.07-2c-11.62.37-5.7,18.23-3.21,24.31,4.94,12.11,13.13,22.61,21.35,32.65,4,4.92,8.5,9.76,13.69,13.34a60.85,60.85,0,0,0,15,37.6c8.64,9.81,21.51,17.38,34.46,19.64,13.22,2.31,26-2.09,37.3-8.69C347.52,208.14,347,206.09,345.64,206.25Zm-69.41-64c2.11-4.75,12.45-17.51,14.64-5.88,1.51,8-5.47,14.67-13,15.28a16.82,16.82,0,0,1-4.16-.18A33.75,33.75,0,0,1,276.23,142.21Z"/>
        <polygon class="cls-6" points="73.11 448.21 76.11 448.52 70.29 437.12 73.96 437.84 64.72 424.34 56.12 438.25 59.75 437.35 54.45 449.01 57.43 448.57 51.65 459.87 65.53 459.55 79.4 459.24 73.11 448.21"/>
        <polygon class="cls-6" points="147.5 446.52 150.5 446.83 144.67 435.43 148.35 436.15 139.11 422.65 130.5 436.56 134.14 435.66 128.83 447.32 131.82 446.88 126.04 458.18 139.91 457.86 153.79 457.55 147.5 446.52"/>
        <polygon class="cls-6" points="106.96 389.16 109.97 389.46 104.14 378.06 107.81 378.79 98.58 365.29 89.97 379.19 93.6 378.3 88.3 389.95 91.28 389.51 85.5 400.81 99.38 400.5 113.25 400.18 106.96 389.16"/>
        <polygon class="cls-6" points="70.5 333.36 73.5 333.67 67.68 322.26 71.35 322.99 62.12 309.49 53.51 323.4 57.14 322.5 51.84 334.16 54.82 333.72 49.04 345.02 62.91 344.7 76.79 344.39 70.5 333.36"/>
        <polygon class="cls-6" points="144.89 331.67 147.89 331.98 142.06 320.57 145.74 321.3 136.5 307.8 127.89 321.71 131.53 320.81 126.22 332.47 129.21 332.03 123.43 343.33 137.3 343.01 151.18 342.7 144.89 331.67"/>
        <polygon class="cls-6" points="104.35 274.31 107.36 274.61 101.53 263.21 105.2 263.94 95.97 250.44 87.36 264.35 90.99 263.45 85.69 275.11 88.67 274.66 82.89 285.96 96.77 285.65 110.64 285.33 104.35 274.31"/>
        <polygon class="cls-6" points="254.93 444.08 257.93 444.39 252.1 432.98 255.78 433.71 246.54 420.21 237.93 434.12 241.57 433.22 236.26 444.88 239.25 444.44 233.47 455.74 247.34 455.42 261.22 455.11 254.93 444.08"/>
        <polygon class="cls-6" points="329.32 442.39 332.32 442.69 326.49 431.29 330.16 432.02 320.93 418.52 312.32 432.43 315.96 431.53 310.65 443.19 313.63 442.75 307.86 454.05 321.73 453.73 335.61 453.42 329.32 442.39"/>
        <polygon class="cls-6" points="288.78 385.02 291.78 385.33 285.95 373.93 289.62 374.66 280.39 361.15 271.78 375.06 275.42 374.17 270.11 385.82 273.1 385.38 267.32 396.68 281.19 396.37 295.07 396.05 288.78 385.02"/>
        <polygon class="cls-6" points="252.32 329.23 255.32 329.54 249.49 318.13 253.16 318.86 243.93 305.36 235.32 319.27 238.96 318.37 233.65 330.03 236.64 329.59 230.86 340.89 244.73 340.57 258.61 340.26 252.32 329.23"/>
        <polygon class="cls-6" points="326.71 327.54 329.71 327.85 323.88 316.44 327.55 317.17 318.32 303.67 309.71 317.58 313.35 316.68 308.04 328.34 311.02 327.9 305.25 339.2 319.12 338.88 333 338.56 326.71 327.54"/>
        <polygon class="cls-6" points="286.17 270.18 289.17 270.48 283.34 259.08 287.01 259.81 277.78 246.3 269.17 260.21 272.81 259.32 267.5 270.97 270.49 270.53 264.71 281.83 278.58 281.52 292.46 281.2 286.17 270.18"/>
        <path class="cls-7" d="M320.69,5c-3.31-2.77-9.46-2-13.44-1.22-6.49,1.26-12.86,4.19-18.74,7.13a86.75,86.75,0,0,0-16,10.55c-2.94,2.39-8.54,5.6-7.69,10a.39.39,0,0,0,.29.28c3.59,1,6.39-2.47,9.12-4.38A122.12,122.12,0,0,1,287,19.72a112.71,112.71,0,0,1,14.46-6.58c5.57-2,10.32-2.11,16.11-2.26A3.69,3.69,0,0,0,320.71,9c.15-.31.29-.63.44-.94A2.56,2.56,0,0,0,320.69,5Z"/>
        <path class="cls-7" d="M335.35,8.13c-2-.9-3.88-1.59-6-.84a2.49,2.49,0,0,0-1.39,3.63c1,1.92,2.62,2.52,4.53,3.3s4.71.7,5.55-1.42C338.78,10.87,337,8.87,335.35,8.13Z"/>
        <path class="cls-7" d="M58.05,13.84c-2.87-2.13-4.81-3.56-8.54-3.59A42.3,42.3,0,0,0,37.83,12c-7,2-14.86,5.35-19.27,11.36-1.52,2.07,1.1,4,3,3.73,2.82-.47,5.11-2.07,7.64-3.33a50.52,50.52,0,0,1,11-4c3.49-.83,7-1.1,10.49-1.63,2.93-.44,4.63-1.57,7.24-2.85A1,1,0,0,0,58.05,13.84Z"/>
        <path class="cls-7" d="M80,16.22c-2.48-3.6-9.28-5.32-13.17-3.07a2.76,2.76,0,0,0-.45,4.29C67.79,19,70,19.61,71.89,20.29a10.59,10.59,0,0,0,6.32.74A3.26,3.26,0,0,0,80,16.22Z"/>
        <path class="cls-7" d="M96.66,201.35c-5.89,1.84-10.4,5.1-15.7,8.15C75.34,212.72,69.34,215,63.65,218a2.46,2.46,0,0,0-1.2,2.19,2.16,2.16,0,0,0,.13.83l.24.43a2.45,2.45,0,0,0,2.2,1.2c11.75-1.65,27.3-9,32.66-20A.89.89,0,0,0,96.66,201.35Z"/>
        <path class="cls-7" d="M311.16,203.77a202.64,202.64,0,0,1-23.09-9,2.43,2.43,0,0,0-3.22,3.37c3.12,6.18,10.43,8.58,16.47,11,3.61,1.42,16.91,8.11,19.52,2.16C322.89,206.6,313.68,204.54,311.16,203.77Z"/>
      </g>
    </g>
  </g>
</svg>
