<svg xmlns="http://www.w3.org/2000/svg" viewBox="0 0 900.68 1033.48">
  <defs>
    <style>
      .cls-1 {
        fill: #fff;
      }
    </style>
  </defs>
  <title>Asset 15</title>
  <g id="Layer_2" data-name="Layer 2">
    <g id="Layer_1-2" data-name="Layer 1">
      <g>
        <polygon class="cls-1" points="450.68 29.83 875.68 269.83 875.68 754.83 427.68 1010.83 30.68 754.83 30.68 269.83 450.68 29.83"/>
        <g>
          <g>
            <g id="path14">
              <path d="M450.34,1033.48a23.09,23.09,0,0,1-23.09-23.1V516.74a23.1,23.1,0,0,1,11.55-20L866.05,250.2a23.09,23.09,0,0,1,34.63,20V763.27a23.08,23.08,0,0,1-11.53,20L461.9,1030.37A23.05,23.05,0,0,1,450.34,1033.48Zm23.1-503.4V970.34L854.49,750V310.19Z"/>
            </g>
            <g id="path18">
              <path d="M635.1,713.37v-4.61c0-16.16,1-29.43,3.5-40.69,2.5-10.67,6-20.77,11-29.43a197.82,197.82,0,0,1,17-26c4.5-6.06,9-12.7,13-18.47a121.57,121.57,0,0,0,9.49-18.75c2-6.35,3.5-12.41,3.5-18.18,0-6.35-1.5-11.25-4-14.42-3-2.89-6.49-4.91-10.49-4.91-4.5-.29-9.49,1.45-15,4.62A53,53,0,0,0,648.6,555a65.94,65.94,0,0,0-11.5,18.18,54,54,0,0,0-4.49,21.64l-49,28.29a139.35,139.35,0,0,1,11.5-52.24,168.32,168.32,0,0,1,29-43.86,172.94,172.94,0,0,1,39.48-31.45c15.49-8.94,29.48-14.13,42-15q18-1.72,28.47,9.53c7,6.92,10.49,18.75,10.49,34.9A110.74,110.74,0,0,1,740,556.4a143.81,143.81,0,0,1-13,29.42,241.37,241.37,0,0,1-19.48,28.57,185.89,185.89,0,0,0-15.49,22.22,97.13,97.13,0,0,0-9,21.35,95.15,95.15,0,0,0-3,24.81v4.61Zm23.49,74.72c-8,4.62-14.49,4.91-20.49,2-5.49-3.75-8-9.8-8-19,0-8.65,2.5-18.18,8-27.7,6-9.81,12.5-17,20.49-21.65,7.5-4.33,14-4.63,20-1.74,5.5,3.17,8.49,9.51,8.49,18.17,0,6.34-1.49,12.4-4,19a64,64,0,0,1-10.5,18.18A50.25,50.25,0,0,1,658.59,788.09Z"/>
            </g>
          </g>
          <g>
            <g id="path16">
              <path d="M450.34,1033.48a23.08,23.08,0,0,1-11.56-3.11L11.53,783.26A23.1,23.1,0,0,1,0,763.27V270.2a23.1,23.1,0,0,1,34.64-20L461.88,496.73a23.12,23.12,0,0,1,11.56,20v493.64a23.1,23.1,0,0,1-23.1,23.1ZM46.19,750,427.25,970.34V530.08L46.19,310.19Z"/>
            </g>
            <g id="path4050">
              <path d="M207.61,679.88v-4.62c0-16.15,1-28.27,3.5-36.63,2.5-7.79,6-13.85,11-16.73,4.5-3.18,10-5.19,17-6.35,4.5-.86,9-2.3,13-3.46a24.73,24.73,0,0,0,9.5-7.78,30.34,30.34,0,0,0,3.5-14.14,50.81,50.81,0,0,0-4-19,76.42,76.42,0,0,0-10.49-17,53.82,53.82,0,0,0-15-12.69c-5-2.89-10-4.62-14.49-4.33a13.65,13.65,0,0,0-11.49,4.9q-4.5,5.19-4.5,16.44l-49-28.27c.5-18.17,4.49-30.86,11.49-38.94,7.49-7.79,17-11,29-10.39,12,1.15,25,5.77,39.47,14.14a176.23,176.23,0,0,1,42,33.46,152.06,152.06,0,0,1,28.49,42.42,110.66,110.66,0,0,1,10.5,47c0,11-1.5,19.34-4.5,26.26a32.31,32.31,0,0,1-13,14.43,50.24,50.24,0,0,1-19.5,6c-6,.57-11.49,2-15.49,4.32s-7,6.34-9,11c-2,5.19-3,12.12-3,21.35v4.61ZM231.1,781.73c-8-4.62-14.49-11.84-20.49-21.65-5.5-10.1-8-19.05-8-28.28,0-8.65,2.49-15.29,8-18.46,6-2.88,12.49-2.59,20.49,2,7.49,4.34,14,11.55,20,21.37,5.5,9.52,8.5,19.33,8.5,28,0,6.35-1.5,10.67-4,14.42a13,13,0,0,1-10.49,6.05c-4,.58-9-.58-14-3.47Z"/>
            </g>
          </g>
          <g>
            <g id="path12">
              <path d="M450.34,539.83a23.09,23.09,0,0,1-11.54-3.09L11.55,290.21a23.1,23.1,0,0,1,0-40L438.78,3.1a23.12,23.12,0,0,1,23.12,0L889.15,250.21a23.1,23.1,0,0,1,0,40L461.88,536.74A23.06,23.06,0,0,1,450.34,539.83ZM69.26,270.18,450.34,490.07,831.42,270.18,450.34,49.77Z"/>
            </g>
            <g id="path4060">
              <path d="M470.33,315.23l-4-2.31c-14-8.08-24-15-30-21.35-5.5-6.07-9-12.13-9-17.9-.5-5.49.49-11.26,3-17.9,1.5-4.33,2.5-9,3.5-13a24.75,24.75,0,0,0-2-12.13,30.33,30.33,0,0,0-10.5-10.11,50.63,50.63,0,0,0-18.49-6.06,76.15,76.15,0,0,0-20,.57,53.92,53.92,0,0,0-18.49,6.65c-5,2.88-9,6.35-11,10.39a13.67,13.67,0,0,0-1.49,12.42q2.25,6.5,12,12.13l-49,28.29c-15.5-9.53-24.5-19.34-28-29.45-3-10.39-1-20.21,5.47-30.32,7-9.82,17.48-18.77,32-27.15a176.32,176.32,0,0,1,50-19.65,152.07,152.07,0,0,1,51-3.46,110.56,110.56,0,0,1,46,14.44c9.49,5.49,16,11,20.49,17a32.3,32.3,0,0,1,6,18.48,50.11,50.11,0,0,1-4.5,19.93c-2.5,5.48-4,11-4,15.59s2,9.24,5,13.28c3.5,4.33,9,8.66,17,13.28l4,2.31Zm99.9,30.58c-8,4.62-17.49,6.64-29,6.93-11.49-.29-20.48-2.6-28.47-7.22-7.49-4.32-12-9.81-12-16.15.5-6.64,4-12.12,12-16.74,7.5-4.33,17-6.35,28.48-6.63,11,0,21,2.3,28.48,6.63,5.49,3.18,8.49,6.64,10.48,10.68a13,13,0,0,1,0,12.12c-1.5,3.75-5,7.5-10,10.38Z"/>
            </g>
          </g>
        </g>
      </g>
    </g>
  </g>
</svg>
