<svg xmlns="http://www.w3.org/2000/svg" viewBox="0 0 1174.17 850.61">
  <defs>
    <style>
      .cls-1 {
        fill: #188453;
      }

      .cls-2 {
        fill: #1e9e67;
      }

      .cls-3 {
        fill: #35ba74;
      }

      .cls-4 {
        fill: #4c4c4e;
      }

      .cls-5 {
        fill: #3a3a3a;
      }

      .cls-6 {
        fill: #5b5b5b;
      }

      .cls-7 {
        fill: #2b2b2b;
      }

      .cls-8 {
        fill: #b2a15b;
      }
    </style>
  </defs>
  <title>Asset 12</title>
  <g id="Layer_2" data-name="Layer 2">
    <g id="Layer_1-2" data-name="Layer 1">
      <polygon class="cls-1" points="1174.17 363.01 1114.44 363.01 1114.44 570.83 1174.17 560.05 1174.17 363.01"/>
      <g>
        <rect class="cls-1" x="99.1" y="781.83" width="56.05" height="68.78"/>
        <rect class="cls-1" x="1022.16" y="781.83" width="56.05" height="68.78"/>
      </g>
      <rect class="cls-2" x="64.34" y="222.26" width="1048.39" height="581.84"/>
      <rect class="cls-1" x="64.34" y="222.26" width="1048.39" height="25.95"/>
      <rect class="cls-3" x="42.06" y="188.24" width="1093.19" height="34.02"/>
      <rect class="cls-4" x="64.34" y="171.84" width="1048.39" height="17.13"/>
      <polygon class="cls-5" points="64.34 171.84 163.47 9.79 588.66 9.79 588.66 171.84 64.34 171.84"/>
      <polygon class="cls-4" points="588.66 32.31 588.66 9.79 163.47 9.79 149.77 32.31 588.66 32.31"/>
      <g>
        <g>
          <polygon class="cls-6" points="231.03 143.93 209.25 143.93 279.5 0 301.29 0 231.03 143.93"/>
          <polygon class="cls-4" points="209.25 143.93 205.09 158.86 234.95 158.86 231.03 143.93 209.25 143.93"/>
          <polygon class="cls-7" points="234.95 158.86 309.61 9.79 301.29 0 231.03 143.93 234.95 158.86"/>
        </g>
        <g>
          <polygon class="cls-6" points="331.39 143.93 309.61 143.93 364.44 0 386.23 0 331.39 143.93"/>
          <polygon class="cls-4" points="309.61 143.93 305.45 158.86 335.31 158.86 331.39 143.93 309.61 143.93"/>
          <polygon class="cls-7" points="335.31 158.86 394.55 9.79 386.23 0 331.39 143.93 335.31 158.86"/>
        </g>
        <g>
          <polygon class="cls-6" points="442.04 143.93 420.25 143.93 462.35 0 484.14 0 442.04 143.93"/>
          <polygon class="cls-4" points="420.25 143.93 416.33 158.86 446.2 158.86 442.04 143.93 420.25 143.93"/>
          <polygon class="cls-7" points="446.2 158.86 492.46 9.79 484.14 0 442.04 143.93 446.2 158.86"/>
        </g>
        <g>
          <polygon class="cls-6" points="531.62 143.93 509.84 143.93 541.9 0 563.69 0 531.62 143.93"/>
          <polygon class="cls-4" points="509.84 143.93 505.92 158.86 535.54 158.86 531.62 143.93 509.84 143.93"/>
          <polygon class="cls-7" points="535.54 158.86 571.77 9.79 563.69 0 531.62 143.93 535.54 158.86"/>
        </g>
        <g>
          <polygon class="cls-6" points="129.45 143.93 107.67 143.93 188.93 0 210.72 0 129.45 143.93"/>
          <polygon class="cls-4" points="107.67 143.93 103.75 158.86 133.37 158.86 129.45 143.93 107.67 143.93"/>
          <polygon class="cls-7" points="133.37 158.86 218.8 9.79 210.72 0 129.45 143.93 133.37 158.86"/>
        </g>
      </g>
      <polygon class="cls-5" points="1112.97 171.84 1013.84 9.79 588.66 9.79 558.79 171.84 1112.97 171.84"/>
      <polygon class="cls-4" points="1027.55 32.31 1013.84 9.79 588.66 9.79 584.5 32.31 1027.55 32.31"/>
      <g>
        <g>
          <polygon class="cls-6" points="946.28 143.93 968.07 143.93 897.81 0 876.03 0 946.28 143.93"/>
          <polygon class="cls-4" points="968.07 143.93 972.23 158.86 942.36 158.86 946.28 143.93 968.07 143.93"/>
          <polygon class="cls-7" points="942.36 158.86 867.71 9.79 876.03 0 946.28 143.93 942.36 158.86"/>
        </g>
        <g>
          <polygon class="cls-6" points="845.92 143.93 867.71 143.93 812.88 0 791.09 0 845.92 143.93"/>
          <polygon class="cls-4" points="867.71 143.93 871.62 158.86 842 158.86 845.92 143.93 867.71 143.93"/>
          <polygon class="cls-7" points="842 158.86 782.77 9.79 791.09 0 845.92 143.93 842 158.86"/>
        </g>
        <g>
          <polygon class="cls-6" points="735.28 143.93 757.07 143.93 714.96 0 693.18 0 735.28 143.93"/>
          <polygon class="cls-4" points="757.07 143.93 760.98 158.86 731.12 158.86 735.28 143.93 757.07 143.93"/>
          <polygon class="cls-7" points="731.12 158.86 684.86 9.79 693.18 0 735.28 143.93 731.12 158.86"/>
        </g>
        <g>
          <polygon class="cls-6" points="645.69 143.93 667.48 143.93 635.41 0 613.63 0 645.69 143.93"/>
          <polygon class="cls-4" points="667.48 143.93 671.39 158.86 641.53 158.86 645.69 143.93 667.48 143.93"/>
          <polygon class="cls-7" points="641.53 158.86 605.3 9.79 613.63 0 645.69 143.93 641.53 158.86"/>
        </g>
        <g>
          <polygon class="cls-6" points="1047.86 143.93 1069.65 143.93 988.38 0 966.6 0 1047.86 143.93"/>
          <polygon class="cls-4" points="1069.65 143.93 1073.57 158.86 1043.7 158.86 1047.86 143.93 1069.65 143.93"/>
          <polygon class="cls-7" points="1043.7 158.86 958.27 9.79 966.6 0 1047.86 143.93 1043.7 158.86"/>
        </g>
      </g>
      <rect class="cls-3" x="1070.87" y="334.12" width="54.1" height="263.63"/>
      <rect class="cls-3" x="150.26" y="352.97" width="876.8" height="20.07"/>
      <rect class="cls-1" x="150.26" y="363.01" width="876.8" height="20.07"/>
      <polygon class="cls-1" points="0 362.95 59.73 362.95 59.73 570.77 0 560 0 362.95"/>
      <rect class="cls-8" x="134.87" y="281.44" width="80.78" height="52.63"/>
      <g>
        <rect class="cls-5" x="147.85" y="295.88" width="41.86" height="6.36"/>
        <rect class="cls-5" x="147.85" y="313.5" width="21.05" height="6.36"/>
      </g>
      <rect class="cls-3" x="48.96" y="334.07" width="54.1" height="263.63"/>
    </g>
  </g>
</svg>
