<svg xmlns="http://www.w3.org/2000/svg" viewBox="0 0 895.56 521.33">
  <defs>
    <style>
      .cls-1 {
        fill: #e5ac7c;
      }

      .cls-2 {
        fill: #d89e68;
      }

      .cls-3 {
        fill: #eeae72;
      }

      .cls-4 {
        fill: #de9a68;
      }

      .cls-5 {
        fill: #c4905f;
      }

      .cls-6 {
        fill: #222321;
      }

      .cls-7 {
        fill: #fff;
      }

      .cls-8 {
        fill: #f8b884;
      }

      .cls-9 {
        fill: #fbd7ba;
      }
    </style>
  </defs>
  <title>Asset 11</title>
  <g id="Layer_2" data-name="Layer 2">
    <g id="Layer_1-2" data-name="Layer 1">
      <g>
        <polygon class="cls-1" points="847.54 186.69 848.46 187.22 846.06 190.83 895.56 162.65 895.56 159.35 847.54 186.69"/>
        <polygon class="cls-2" points="778.91 226.79 778.91 292.04 778.85 292.07 778.89 292.1 846.06 190.83 848.46 187.22 778.91 226.79"/>
        <polygon class="cls-3" points="778.91 155.49 848.46 187.22 847.54 186.69 576.58 31.73 575.56 31.27 507.49 0.26 778.91 155.49"/>
        <polygon class="cls-3" points="402.68 508.57 402.92 508.44 402.68 508.39 402.68 508.57"/>
        <polygon class="cls-3" points="778.91 155.49 403.15 371.75 403.63 372.02 778.91 155.49"/>
        <polygon class="cls-3" points="778.91 226.79 776.28 228.29 776.28 290.52 405.32 504.02 405.32 439.35 403.63 440.31 402.68 440.87 402.68 508.05 403.14 508.31 778.85 292.07 778.91 292.04 778.91 226.79"/>
        <polygon class="cls-2" points="124.19 374.5 61.36 338.57 60.73 338.44 124.08 374.67 124.19 374.5"/>
        <polygon class="cls-2" points="157.77 393.71 157.65 393.87 240.35 441.17 240.55 441.05 157.77 393.71"/>
        <polygon class="cls-2" points="345.17 475.15 323.14 488.28 274.15 460.27 273.96 460.38 323.44 488.68 323.44 491.97 323.36 492.02 402.19 508.29 402.68 508.39 402.92 508.44 403.63 508.59 403.14 508.31 402.68 508.05 345.17 475.15"/>
        <polygon class="cls-3" points="202.3 260.34 202.32 260.35 204.99 258.81 130.81 216.54 51.27 332.8 61.36 338.57 124.19 374.5 202.3 260.34"/>
        <polygon class="cls-3" points="403.63 372.02 403.15 371.75 355.23 344.43 276.25 458.51 242.72 439.25 320.96 324.9 239.1 278.25 236.77 279.6 157.77 393.71 240.55 441.05 243.02 439.65 276.54 458.91 274.15 460.27 323.14 488.28 403.63 372.02"/>
        <polygon class="cls-4" points="107.64 424.11 105.01 425.62 71.48 406.36 74.04 404.9 0 362.55 0 365.85 271.87 521.33 271.87 518.04 107.64 424.11"/>
        <polygon class="cls-1" points="323.44 488.68 271.87 518.04 271.87 521.33 323.36 492.02 323.44 491.97 323.44 488.68"/>
        <polygon class="cls-5" points="778.91 155.49 403.63 372.02 323.14 488.28 345.17 475.15 347.31 473.88 400.05 442.44 402.68 440.87 403.63 440.31 405.32 439.35 776.28 228.29 778.91 226.79 848.46 187.22 778.91 155.49"/>
        <polygon class="cls-6" points="690.46 170.28 692.63 169.03 653.83 146.48 651.66 147.74 690.46 170.28"/>
        <polygon class="cls-6" points="633.74 158.08 672.54 180.63 672.87 180.43 674.71 179.37 635.92 156.83 633.74 158.08"/>
        <polygon class="cls-6" points="633.3 158.33 633.74 158.59 633.74 158.08 633.3 158.33"/>
        <polygon class="cls-6" points="639.61 157.92 636.83 156.3 635.92 156.83 674.71 179.37 675.62 178.85 651.08 164.59 639.61 157.92"/>
        <polygon class="cls-6" points="633.74 158.08 633.74 158.59 672.1 180.88 672.54 180.63 633.74 158.08 633.74 158.08"/>
        <polygon class="cls-6" points="622.09 164.81 660.88 187.35 664.4 185.32 625.61 162.78 622.09 164.81"/>
        <polygon class="cls-6" points="608.12 172.87 605.94 174.13 644.74 196.68 646.91 195.42 610.7 174.38 608.12 172.87"/>
        <polygon class="cls-6" points="601.07 176.94 639.87 199.49 642.04 198.23 603.25 175.69 601.07 176.94"/>
        <polygon class="cls-6" points="629.14 205.68 631.31 204.43 629.13 205.68 629.14 205.68"/>
        <polygon class="cls-6" points="582.17 187.86 620.96 210.41 625.78 207.62 586.99 185.07 582.17 187.86"/>
        <path class="cls-7" d="M563.49,189.28a1.58,1.58,0,0,0-1,1.63l0,.16.11.22.08.14.19.22.12.13.43.31L582.21,203l30.54,17.75a4.9,4.9,0,0,0,2.42.59l.66,0a4.38,4.38,0,0,0,1.77-.55l100.74-58.16.45-.31.07-.08.24-.27.06-.11.13-.26,0-.13,0-.24h0a1.72,1.72,0,0,0-1-1.4l-49.28-28.63a5.3,5.3,0,0,0-4.84,0ZM621,210.4l-38.79-22.54,4.82-2.79,38.8,22.55Zm-28.44-28.52,38.79,22.55-2.17,1.25h0l-38.8-22.54Zm42.58,20.37L596.3,179.7l2.17-1.26L637.27,201Zm4.77-2.76-38.8-22.55,2.18-1.25L642,198.23Zm4.87-2.81-38.8-22.55,2.18-1.26,2.58,1.51,36.21,21Zm4.75-2.75L610.7,171.39l2.17-1.26,2.72,1.58,7.15,4.16,28.93,16.81Zm4.89-2.82-38.8-22.54,3.52-2,11.45,6.65,27.34,15.89Zm6.5-3.76-38.79-22.54,3.51-2,38.8,22.55Zm6.19-3.57-38.79-22.54,2.17-1.26,14.26,8.29,24.54,14.26Zm7.64-4.41-1.84,1.06-.33.2-.44.25-38.36-22.29-.43-.26.43-.25h0l2.18-1.25.91-.53,2.78,1.62,11.47,6.67,24.54,14.26Zm3.69-2.13L639.6,154.7l2.18-1.26L680.57,176Zm6-3.43-38.79-22.55,2.17-1.26,38.8,22.55ZM662,141.76l38.8,22.55L696,167.09l-38.8-22.55Zm-8.18,4.72L692.63,169l-2.17,1.25-38.8-22.54h0Z"/>
        <polygon class="cls-6" points="700.81 164.31 662.01 141.76 657.19 144.54 695.99 167.09 700.81 164.31"/>
        <polygon class="cls-6" points="645.56 151.26 684.36 173.81 686.53 172.55 647.73 150 645.56 151.26"/>
        <polygon class="cls-6" points="639.6 154.7 678.4 177.25 680.57 175.99 641.78 153.44 639.6 154.7"/>
        <polygon class="cls-6" points="630.45 159.98 628.28 161.24 667.07 183.78 669.25 182.53 644.71 168.27 630.45 159.98"/>
        <polygon class="cls-6" points="619.1 166.54 615.58 168.57 654.38 191.11 657.89 189.08 630.55 173.19 619.1 166.54"/>
        <polygon class="cls-6" points="612.87 170.13 610.7 171.39 649.49 193.93 651.67 192.68 622.74 175.87 612.87 170.13"/>
        <polygon class="cls-6" points="596.3 179.7 635.1 202.25 637.27 200.99 598.47 178.44 596.3 179.7"/>
        <polygon class="cls-6" points="631.31 204.43 592.52 181.88 590.34 183.14 629.13 205.68 631.31 204.43"/>
        <path class="cls-7" d="M412.24,100.13l0,.16.11.23.08.14.2.22.11.13.44.31,18.73,10.88,58.72,33.92a4.87,4.87,0,0,0,2.42.58l.65,0a4.71,4.71,0,0,0,1.77-.55L596.24,88l.44-.31.07-.09.24-.26.06-.12.13-.25,0-.13,0-.25h0a1.68,1.68,0,0,0-1-1.4L518.8,40.35a5.3,5.3,0,0,0-4.84,0L413.21,98.51A1.58,1.58,0,0,0,412.24,100.13ZM471.78,127l39.64-22.89,2.94,1.7-39.64,22.89ZM479,131.7l47.53-27.63,2.95,1.7L482,133.4Zm11,6.43-2.94-1.7,47.54-27.63,2.94,1.7Zm17.39-36.85-39.63,22.9-2.94-1.7,39.64-22.9Zm-9.27-13.35-47.54,27.63-2.94-1.7,47.54-27.63Zm-8.06-4.73-47.54,27.63-2.94-1.7L487.15,81.5Zm-15.16,0L435.3,106.1l-2.94-1.7L472,81.5ZM465.06,77l2.94,1.7-39.63,22.9-2.94-1.7Z"/>
        <g>
          <polygon class="cls-8" points="623.68 3.87 575.56 31.27 576.58 31.73 847.54 186.69 895.56 159.35 623.68 3.87"/>
          <polygon class="cls-8" points="347.31 473.88 345.17 475.15 402.68 508.05 402.68 440.87 400.05 442.44 347.31 473.88"/>
          <polygon class="cls-8" points="402.68 508.57 402.68 508.39 402.19 508.29 402.68 508.57"/>
          <polygon class="cls-8" points="405.32 504.02 776.28 290.52 776.28 228.29 405.32 439.35 405.32 504.02"/>
          <path class="cls-8" d="M507,0,130.81,216.54,205,258.81l-2.67,1.54h0L124.19,374.5l-.11.17L60.73,338.44l-9.17-5.25L0,362.55,74,404.9l-2.56,1.46L105,425.62l2.63-1.51L271.87,518l51.57-29.36L274,460.38l.19-.11,2.39-1.36L243,439.65l-2.47,1.4-.2.12-82.7-47.3.12-.16,79-114.11,2.33-1.35L321,324.9,242.72,439.25l33.53,19.26,79-114.08,47.92,27.32L778.91,155.49,507.49.26ZM244.64,236l-25.07-14.88-26.72-15.52-.61-.45-.17-.18-.28-.31-.11-.21-.15-.31-.05-.23a2.28,2.28,0,0,1,1.4-2.32l63.17-35.41a7.67,7.67,0,0,1,6.92,0l50.78,30L347.23,216l74.53,44.09a2.42,2.42,0,0,1,1.42,2h0l-.06.35,0,.18-.19.37-.08.16-.35.38-.1.12a4.63,4.63,0,0,1-.63.44l-63.18,35.41a6.42,6.42,0,0,1-2.52.78,7.4,7.4,0,0,1-.94.05,6.94,6.94,0,0,1-3.45-.83l-73.59-43.69ZM413.2,101.32l-.44-.31-.11-.13-.2-.22-.08-.14-.11-.23,0-.16a1.58,1.58,0,0,1,1-1.62L514,40.35a5.3,5.3,0,0,1,4.84,0l77.45,44.8a1.68,1.68,0,0,1,1,1.4h0l0,.25,0,.13-.13.25-.06.12-.24.26-.07.09-.44.31L495.49,146.12a4.71,4.71,0,0,1-1.77.55l-.65,0a4.87,4.87,0,0,1-2.42-.58L431.93,112.2Zm306.15,59.84,0,.24,0,.13-.13.26-.06.11-.24.27-.07.08-.45.31L617.6,220.72a4.38,4.38,0,0,1-1.77.55l-.66,0a4.9,4.9,0,0,1-2.42-.59L582.21,203l-18.74-10.88-.43-.31-.12-.13-.19-.22-.08-.14-.11-.22,0-.16a1.58,1.58,0,0,1,1-1.63l100.75-58.16a5.3,5.3,0,0,1,4.84,0l49.28,28.63a1.72,1.72,0,0,1,1,1.4Z"/>
          <polygon class="cls-8" points="612.87 170.13 622.74 175.87 615.59 171.71 612.87 170.13"/>
          <polygon class="cls-8" points="651.66 147.74 653.83 146.48 651.66 147.74 651.66 147.74"/>
          <polygon class="cls-8" points="465.06 77.01 425.43 99.91 428.37 101.61 468 78.71 465.06 77.01"/>
          <polygon class="cls-8" points="435.3 106.1 474.93 83.2 471.99 81.5 432.36 104.4 435.3 106.1"/>
          <polygon class="cls-8" points="442.55 110.83 490.09 83.2 487.15 81.5 439.61 109.13 442.55 110.83"/>
          <polygon class="cls-8" points="450.61 115.56 498.15 87.93 495.21 86.23 447.67 113.86 450.61 115.56"/>
          <polygon class="cls-8" points="467.79 124.18 507.43 101.28 504.49 99.58 464.85 122.48 467.79 124.18"/>
          <polygon class="cls-8" points="474.72 128.66 514.36 105.77 511.42 104.07 471.78 126.96 474.72 128.66"/>
          <polygon class="cls-8" points="481.98 133.4 529.52 105.77 526.57 104.07 479.04 131.7 481.98 133.4"/>
          <polygon class="cls-8" points="490.03 138.13 537.57 110.5 534.63 108.8 487.09 136.43 490.03 138.13"/>
        </g>
        <path class="cls-9" d="M355.1,300.35a7.4,7.4,0,0,0,.94-.05,6.42,6.42,0,0,0,2.52-.78l63.18-35.41a4.63,4.63,0,0,0,.63-.44l.1-.12.35-.38.08-.16.19-.37,0-.18.06-.35h0a2.42,2.42,0,0,0-1.42-2L347.23,216l-33.48-19.81-50.78-30a7.67,7.67,0,0,0-6.92,0l-63.17,35.41a2.28,2.28,0,0,0-1.4,2.32l.05.23.15.31.11.21.28.31.17.18.61.45,26.72,15.52L244.64,236l33.42,19.84,73.59,43.69A6.94,6.94,0,0,0,355.1,300.35Z"/>
      </g>
    </g>
  </g>
</svg>
