<svg xmlns="http://www.w3.org/2000/svg" viewBox="0 0 1168.23 1046.79">
  <defs>
    <style>
      .cls-1 {
        fill: #ce1717;
      }

      .cls-2 {
        fill: #aa1818;
      }

      .cls-3 {
        fill: #ba1717;
      }

      .cls-4 {
        fill: #ddd9d9;
      }

      .cls-5 {
        fill: #a3a3a3;
      }

      .cls-6 {
        fill: #bfbfbf;
      }

      .cls-7 {
        fill: #f2f2f2;
      }

      .cls-8 {
        fill: #c6c6c6;
      }

      .cls-9 {
        fill: #b5b5b5;
      }

      .cls-10 {
        fill: #9b9b9b;
      }

      .cls-11 {
        fill: #8c8c8c;
      }

      .cls-12 {
        fill: #7f7f7f;
      }

      .cls-13 {
        fill: #7c7c7c;
      }

      .cls-14 {
        fill: #a5a5a5;
      }

      .cls-15 {
        fill: #bababa;
      }

      .cls-16 {
        fill: #999;
      }
    </style>
  </defs>
  <title>Asset 4</title>
  <g id="Layer_2" data-name="Layer 2">
    <g id="Layer_1-2" data-name="Layer 1">
      <g>
        <polygon class="cls-1" points="40.07 413.34 40.07 777.04 509.78 1046.79 509.78 681.57 40.07 413.34"/>
        <polygon class="cls-2" points="509.78 681.57 1135.74 325.44 1135.74 686.12 509.78 1046.79 509.78 681.57"/>
        <polygon class="cls-3" points="40.07 413.34 665.95 52.66 1135.74 325.44 509.78 681.57 40.07 413.34"/>
        <polygon class="cls-4" points="0 384.47 506.7 677.75 1168.23 290.46 668.07 0 0 384.47"/>
        <polygon class="cls-5" points="1168.23 290.46 1168.23 346.94 506.7 734.23 506.7 677.75 1168.23 290.46"/>
        <polygon class="cls-6" points="0 437.31 0 384.47 506.7 677.75 506.7 734.23 0 437.31"/>
        <path class="cls-7" d="M780.42,834.2a54.47,54.47,0,0,1-27.53-7.11C732.94,815.61,722,791.88,722,760.26c0-62.81,44-139.35,98-170.63,27-15.66,52.86-18,72.68-6.56s30.89,35.18,30.89,66.71c0,62.68-44,139.22-98,170.63C809.77,829.57,794.41,834.2,780.42,834.2Zm45.11-235c-51,29.52-92.5,101.76-92.5,161,0,27.49,9,47.82,25.38,57.23s38.1,7,61.57-6.65c51-29.65,92.5-101.9,92.5-161.06,0-27.41-9-47.69-25.34-57.12s-38.12-7-61.61,6.55Z"/>
        <polygon class="cls-7" points="804.28 651.64 804.28 693.68 767.07 715.37 767.07 758.03 804.28 737.32 804.28 779.89 841.5 758.03 841.5 715.77 878.45 693.41 878.45 651.64 841.23 673.06 841.23 630.22 804.28 651.64"/>
        <g>
          <polygon class="cls-8" points="73.03 357.74 521.64 618.53 556.08 599.67 102.56 338.88 73.03 357.74"/>
          <polygon class="cls-9" points="521.64 637.81 521.64 618.53 556.08 599.67 556.08 618.95 521.64 637.81"/>
          <polygon class="cls-10" points="73.03 377.01 73.03 357.74 521.64 618.53 521.64 637.81 73.03 377.01"/>
        </g>
        <g>
          <polygon class="cls-8" points="626.65 41.17 1075.26 301.96 1109.7 283.1 656.18 22.3 626.65 41.17"/>
          <polygon class="cls-9" points="1075.26 321.24 1075.26 301.96 1109.7 283.1 1109.7 302.37 1075.26 321.24"/>
          <polygon class="cls-10" points="626.65 60.44 626.65 41.17 1075.26 301.96 1075.26 321.24 626.65 60.44"/>
        </g>
        <g>
          <polygon class="cls-11" points="587.9 659.21 587.9 809.64 653.5 773.05 653.5 622.32 587.9 659.21"/>
          <g>
            <polygon class="cls-5" points="605.56 669.93 605.56 820.36 671.16 783.78 671.16 633.04 605.56 669.93"/>
            <polygon class="cls-11" points="605.56 820.36 587.9 809.64 587.9 659.21 605.56 669.93 605.56 820.36"/>
            <polygon class="cls-12" points="605.56 669.93 587.9 659.21 653.5 622.32 671.16 633.04 605.56 669.93"/>
          </g>
          <g>
            <polygon class="cls-6" points="631.88 701.53 631.88 769.9 661.7 753.27 661.7 684.75 631.88 701.53"/>
            <polygon class="cls-11" points="631.88 769.9 623.86 765.03 623.86 696.65 631.88 701.53 631.88 769.9"/>
            <polygon class="cls-12" points="631.88 701.53 623.86 696.65 653.67 679.88 661.7 684.75 631.88 701.53"/>
          </g>
          <polygon class="cls-13" points="631.88 727.94 631.88 737.34 661.7 720.47 661.7 711.17 631.88 727.94"/>
        </g>
        <g>
          <polygon class="cls-11" points="1004.67 418.91 1004.67 569.33 1070.26 532.75 1070.26 382.01 1004.67 418.91"/>
          <g>
            <polygon class="cls-5" points="1022.33 429.63 1022.33 580.05 1087.92 543.48 1087.92 392.74 1022.33 429.63"/>
            <polygon class="cls-11" points="1022.33 580.05 1004.67 569.33 1004.67 418.91 1022.33 429.63 1022.33 580.05"/>
            <polygon class="cls-12" points="1022.33 429.63 1004.67 418.91 1070.26 382.01 1087.92 392.74 1022.33 429.63"/>
          </g>
          <g>
            <polygon class="cls-6" points="1048.64 461.22 1048.64 529.6 1078.46 512.97 1078.46 444.45 1048.64 461.22"/>
            <polygon class="cls-11" points="1048.64 529.6 1040.62 524.73 1040.62 456.35 1048.64 461.22 1048.64 529.6"/>
            <polygon class="cls-12" points="1048.64 461.22 1040.62 456.35 1070.43 439.58 1078.46 444.45 1048.64 461.22"/>
          </g>
          <polygon class="cls-13" points="1048.64 487.63 1048.64 497.04 1078.46 480.17 1078.46 470.86 1048.64 487.63"/>
        </g>
        <g>
          <polygon class="cls-14" points="418.09 430.77 418.09 267.37 734.95 81.54 734.95 251.31 696.71 271.96 696.71 149.6 456.58 288.02 456.58 411.32 418.09 430.77"/>
          <polygon class="cls-15" points="450.21 450.4 450.21 284.2 767.07 98.36 767.07 268.14 728.83 288.79 728.83 166.43 488.7 304.85 488.7 428.14 450.21 450.4"/>
          <polygon class="cls-14" points="450.21 450.4 418.09 430.77 418.09 267.37 450.21 284.2 450.21 450.4"/>
          <polygon class="cls-16" points="450.21 284.2 418.09 267.37 734.95 81.54 767.07 98.36 450.21 284.2"/>
          <polygon class="cls-16" points="728.83 288.79 696.71 271.96 696.71 184.94 728.83 166.43 728.83 288.79"/>
        </g>
      </g>
    </g>
  </g>
</svg>
