<svg xmlns="http://www.w3.org/2000/svg" viewBox="0 0 1147.27 941.45">
  <defs>
    <style>
      .cls-1 {
        fill: #1b1b1b;
      }

      .cls-2 {
        fill: #202020;
      }

      .cls-3 {
        fill: #d50000;
      }

      .cls-4 {
        fill: #9c0000;
      }

      .cls-5 {
        fill: #be0000;
      }

      .cls-6 {
        fill: #820000;
      }

      .cls-7 {
        fill: #b20000;
      }

      .cls-8 {
        fill: #c40000;
      }

      .cls-9 {
        fill: #0c0c0c;
      }

      .cls-10 {
        fill: #0a0a0a;
      }

      .cls-11 {
        fill: #0f0f0f;
      }

      .cls-12 {
        fill: #252525;
      }

      .cls-13 {
        fill: #161616;
      }

      .cls-14 {
        fill: #141414;
      }

      .cls-15 {
        fill: #dc0000;
      }
    </style>
  </defs>
  <title>Asset 3</title>
  <g id="Layer_2" data-name="Layer 2">
    <g id="Layer_1-2" data-name="Layer 1">
      <g>
        <polygon class="cls-1" points="1035.78 63.68 1034.96 353.21 943.74 300.54 944.56 11.02 1035.78 63.68"/>
        <polygon class="cls-1" points="1126.98 116.34 1126.16 405.86 1034.96 353.21 1035.78 63.68 1126.98 116.34"/>
        <polygon class="cls-2" points="944.56 11.02 943.74 300.54 573.08 408.12 573.9 118.59 944.56 11.02"/>
        <polygon class="cls-2" points="573.9 118.59 573.08 408.12 30.38 850.24 31.2 560.71 573.9 118.59"/>
      </g>
      <g>
        <polygon class="cls-3" points="1134.61 128.16 947.4 346.34 180.33 664.45 101.67 619.04 23.03 573.63 569.7 128.28 945.75 19.12 1040.17 73.64 1134.61 128.16"/>
        <polygon class="cls-4" points="1134.61 375.63 947.4 593.8 180.33 911.91 101.67 866.5 23.03 821.1 569.7 416.46 945.75 307.31 1040.17 361.82 1134.61 375.63"/>
        <polygon class="cls-5" points="947.4 346.34 946.58 595.14 179.51 913.25 180.33 664.45 947.4 346.34"/>
        <polygon class="cls-6" points="101.67 619.04 100.85 867.84 22.21 822.44 23.03 573.63 101.67 619.04"/>
        <polygon class="cls-6" points="180.33 664.45 179.51 913.25 100.85 867.84 101.67 619.04 180.33 664.45"/>
        <polygon class="cls-7" points="1134.61 128.16 1133.79 376.96 946.58 595.14 947.4 346.34 1134.61 128.16"/>
        <polygon class="cls-8" points="946.23 18.8 946.23 306.98 573.47 416.62 573.47 128.43 946.23 18.8"/>
      </g>
      <polygon class="cls-9" points="1134.61 115.63 1133.79 405.16 946.58 623.34 947.4 333.81 1134.61 115.63"/>
      <polygon class="cls-10" points="101.69 606.52 100.87 896.04 22.21 850.63 23.03 561.11 101.69 606.52"/>
      <polygon class="cls-10" points="180.33 651.92 179.5 941.45 100.87 896.04 101.69 606.52 180.33 651.92"/>
      <polygon class="cls-11" points="947.4 333.81 946.58 623.34 179.5 941.45 180.33 651.92 947.4 333.81"/>
      <polygon class="cls-12" points="1103.79 143.36 942.46 331.38 180.98 647.19 106.1 603.96 31.2 560.71 43.48 550.71 27.86 557.17 23.03 561.11 101.69 606.52 180.33 651.92 947.4 333.81 1113.88 139.79 1103.79 143.36"/>
      <polygon class="cls-12" points="573.9 118.59 944.56 11.02 1035.78 63.68 1126.98 116.34 1103.79 143.36 1113.88 139.79 1134.61 115.63 1040.19 61.12 945.75 6.59 569.7 115.75 27.86 557.17 43.48 550.71 573.9 118.59"/>
      <polygon class="cls-13" points="1147.27 112.56 1147.07 182.35 954.02 407.45 954.22 337.65 1147.27 112.56"/>
      <polygon class="cls-11" points="81.41 619.05 81.21 688.85 0 641.96 0.2 572.17 81.41 619.05"/>
      <polygon class="cls-10" points="1147.27 112.56 954.22 337.65 162.6 665.93 81.41 619.05 0.2 572.17 564.34 112.56 952.32 0 1049.8 56.28 1147.27 112.56"/>
      <polygon class="cls-14" points="954.22 337.65 954.02 407.45 162.4 735.72 162.6 665.93 954.22 337.65"/>
      <polygon class="cls-11" points="162.6 665.93 162.4 735.72 81.21 688.85 81.41 619.05 162.6 665.93"/>
      <polygon class="cls-15" points="641.07 278.81 725.21 229.91 640.52 181.02 662.82 168.06 747.51 216.96 892.46 132.72 914.91 145.67 769.95 229.91 854.66 278.82 832.36 291.78 747.65 242.87 663.52 291.77 641.07 278.81"/>
      <path class="cls-11" d="M735.94,861.69a1.5,1.5,0,0,0,0-3,1.5,1.5,0,0,0,0,3Z"/>
    </g>
  </g>
</svg>
